<?xml version="1.0" standalone="no"?>
<!DOCTYPE svg PUBLIC "-//W3C//DTD SVG 1.1//EN" "http://www.w3.org/Graphics/SVG/1.1/DTD/svg11.dtd" >
<svg>
<metadata>
Created by FontForge 20090622 at Mon Nov 23 20:43:52 2015
 By deploy user
2007 Erik Spiekermann, Christian Schwartz, Kris Sowersby published by FSI FontShop International GmbH
</metadata>
<defs>
<font id="MetaSerifPro-BookIta" horiz-adv-x="570" >
  <font-face 
    font-family="MetaSerifPro-BookIta"
    font-weight="450"
    font-style="italic"
    font-stretch="normal"
    units-per-em="1000"
    panose-1="2 1 6 4 5 1 1 2 1 2"
    ascent="787"
    descent="-213"
    x-height="496"
    cap-height="689"
    bbox="-240 -276 1468 1073"
    underline-thickness="50"
    underline-position="-50"
    unicode-range="U+000D-U+FB04"
  />
<missing-glyph horiz-adv-x="553" 
d="M71 0v689h411v-689h-411zM121 50h311v589h-311v-589z" />
    <glyph glyph-name="f_b" unicode="fb" horiz-adv-x="805" 
d="M329 140l97 453q3 15 3 28q0 66 -78 66q-46 0 -73 -25.5t-39 -87.5l-17 -83h121l-25 -55h-106l-93 -463q-33 -161 -153 -161q-29 0 -61 16v31q63 4 89 25.5t37 80.5l92 471h-63l6 32l66 22l14 64q39 176 201 176q60 0 103 -27l60 27h13q6 -18 6 -49q0 -51 -16 -120
l-45 -196q88 138 194 138q51 0 79.5 -37.5t28.5 -110.5q0 -96 -35 -180t-101.5 -136.5t-150.5 -52.5q-41 0 -70.5 17.5t-40.5 40.5q-23 -36 -34 -44h-53q25 50 44 140zM487 35q83 0 135 94t52 224q0 85 -48 85q-40 0 -90.5 -51.5t-86.5 -113.5l-42 -196q6 -16 29 -29t51 -13
z" />
    <glyph glyph-name="f_f" unicode="ff" horiz-adv-x="579" 
d="M614 730q55 0 95 -18l-17 -83h-61q0 58 -34 58q-29 0 -48.5 -19.5t-29.5 -68.5l-21 -108h121l-25 -55h-106l-90 -450q-33 -161 -153 -161q-29 0 -61 16v31q63 4 89 25.5t37 80.5l89 458h-187l-93 -463q-33 -161 -153 -161q-29 0 -61 16v31q63 4 89 25.5t37 80.5l92 471
h-63l6 32l66 22l15 63q41 169 213 169q64 0 130 -34q50 42 124 42zM222 491h188l19 93q5 23 5 38q0 57 -85 57q-88 0 -110 -107z" />
    <glyph glyph-name="f_f_b" unicode="ffb" horiz-adv-x="1081" 
d="M222 491h188l19 93q5 23 5 38q0 57 -85 57q-88 0 -110 -107zM605 140l97 453q3 15 3 28q0 66 -78 66q-46 0 -73 -25.5t-39 -87.5l-17 -83h121l-25 -55h-106l-90 -450q-33 -161 -153 -161q-29 0 -61 16v31q63 4 89 25.5t37 80.5l89 458h-187l-93 -463q-33 -161 -153 -161
q-29 0 -61 16v31q63 4 89 25.5t37 80.5l92 471h-63l6 32l66 22l15 63q41 169 213 169q64 0 130 -34q50 42 133 42q60 0 103 -27l60 27h13q6 -18 6 -49q0 -51 -16 -120l-45 -196q88 138 194 138q51 0 79.5 -37.5t28.5 -110.5q0 -96 -35 -180t-101.5 -136.5t-150.5 -52.5
q-41 0 -70.5 17.5t-40.5 40.5q-16 -29 -34 -44h-53q25 50 44 140zM763 35q83 0 135 94t52 224q0 85 -48 85q-40 0 -90.5 -51.5t-86.5 -113.5l-42 -196q6 -16 29 -29t51 -13z" />
    <glyph glyph-name="f_f_h" unicode="ffh" horiz-adv-x="1076" 
d="M222 491h188l19 93q5 23 5 38q0 57 -85 57q-88 0 -110 -107zM786 730h13q6 -18 6 -47q0 -51 -16 -122l-43 -193q90 137 191 137q44 0 65.5 -25t21.5 -67q0 -17 -5 -42l-53 -249q-6 -29 -6 -40q0 -18 9.5 -26t31.5 -8q15 0 37 3l3 -31q-64 -29 -104 -29q-69 0 -69 74
q0 20 7 57l50 240q5 23 5 36q0 36 -33 36q-42 0 -89 -49.5t-84 -111.5l-58 -273h-91l127 593q3 15 3 28q0 66 -78 66q-46 0 -73 -25.5t-39 -87.5l-17 -83h121l-25 -55h-106l-90 -450q-33 -161 -153 -161q-29 0 -61 16v31q63 4 89 25.5t37 80.5l89 458h-187l-93 -463
q-33 -161 -153 -161q-29 0 -61 16v31q63 4 89 25.5t37 80.5l92 471h-63l6 32l66 22l15 63q41 169 213 169q64 0 130 -34q50 42 133 42q60 0 103 -27z" />
    <glyph glyph-name="f_f_i" unicode="ffi" horiz-adv-x="799" 
d="M224 491h188l19 93q5 23 5 38q0 57 -85 57q-88 0 -110 -107zM596 436h-106l-90 -450q-33 -161 -153 -161q-29 0 -61 16v31q63 4 89 25.5t37 80.5l89 458h-187l-93 -463q-33 -161 -153 -161q-29 0 -61 16v31q63 4 89 25.5t37 80.5l92 471h-63l6 32l66 22l15 63
q41 169 213 169q64 0 130 -34q50 42 136 42q85 0 130 -28l-20 -94h-71q0 42 -11 60.5t-47 18.5q-72 0 -91 -95l-20 -101h172q74 0 74 -66q0 -23 -8 -58l-56 -245q-6 -24 -6 -40q0 -18 9.5 -26t32.5 -8q14 0 37 3l3 -31q-64 -29 -112 -29q-66 0 -66 74q0 23 8 57l56 232
q6 26 6 42q0 22 -12 31t-40 9z" />
    <glyph glyph-name="f_f_j" unicode="ffj" horiz-adv-x="753" 
d="M224 491h188l19 93q5 23 5 38q0 57 -85 57q-88 0 -110 -107zM596 436h-106l-90 -450q-33 -161 -153 -161q-29 0 -61 16v31q63 4 89 25.5t37 80.5l89 458h-187l-93 -463q-33 -161 -153 -161q-29 0 -61 16v31q63 4 89 25.5t37 80.5l92 471h-63l6 32l66 22l15 63
q41 169 213 169q64 0 130 -34q50 42 136 42q85 0 130 -28l-20 -94h-71q0 42 -11 60.5t-47 18.5q-72 0 -91 -95l-20 -101h172q37 0 55.5 -16t18.5 -53q0 -18 -7 -55l-75 -371q-17 -86 -65 -130t-138 -72l-16 41q63 27 89 62.5t42 114.5l68 342q5 28 5 43q0 21 -12 30t-39 9z
" />
    <glyph glyph-name="f_f_k" unicode="ffk" horiz-adv-x="1032" 
d="M222 491h188l19 93q5 23 5 38q0 57 -85 57q-88 0 -110 -107zM575 0l127 593q3 15 3 28q0 66 -78 66q-46 0 -73 -25.5t-39 -87.5l-17 -83h121l-25 -55h-106l-90 -450q-33 -161 -153 -161q-29 0 -61 16v31q63 4 89 25.5t37 80.5l89 458h-187l-93 -463q-33 -161 -153 -161
q-29 0 -61 16v31q63 4 89 25.5t37 80.5l92 471h-63l6 32l66 22l15 63q41 169 213 169q64 0 130 -34q50 42 133 42q60 0 103 -27l60 27h13q6 -18 6 -47q0 -51 -16 -122l-123 -561h-91zM812 87l-76 182l215 222h101l-9 -43q-36 0 -71 -22t-85 -71l-66 -63l81 -187
q13 -29 26.5 -41t41.5 -12q14 0 34 3l3 -31q-52 -30 -94 -30q-35 0 -57 20.5t-44 72.5z" />
    <glyph glyph-name="f_f_l" unicode="ffl" horiz-adv-x="815" 
d="M222 491h188l19 93q5 23 5 38q0 57 -85 57q-88 0 -110 -107zM627 687q-46 0 -73 -25.5t-39 -87.5l-17 -83h121l-25 -55h-106l-90 -450q-33 -161 -153 -161q-29 0 -61 16v31q63 4 89 25.5t37 80.5l89 458h-187l-93 -463q-33 -161 -153 -161q-29 0 -61 16v31q63 4 89 25.5
t37 80.5l92 471h-63l6 32l66 22l15 63q41 169 213 169q64 0 130 -34q50 42 133 42q60 0 103 -27l60 27h13q5 -15 5 -47q0 -56 -15 -122l-94 -439q-6 -30 -6 -41q0 -18 9.5 -25.5t33.5 -7.5q16 0 40 3l3 -31q-62 -29 -110 -29q-70 0 -70 76q0 23 6 55l101 471q3 15 3 28
q0 66 -78 66z" />
    <glyph glyph-name="f_f_t" unicode="fft" horiz-adv-x="866" 
d="M222 491h188l19 93q5 23 5 38q0 57 -85 57q-88 0 -110 -107zM519 599l-21 -108h188q38 99 75 142l52 8q-26 -70 -42 -150h119l-25 -55h-106l-64 -302q-6 -30 -6 -49q0 -26 13 -36.5t42 -10.5q24 0 60 13l8 -33q-64 -32 -113 -32q-102 0 -102 91q0 23 6 50l65 309h-180
l-90 -450q-33 -161 -153 -161q-29 0 -61 16v31q63 4 89 25.5t37 80.5l89 458h-187l-93 -463q-33 -161 -153 -161q-29 0 -61 16v31q63 4 89 25.5t37 80.5l92 471h-63l6 32l66 22l15 63q41 169 213 169q64 0 130 -34q50 42 124 42q55 0 95 -18l-17 -83h-61q0 58 -34 58
q-29 0 -48.5 -19.5t-29.5 -68.5z" />
    <glyph glyph-name="f_h" unicode="fh" horiz-adv-x="800" 
d="M351 687q-46 0 -73 -25.5t-39 -87.5l-17 -83h121l-25 -55h-106l-93 -463q-33 -161 -153 -161q-29 0 -61 16v31q63 4 89 25.5t37 80.5l92 471h-63l6 32l66 22l14 64q39 176 201 176q60 0 103 -27l60 27h13q6 -18 6 -47q0 -51 -16 -122l-43 -193q90 137 191 137
q44 0 65.5 -25t21.5 -67q0 -17 -5 -42l-53 -249q-6 -29 -6 -40q0 -18 9.5 -26t31.5 -8q15 0 37 3l3 -31q-64 -29 -104 -29q-69 0 -69 74q0 20 7 57l50 240q5 23 5 36q0 36 -33 36q-42 0 -89 -49.5t-84 -111.5l-58 -273h-91l127 593q3 15 3 28q0 66 -78 66z" />
    <glyph glyph-name="f_i" unicode="fi" horiz-adv-x="523" 
d="M222 491h172q74 0 74 -66q0 -23 -8 -58l-56 -245q-6 -24 -6 -40q0 -18 9.5 -26t32.5 -8q14 0 37 3l3 -31q-64 -29 -112 -29q-66 0 -66 74q0 23 8 57l56 232q6 26 6 42q0 22 -12 31t-40 9h-108l-93 -463q-33 -161 -153 -161q-29 0 -61 16v31q63 4 89 25.5t37 80.5l92 471
h-63l6 32l66 22l15 68q38 172 208 172q82 0 127 -28l-20 -94h-71q0 42 -11 60.5t-47 18.5q-72 0 -91 -95z" />
    <glyph glyph-name="f_j" unicode="fj" horiz-adv-x="508" 
d="M320 436h-108l-93 -463q-33 -161 -153 -161q-29 0 -61 16v31q63 4 89 25.5t37 80.5l92 471h-63l6 32l66 22l15 68q38 172 208 172q82 0 127 -28l-20 -94h-71q0 42 -11 60.5t-47 18.5q-72 0 -91 -95l-20 -101h172q37 0 55.5 -16t18.5 -53q0 -18 -7 -55l-75 -371
q-17 -86 -65 -130t-138 -72l-16 41q63 27 89 62.5t42 114.5l68 342q5 28 5 43q0 21 -12 30t-39 9z" />
    <glyph glyph-name="f_k" unicode="fk" horiz-adv-x="756" 
d="M299 0l127 593q3 15 3 28q0 66 -78 66q-46 0 -73 -25.5t-39 -87.5l-17 -83h121l-25 -55h-106l-93 -463q-33 -161 -153 -161q-29 0 -61 16v31q63 4 89 25.5t37 80.5l92 471h-63l6 32l66 22l14 64q39 176 201 176q60 0 103 -27l60 27h13q6 -18 6 -47q0 -51 -16 -122
l-123 -561h-91zM536 87l-76 182l215 222h101l-9 -43q-36 0 -71 -22t-85 -71l-66 -63l82 -189q13 -29 25.5 -40t40.5 -11q14 0 35 3l3 -31q-52 -30 -94 -30q-35 0 -57 20.5t-44 72.5z" />
    <glyph glyph-name="f_l" unicode="fl" horiz-adv-x="539" 
d="M325 122l101 471q3 15 3 28q0 66 -78 66q-46 0 -73 -25.5t-39 -87.5l-17 -83h121l-25 -55h-106l-93 -463q-33 -161 -153 -161q-29 0 -61 16v31q63 4 89 25.5t37 80.5l92 471h-63l6 32l66 22l14 64q39 176 201 176q60 0 103 -27l60 27h13q5 -15 5 -47q0 -56 -15 -122
l-94 -439q-6 -30 -6 -41q0 -18 9.5 -25.5t33.5 -7.5q16 0 40 3l3 -31q-62 -29 -110 -29q-70 0 -70 76q0 23 6 55z" />
    <glyph glyph-name="f_t" unicode="ft" horiz-adv-x="590" 
d="M222 491h188q38 99 75 142l52 8q-26 -70 -42 -150h119l-25 -55h-106l-64 -302q-6 -30 -6 -49q0 -26 13 -36.5t42 -10.5q24 0 60 13l8 -33q-64 -32 -113 -32q-102 0 -102 91q0 23 6 50l65 309h-180l-93 -463q-33 -161 -153 -161q-29 0 -61 16v31q63 4 89 25.5t37 80.5
l92 471h-63l6 32l66 22l16 80q15 78 66 119t124 41q55 0 95 -18l-17 -83h-61q0 58 -34 58q-29 0 -48.5 -19.5t-29.5 -68.5z" />
    <glyph glyph-name=".notdef" horiz-adv-x="553" 
d="M71 0v689h411v-689h-411zM121 50h311v589h-311v-589z" />
    <glyph glyph-name=".null" horiz-adv-x="0" 
 />
    <glyph glyph-name=".null" horiz-adv-x="0" 
 />
    <glyph glyph-name="nonmarkingreturn" horiz-adv-x="333" 
 />
    <glyph glyph-name="CR" unicode="&#xd;" horiz-adv-x="225" 
 />
    <glyph glyph-name="space" unicode=" " horiz-adv-x="225" 
 />
    <glyph glyph-name="exclam" unicode="!" horiz-adv-x="325" 
d="M325 702l-150 -492h-53l82 477zM186 60q0 -28 -20 -48t-47 -20t-45.5 19.5t-18.5 48.5q0 27 18.5 46t46.5 19q27 0 46.5 -19t19.5 -46z" />
    <glyph glyph-name="quotedbl" unicode="&#x22;" horiz-adv-x="434" 
d="M380 453h-85l50 256h85zM201 453h-85l50 256h85z" />
    <glyph glyph-name="numbersign" unicode="#" horiz-adv-x="561" 
d="M575 430h-103l-51 -151h94l-13 -68h-103l-71 -211h-72l70 211h-122l-70 -211h-72l70 211h-91l13 68h101l50 151h-92l13 69h102l70 209h72l-70 -209h122l70 209h72l-70 -209h94zM400 430h-122l-51 -151h122z" />
    <glyph glyph-name="dollar" unicode="$" horiz-adv-x="497" 
d="M146 -100l18 87q-103 9 -159 59l23 125h64q0 -65 17 -96.5t65 -39.5l58 284l-42 22q-105 54 -105 160q0 89 62 143t163 56l18 85h45l-18 -87q99 -9 147 -55l-19 -108h-61q0 95 -77 113l-53 -254l30 -15q61 -33 95 -72.5t34 -103.5q0 -101 -60.5 -158t-182.5 -59l-17 -86
h-45zM363 170q0 78 -90 128l-55 -265q70 1 107.5 38t37.5 99zM170 531q0 -44 19 -68t63 -48l49 238q-61 -1 -96 -34.5t-35 -87.5z" />
    <glyph glyph-name="percent" unicode="%" horiz-adv-x="928" 
d="M382 505q0 -110 -57 -187.5t-150 -77.5q-63 0 -98 36t-35 107q0 105 56.5 186.5t151.5 81.5q65 0 98.5 -38t33.5 -108zM183 274q31 0 55 27t37 67t19.5 78t6.5 68q0 99 -58 99q-52 0 -85.5 -77t-33.5 -162q0 -100 59 -100zM791 730l-617 -853h-54l617 853h54zM898 255
q0 -110 -57 -187.5t-150 -77.5q-63 0 -98 36t-35 107q0 105 56.5 186.5t151.5 81.5q65 0 98.5 -38t33.5 -108zM699 24q31 0 55 27t37 67t19.5 78t6.5 68q0 99 -58 99q-52 0 -85.5 -77t-33.5 -162q0 -100 59 -100z" />
    <glyph glyph-name="ampersand" unicode="&#x26;" horiz-adv-x="679" 
d="M588 287q-46 -101 -79 -148l64 -78q27 -28 72 -28l-5 -33h-134l-59 71q-102 -85 -211 -85q-113 0 -169.5 43.5t-56.5 121.5q0 129 204 198l-21 24q-33 37 -48 69t-15 76q0 71 53 126.5t152 55.5q85 0 133 -37.5t48 -104.5q0 -122 -196 -196l160 -190q54 77 54 132
q0 24 -14 33t-52 11l7 35h209l-7 -35q-39 -1 -56 -13t-33 -48zM240 33q96 0 179 70l-182 218q-63 -31 -93 -69.5t-30 -100.5q0 -53 33.5 -85.5t92.5 -32.5zM282 408l16 -18q67 37 97 72t30 93q0 48 -25 74t-68 26q-48 0 -81 -32t-33 -86q0 -58 64 -129z" />
    <glyph glyph-name="quotesingle" unicode="'" horiz-adv-x="255" 
d="M201 453h-85l50 256h85z" />
    <glyph glyph-name="parenleft" unicode="(" horiz-adv-x="366" 
d="M265 -127l-24 -32q-83 41 -132 129.5t-49 209.5q0 117 35.5 227t117.5 211t202 157l18 -34q-75 -44 -132.5 -114t-90 -150.5t-48.5 -159.5t-16 -155q0 -102 31.5 -178.5t87.5 -110.5z" />
    <glyph glyph-name="parenright" unicode=")" horiz-adv-x="366" 
d="M133 743l24 32q83 -41 132 -129.5t49 -209.5q0 -117 -35.5 -227t-117.5 -211t-202 -157l-18 34q75 44 132.5 114t90 150.5t48.5 159.5t16 155q0 102 -31.5 178.5t-87.5 110.5z" />
    <glyph glyph-name="asterisk" unicode="*" horiz-adv-x="458" 
d="M422 467l-140 -2l8 -144l-46 -10l-42 139l-131 -54l-21 40l115 85l-86 112l30 31l112 -87l77 121l38 -18l-45 -136l137 -33z" />
    <glyph glyph-name="plus" unicode="+" horiz-adv-x="580" 
d="M308 507h59l-41 -209h204l-10 -53h-204l-41 -211h-59l41 211h-202l10 53h202z" />
    <glyph glyph-name="comma" unicode="," horiz-adv-x="264" 
d="M199 42q0 -62 -49.5 -110.5t-117.5 -67.5l-17 29q45 17 72.5 40t27.5 45q0 6 -1 10t-5 7.5t-6 4.5t-9.5 4.5t-8.5 4.5q-33 15 -33 55q0 31 18.5 49t49.5 18q35 0 57 -25t22 -64z" />
    <glyph glyph-name="hyphen" unicode="-" horiz-adv-x="313" 
d="M251 235h-203l13 71h203z" />
    <glyph glyph-name="period" unicode="." horiz-adv-x="252" 
d="M187 59q0 -31 -20 -52t-51 -21t-51 21t-20 52t20 52t51 21t51 -21t20 -52z" />
    <glyph glyph-name="slash" unicode="/" horiz-adv-x="395" 
d="M455 761l-437 -910h-68l436 910h69z" />
    <glyph glyph-name="zero" unicode="0" horiz-adv-x="566" 
d="M521 316q0 -134 -75 -232t-198 -98q-98 0 -150.5 54t-52.5 149q0 86 30.5 161t94 125t146.5 50q98 0 151.5 -56t53.5 -153zM422 342q0 132 -110 132q-69 0 -112 -63q-62 -89 -62 -242q0 -133 112 -133q57 0 99 45q73 81 73 261z" />
    <glyph glyph-name="one" unicode="1" horiz-adv-x="397" 
d="M322 513l-87 -405q-4 -17 -4 -32q0 -24 18.5 -32t71.5 -10l-7 -34h-294l7 34q70 5 89.5 17.5t29.5 62.5l65 307q-56 -27 -127 -48l-6 33l186 107h58z" />
    <glyph glyph-name="two" unicode="2" horiz-adv-x="456" 
d="M262 525q79 0 121 -35.5t42 -96.5q0 -78 -62.5 -143t-200.5 -148l-48 -29h280l-27 -73h-382l9 46l132 89q102 68 148.5 122.5t46.5 124.5q0 78 -91 78q-73 0 -140 -69l-29 34q34 45 86.5 72.5t114.5 27.5z" />
    <glyph glyph-name="three" unicode="3" horiz-adv-x="457" 
d="M221 461q-76 0 -153 -63l-29 33q42 44 96 69t109 25q79 0 126 -37.5t47 -109.5q0 -56 -43 -106.5t-112 -73.5q118 -25 118 -133q0 -102 -100 -165.5t-225 -63.5q-66 0 -119 15l-11 43q64 -10 97 -10q110 0 184 49.5t74 144.5q0 52 -33 73.5t-100 21.5q-11 0 -45 -2l9 52
q24 -3 56 -3q68 0 110 42.5t42 109.5q0 89 -98 89z" />
    <glyph glyph-name="four" unicode="4" horiz-adv-x="526" 
d="M246 -179l42 197h-303l9 42l318 453h98l-342 -446h231q32 146 99 276l55 10l-61 -286h84l-11 -49h-84l-38 -178z" />
    <glyph glyph-name="five" unicode="5" horiz-adv-x="436" 
d="M370 90q0 -123 -91 -188.5t-222 -65.5q-69 0 -125 21l-9 44q56 -17 118 -17q102 0 166 47.5t64 143.5q0 112 -105 112q-65 0 -132 -24l93 342h319l-30 -75h-250l-50 -200q49 13 99 13q72 0 113.5 -40.5t41.5 -112.5z" />
    <glyph glyph-name="six" unicode="6" horiz-adv-x="550" 
d="M508 700l7 -41q-265 -104 -358 -318q30 28 79.5 46.5t101.5 18.5q67 0 109 -45t42 -119q0 -110 -74.5 -183t-176.5 -73q-93 0 -143 56t-50 161q0 95 37.5 177t103.5 142.5t146 104t176 73.5zM390 232q0 113 -91 113q-34 0 -78 -13.5t-78 -38.5q-14 -47 -14 -101
q0 -68 27 -113t88 -45q63 0 104.5 55t41.5 143z" />
    <glyph glyph-name="seven" unicode="7" horiz-adv-x="461" 
d="M481 505l-27 -64q-178 -187 -343 -592l-111 -26q70 158 175.5 325t210.5 282h-332l28 75h399z" />
    <glyph glyph-name="eight" unicode="8" horiz-adv-x="548" 
d="M534 521q0 -64 -46.5 -111.5t-130.5 -66.5q70 -38 99.5 -76t29.5 -85q0 -81 -65 -138.5t-175 -57.5q-106 0 -165.5 49t-59.5 126q0 130 191 184q-43 21 -68 61.5t-25 84.5q0 77 61 129t157 52q92 0 144.5 -44t52.5 -107zM393 170q0 42 -29.5 73.5t-113.5 74.5
q-60 -21 -97.5 -62.5t-37.5 -98.5q0 -59 33 -92.5t99 -33.5q70 0 108 40t38 99zM446 526q0 44 -28.5 70.5t-84.5 26.5q-54 0 -88 -32.5t-34 -86.5q0 -39 23.5 -70.5t82.5 -61.5q129 41 129 154z" />
    <glyph glyph-name="nine" unicode="9" horiz-adv-x="546" 
d="M501 306q0 -108 -40.5 -195.5t-112.5 -146.5t-160 -97t-193 -58l-25 40q143 34 256 115t149 169q-70 -48 -152 -48q-80 0 -129.5 48.5t-49.5 127.5q0 110 74.5 187t180.5 77q93 0 147.5 -57.5t54.5 -161.5zM391 192q21 52 21 119q0 69 -27.5 116t-87.5 47q-69 0 -114 -58
t-45 -148q0 -59 27.5 -92t79.5 -33q86 0 146 49z" />
    <glyph glyph-name="colon" unicode=":" horiz-adv-x="339" 
d="M207 59q0 -31 -20 -52t-51 -21t-51 21t-20 52t20 52t51 21t51 -21t20 -52zM274 373q0 -31 -20 -52t-51 -21t-51 21t-20 52t20 52t51 21t51 -21t20 -52z" />
    <glyph glyph-name="semicolon" unicode=";" horiz-adv-x="328" 
d="M263 373q0 -31 -20 -52t-51 -21t-51 21t-20 52t20 52t51 21t51 -21t20 -52zM209 42q0 -62 -49.5 -110.5t-117.5 -67.5l-17 29q45 17 72.5 40t27.5 45q0 6 -1 10t-5 7.5t-6 4.5t-9.5 4.5t-8.5 4.5q-33 15 -33 55q0 31 18.5 49t49.5 18q35 0 57 -25t22 -64z" />
    <glyph glyph-name="less" unicode="&#x3c;" horiz-adv-x="531" 
d="M394 56l-329 198l14 72l412 232l-13 -72l-354 -196l282 -173z" />
    <glyph glyph-name="equal" unicode="=" horiz-adv-x="609" 
d="M55 173l10 53h465l-10 -53h-465zM83 321l11 53h465l-11 -53h-465z" />
    <glyph glyph-name="greater" unicode="&#x3e;" horiz-adv-x="524" 
d="M450 254l-405 -198l12 67l350 173l-278 196l13 66l322 -232z" />
    <glyph glyph-name="question" unicode="?" horiz-adv-x="443" 
d="M234 60q0 -30 -21 -51.5t-50 -21.5q-28 0 -48 21.5t-20 51.5q0 28 19.5 48t48.5 20t50 -20t21 -48zM269 654q-48 0 -74 -23t-39 -68h-66l20 90q75 47 163 47q76 0 123 -31t47 -99q0 -64 -37 -108t-118 -90q-61 -35 -77.5 -67t-16.5 -90h-38q-15 30 -15 67q0 77 90 139
q66 45 89 73.5t23 80.5q0 79 -74 79z" />
    <glyph glyph-name="at" unicode="@" horiz-adv-x="906" 
d="M614 -1q-61 0 -90 24t-29 77v3q-48 -104 -145 -104q-54 0 -84.5 36t-30.5 102q0 141 83 228t195 87q83 0 139 -50q-4 -10 -9.5 -32l-10.5 -42.5t-5 -21.5l-43 -175q-7 -29 -7 -49q0 -25 11.5 -34.5t37.5 -9.5q58 0 106 60t48 167q0 158 -84.5 237t-223.5 79
q-154 0 -250 -105t-96 -283q0 -145 82 -236.5t222 -91.5q89 0 161 24l15 -30q-88 -35 -188 -35q-167 0 -270 98.5t-103 271.5q0 190 120.5 310.5t308.5 120.5q176 0 281.5 -95t105.5 -254q0 -138 -72 -207.5t-175 -69.5zM511 189l43 187q-15 30 -54 30q-81 0 -127.5 -76.5
t-46.5 -185.5q0 -83 54 -83q36 0 65 32.5t66 95.5z" />
    <glyph glyph-name="A" unicode="A" horiz-adv-x="643" 
d="M428 107l-9 108h-226l-55 -108q-15 -28 -15 -44q0 -15 15 -21t47 -7l-7 -35h-215l7 35q40 6 61.5 21.5t47.5 64.5l293 568h94l57 -566q5 -46 20 -65t52 -23l-7 -35h-239l7 35q41 1 57 13.5t16 41.5q0 6 -1 17zM335 490l-117 -227h197l-20 212q-5 56 -5 97v16v10l1 4h-6
q-10 -33 -50 -112z" />
    <glyph glyph-name="B" unicode="B" horiz-adv-x="606" 
d="M121 689h268q197 0 197 -151q0 -75 -42 -120.5t-119 -54.5v-4q59 -8 96.5 -46.5t37.5 -91.5q0 -107 -73 -169q-38 -32 -88 -42t-147 -10h-263l6 35q50 1 68.5 16.5t26.5 59.5l91 467q4 26 4 32q0 24 -15 33t-54 11zM240 383h88q73 0 112 34q48 42 48 125q0 55 -28 76.5
t-96 21.5h-74zM320 335h-89l-56 -286h102q88 0 125 30q51 44 51 141q0 58 -29.5 86.5t-103.5 28.5z" />
    <glyph glyph-name="C" unicode="C" horiz-adv-x="578" 
d="M300 33q59 0 94.5 25.5t58.5 84.5h66l-21 -105q-33 -21 -88.5 -36.5t-113.5 -15.5q-233 0 -233 254q0 88 23.5 169t68 146.5t115.5 105t158 39.5q104 0 167 -51l-22 -109h-68q-3 64 -19.5 88.5t-69.5 24.5q-67 0 -118 -41.5t-78 -107.5t-40 -135t-13 -137
q0 -108 33 -153.5t100 -45.5z" />
    <glyph glyph-name="D" unicode="D" horiz-adv-x="658" 
d="M-12 0l6 35q50 1 68.5 16.5t26.5 59.5l91 467q4 18 4 32q0 24 -15 33t-54 11l6 35h236q278 0 278 -249q0 -104 -33.5 -207.5t-90.5 -158.5q-45 -43 -101 -58.5t-154 -15.5h-268zM362 642h-71l-115 -591h84q70 0 114 15t79 61q38 49 59.5 141.5t21.5 179.5q0 98 -36 146
t-136 48z" />
    <glyph glyph-name="E" unicode="E" horiz-adv-x="568" 
d="M-12 0l6 35q50 1 68.5 16.5t26.5 59.5l91 467q4 22 4 32q0 24 -15 33t-54 11l6 35h469l-19 -150h-42q-5 60 -19.5 80.5t-56.5 20.5h-163l-50 -256h89q47 0 68 14.5t32 56.5h41l-37 -190h-41q5 41 -10 56t-61 15h-90l-56 -287h164q57 0 82 23t45 93h45l-32 -165h-491z" />
    <glyph glyph-name="F" unicode="F" horiz-adv-x="543" 
d="M227 320l-40 -206q-4 -24 -4 -32q0 -25 17 -35t59 -12l-6 -35h-265l6 35q50 1 68.5 16.5t26.5 59.5l91 467q4 20 4 32q0 24 -15 33t-54 11l6 35h464l-18 -155h-42q-9 67 -23.5 86.5t-60.5 19.5h-152l-53 -272h83q47 0 68 14.5t32 56.5h41l-38 -193h-41q5 42 -9.5 58
t-60.5 16h-84z" />
    <glyph glyph-name="G" unicode="G" horiz-adv-x="648" 
d="M316 33q71 0 116 30l31 163q4 24 4 32q0 24 -17 33t-62 11l7 35h250l-7 -35q-39 -1 -55.5 -17t-24.5 -59l-37 -189q-93 -51 -206 -51q-252 0 -252 258q0 83 23 162t66.5 145.5t115 107t160.5 40.5q121 0 183 -50l-22 -109h-68q-3 61 -24.5 86.5t-80.5 25.5
q-67 0 -118 -41t-78 -106.5t-40 -134t-13 -137.5q0 -109 37 -154.5t112 -45.5z" />
    <glyph glyph-name="H" unicode="H" horiz-adv-x="699" 
d="M650 578l-91 -467q-4 -20 -4 -32q0 -24 15 -33t54 -11l-6 -35h-258l6 35q50 1 68.5 16.5t26.5 59.5l44 229h-274l-44 -229q-4 -22 -4 -32q0 -24 15 -33t54 -11l-6 -35h-258l6 35q50 1 68.5 16.5t26.5 59.5l91 467q4 22 4 32q0 24 -15 33t-54 11l6 35h258l-6 -35
q-50 -1 -68.5 -16.5t-26.5 -59.5l-37 -188h274l37 188q4 22 4 32q0 24 -15 33t-54 11l6 35h258l-6 -35q-50 -1 -68.5 -16.5t-26.5 -59.5z" />
    <glyph glyph-name="I" unicode="I" horiz-adv-x="327" 
d="M278 578l-91 -467q-4 -22 -4 -32q0 -24 15 -33t54 -11l-6 -35h-258l6 35q50 1 68.5 16.5t26.5 59.5l91 467q4 22 4 32q0 24 -15 33t-54 11l6 35h258l-6 -35q-50 -1 -68.5 -16.5t-26.5 -59.5z" />
    <glyph glyph-name="J" unicode="J" horiz-adv-x="336" 
d="M282 578l-92 -470q-23 -118 -75 -172.5t-165 -82.5l-17 37q79 32 109.5 76t48.5 134l93 478q4 26 4 32q0 24 -15 33t-54 11l6 35h258l-6 -35q-50 -1 -68.5 -16.5t-26.5 -59.5z" />
    <glyph glyph-name="K" unicode="K" horiz-adv-x="622" 
d="M510 547l-166 -162l149 -301q13 -26 32 -36t59 -13l-6 -35h-154l-171 364l212 212q34 34 34 53q0 23 -48 25l6 35h212l-6 -35q-35 -5 -62 -24.5t-91 -82.5zM278 578l-91 -467q-4 -22 -4 -32q0 -24 15 -33t54 -11l-6 -35h-258l6 35q50 1 68.5 16.5t26.5 59.5l91 467
q4 22 4 32q0 24 -15 33t-54 11l6 35h258l-6 -35q-50 -1 -68.5 -16.5t-26.5 -59.5z" />
    <glyph glyph-name="L" unicode="L" horiz-adv-x="532" 
d="M175 49h141q54 0 82.5 25.5t56.5 94.5h44l-47 -169h-464l6 35q50 1 68.5 16.5t26.5 59.5l91 467q4 22 4 32q0 24 -15 33t-54 11l6 35h263l-6 -35q-52 -1 -72 -18t-29 -61z" />
    <glyph glyph-name="M" unicode="M" horiz-adv-x="831" 
d="M868 689l-6 -35q-52 -3 -71 -19t-24 -57l-60 -464q-2 -13 -2 -31q0 -26 12 -36.5t45 -11.5l-6 -35h-241l6 35q48 1 65 15.5t23 56.5l52 366q7 48 22 118h-6q-25 -69 -46 -109l-253 -482h-58l-50 460q-8 74 -8 132h-6q-20 -115 -25 -132l-91 -352q-7 -28 -7 -38
q0 -19 14.5 -26.5t51.5 -8.5l-6 -35h-210l6 35q42 1 59 17t29 62l122 464q6 21 6 34q0 21 -16 30.5t-55 11.5l6 35h195l47 -438q6 -62 6 -120v-14h6q15 60 49 127l227 445h198z" />
    <glyph glyph-name="N" unicode="N" horiz-adv-x="669" 
d="M526 0h-65l-171 408q-46 111 -51 170h-6q-6 -92 -24 -184l-55 -283q-4 -17 -4 -32q0 -24 15 -33t54 -11l-6 -35h-225l6 35q50 1 68.5 16.5t26.5 59.5l91 467q4 22 4 32q0 24 -15 33t-54 11l6 35h156l174 -418q36 -87 40 -144h6q5 84 28 206l48 245q4 22 4 32q0 24 -15 33
t-54 11l6 35h217l-6 -35q-45 -1 -62 -16.5t-25 -59.5z" />
    <glyph glyph-name="O" unicode="O" horiz-adv-x="673" 
d="M650 438q0 -59 -11.5 -119.5t-38 -121t-65 -107t-97.5 -75.5t-130 -29q-116 0 -180.5 70t-64.5 196q0 58 12 118t39 120t66 106t98.5 75t131.5 29q111 0 175.5 -67.5t64.5 -194.5zM546 467q0 92 -32.5 138.5t-104.5 46.5q-101 0 -157 -90q-42 -65 -63.5 -161t-21.5 -182
q0 -99 33.5 -142.5t106.5 -43.5q95 0 152 91q42 67 64.5 165.5t22.5 177.5z" />
    <glyph glyph-name="P" unicode="P" horiz-adv-x="569" 
d="M187 114q-4 -20 -4 -32q0 -25 17 -35t59 -12l-6 -35h-265l6 35q50 1 68.5 16.5t26.5 59.5l91 467q4 22 4 32q0 24 -15 33t-54 11l6 35h230q125 0 180 -40t55 -129q0 -71 -33.5 -123.5t-87.5 -80.5q-57 -29 -165 -29h-80zM485 522q0 61 -27 89.5t-97 28.5h-72l-59 -305h76
q74 0 109 26q70 51 70 161z" />
    <glyph glyph-name="Q" unicode="Q" horiz-adv-x="673" 
d="M650 438q0 -69 -18 -141t-52.5 -138t-94 -112t-134.5 -55q6 -1 56 -13.5t84 -18.5t62 -6q45 0 72 10l-27 -76q-22 -10 -74 -10q-43 0 -89.5 20.5t-104.5 51.5t-107 46q-160 50 -160 256q0 58 12 118t39 120t66.5 106t99 75t131.5 29q111 0 175 -67.5t64 -194.5zM546 467
q0 93 -32 139t-104 46q-102 0 -158 -90q-42 -65 -63.5 -161t-21.5 -182q0 -100 32 -143t105 -43q98 0 155 91q42 67 64.5 165.5t22.5 177.5z" />
    <glyph glyph-name="R" unicode="R" horiz-adv-x="612" 
d="M290 640l-54 -278h76q166 0 166 164q0 63 -31 88.5t-98 25.5h-59zM228 319l-41 -208q-4 -22 -4 -32q0 -24 15 -33t54 -11l-6 -35h-258l6 35q50 1 68.5 16.5t26.5 59.5l91 467q4 20 4 32q0 24 -15 33t-54 11l6 35h252q206 0 206 -152q0 -105 -65 -157.5t-175 -52.5v-4
q64 -17 93 -65q8 -15 18.5 -40t24.5 -63.5l23 -61.5q12 -31 26 -44t49 -14l-6 -35h-142q-54 171 -83 239q-20 47 -43.5 62.5t-70.5 17.5z" />
    <glyph glyph-name="S" unicode="S" horiz-adv-x="503" 
d="M215 33q70 0 109.5 37t39.5 100q0 87 -93 134l-59 31q-54 28 -82 67t-28 99q0 89 63 144t159 55q122 0 181 -57l-19 -108h-61q0 118 -111 118q-60 0 -94 -33.5t-34 -88.5q0 -45 21 -71t66 -50l59 -31q57 -30 89 -70t32 -105q0 -99 -63.5 -158.5t-183.5 -59.5
q-133 0 -202 60l23 125h64q0 -74 26.5 -106t97.5 -32z" />
    <glyph glyph-name="T" unicode="T" horiz-adv-x="569" 
d="M118 689h508l-32 -157h-46q2 30 2 39q0 39 -12.5 54t-47.5 15h-73l-103 -529q-4 -21 -4 -31q0 -24 16.5 -33.5t58.5 -11.5l-7 -35h-268l7 35q52 1 71.5 16.5t27.5 59.5l103 529h-75q-48 0 -68.5 -22t-39.5 -86h-48z" />
    <glyph glyph-name="U" unicode="U" horiz-adv-x="670" 
d="M317 46q150 0 184 175l69 357q4 24 4 32q0 23 -16 33t-58 11l6 35h226l-6 -35q-45 -1 -62 -16.5t-25 -59.5l-69 -357q-24 -122 -87.5 -178.5t-168.5 -56.5q-112 0 -166 43.5t-54 122.5q0 39 9 87l65 339q3 16 3 29q0 26 -15 35.5t-53 11.5l6 35h258l-6 -35
q-51 -1 -68.5 -16.5t-26.5 -59.5l-67 -342q-9 -45 -9 -81q0 -57 30.5 -83t96.5 -26z" />
    <glyph glyph-name="V" unicode="V" horiz-adv-x="636" 
d="M251 582l24 -303q4 -45 9 -201h6q36 92 92 201l156 303q15 28 15 44q0 15 -15 21t-47 7l7 35h215l-7 -35q-41 -6 -61 -23t-47 -69l-296 -562h-92l-57 565q-5 48 -17 66.5t-48 22.5l7 35h242l-7 -35q-47 -2 -64.5 -17.5t-14.5 -54.5z" />
    <glyph glyph-name="W" unicode="W" horiz-adv-x="877" 
d="M575 689l22 -392q5 -85 5 -175h6l66 175l107 263q15 36 15 55t-15 28t-49 11l6 35h216l-6 -35q-36 -5 -57 -26.5t-42 -70.5l-236 -557h-89l-24 438q-2 40 -2 63q0 17 0.5 38t0.5 22h-6q-18 -64 -44 -123l-188 -438h-92l-18 566q-2 49 -14 66.5t-49 21.5l6 35h237l-6 -35
q-46 -4 -63.5 -17t-17.5 -49v-6l9 -284v-35q0 -73 -4 -141h6q29 84 69 176l167 391h84z" />
    <glyph glyph-name="X" unicode="X" horiz-adv-x="605" 
d="M525 574l-154 -203l99 -254q17 -45 35.5 -61.5t48.5 -20.5l-6 -35h-240l6 35q45 1 57 20t-3 57l-71 190h-4l-140 -192q-23 -32 -23 -49q0 -23 53 -26l-6 -35h-209l6 35q31 4 56 22.5t65 70.5l178 231l-88 221q-16 42 -32.5 56t-46.5 18l6 35h238l-6 -35q-65 -3 -65 -38
q0 -16 9 -38l58 -152h4l109 151q24 33 24 51q0 23 -47 26l6 35h200l-6 -35q-31 -4 -55 -20.5t-56 -59.5z" />
    <glyph glyph-name="Y" unicode="Y" horiz-adv-x="589" 
d="M222 111l30 165l-86 296q-14 45 -30.5 61.5t-47.5 20.5l6 35h229l-6 -35q-61 -1 -61 -39q0 -12 7 -38l64 -236h4l155 238q21 33 21 49q0 23 -53 26l6 35h206l-6 -35q-32 -4 -55 -22t-60 -71l-192 -279l-33 -171q-8 -43 5.5 -59t65.5 -17l-7 -35h-268l7 35q52 1 71.5 17
t27.5 59z" />
    <glyph glyph-name="Z" unicode="Z" horiz-adv-x="553" 
d="M585 633l-475 -584h200q57 0 89 27t61 96h44l-48 -172h-463l10 56l474 584h-182q-49 0 -80.5 -26.5t-58.5 -86.5h-44l45 162h438z" />
    <glyph glyph-name="bracketleft" unicode="[" horiz-adv-x="351" 
d="M220 -155h-185l181 928h185l-8 -42h-106l-164 -844h106z" />
    <glyph glyph-name="backslash" unicode="\" horiz-adv-x="438" 
d="M195 761l173 -910h-65l-173 910h65z" />
    <glyph glyph-name="bracketright" unicode="]" horiz-adv-x="351" 
d="M156 773h185l-181 -928h-184l9 42h105l164 844h-106z" />
    <glyph glyph-name="asciicircum" unicode="^" horiz-adv-x="594" 
d="M534 310h-71l-101 326l-224 -326h-78l281 398h68z" />
    <glyph glyph-name="underscore" unicode="_" horiz-adv-x="496" 
d="M498 -125h-500v50h500v-50z" />
    <glyph glyph-name="grave" unicode="`" horiz-adv-x="545" 
d="M361 600l-20 -34l-212 96l53 91z" />
    <glyph glyph-name="a" unicode="a" horiz-adv-x="547" 
d="M344 505q78 0 91 -52q11 18 37 42h50q-27 -46 -48 -140l-53 -233q-5 -23 -5 -35q0 -39 45 -39q14 0 32 3l3 -31q-55 -29 -98 -29q-72 0 -72 79q0 27 7 56q-88 -138 -183 -138q-55 0 -85 36t-30 99q0 149 95 265.5t214 116.5zM338 458q-55 0 -103 -47t-76 -122.5
t-28 -159.5q0 -76 52 -76q38 0 84.5 49.5t82.5 111.5l49 207q-12 37 -61 37z" />
    <glyph glyph-name="b" unicode="b" horiz-adv-x="550" 
d="M228 -14q-41 0 -70.5 17.5t-40.5 40.5q-20 -32 -34 -44h-53q25 50 44 140l96 447q5 23 5 35q0 28 -16.5 39t-53.5 13l7 30l143 26h13q6 -18 6 -49q0 -51 -16 -120l-45 -196q88 138 194 138q51 0 79.5 -37.5t28.5 -110.5q0 -96 -35 -180t-101.5 -136.5t-150.5 -52.5z
M232 35q83 0 135 94t52 224q0 85 -48 85q-40 0 -90.5 -51.5t-86.5 -113.5l-42 -196q6 -16 29 -29t51 -13z" />
    <glyph glyph-name="c" unicode="c" horiz-adv-x="455" 
d="M317 504q90 0 138 -40l-20 -92h-68v13q0 38 -14 55t-45 17q-76 0 -127 -88.5t-51 -200.5q0 -61 27.5 -93t76.5 -32q70 0 136 61l26 -35q-31 -35 -79 -59t-102 -24q-84 0 -132 49.5t-48 140.5q0 78 35 153t101.5 125t145.5 50z" />
    <glyph glyph-name="d" unicode="d" horiz-adv-x="553" 
d="M361 214l46 215q-19 28 -58 28q-90 0 -154 -94t-64 -228q0 -82 55 -82q45 0 91.5 48t83.5 113zM344 126q-35 -58 -83.5 -98t-104.5 -40t-88.5 37t-32.5 103q0 104 47.5 192t123 136.5t157.5 48.5q33 0 59 -14l19 96q4 19 4 36q0 28 -16 38.5t-53 12.5l7 30l141 26h13
q5 -15 5 -46q0 -50 -15 -123l-94 -439q-5 -23 -5 -36q0 -20 10.5 -29t34.5 -9q14 0 32 3l3 -31q-64 -29 -102 -29q-68 0 -68 82q0 25 6 53z" />
    <glyph glyph-name="e" unicode="e" horiz-adv-x="477" 
d="M130 171q0 -61 27 -94.5t75 -33.5q75 0 149 69l26 -35q-80 -91 -204 -91q-82 0 -125 50t-43 143q0 78 35.5 152t101.5 123.5t144 49.5q67 0 106.5 -32.5t39.5 -91.5q0 -74 -79.5 -118t-228.5 -44h-22q-2 -15 -2 -47zM370 386q0 30 -16.5 50t-43.5 20q-59 0 -105 -55
t-65 -137h29q201 0 201 122z" />
    <glyph glyph-name="f" unicode="f" horiz-adv-x="303" 
d="M212 436l-93 -463q-33 -161 -153 -161q-29 0 -61 16v31q63 4 89 25.5t37 80.5l92 471h-63l6 32l66 22l16 80q15 78 66 119t124 41q55 0 95 -18l-17 -83h-61q0 58 -34 58q-29 0 -48.5 -19.5t-29.5 -68.5l-21 -108h121l-25 -55h-106z" />
    <glyph glyph-name="g" unicode="g" horiz-adv-x="496" 
d="M526 440q-35 -14 -65 -14q-35 0 -70 19q44 -37 44 -102q0 -58 -54.5 -108t-160.5 -50q-3 0 -9 0.5t-10 0.5q-31 -6 -54 -23t-23 -35q0 -25 33 -26l82 -2q88 -2 130 -32t42 -91q0 -83 -69 -129t-176 -46q-103 0 -152 28t-49 75q0 52 66 82l40 2q-22 -32 -22 -74
q0 -69 119 -69q159 0 159 106q0 61 -99 65q-65 3 -103 7q-41 3 -63 17.5t-22 50.5q0 70 115 107q-45 11 -69.5 47.5t-24.5 81.5q0 77 59 126.5t139 49.5q38 0 92.5 -11.5t72.5 -11.5q37 0 80 27zM235 231q53 0 81 42.5t28 103.5q0 81 -85 81q-44 0 -76 -38t-32 -106
q0 -83 84 -83z" />
    <glyph glyph-name="h" unicode="h" horiz-adv-x="531" 
d="M330 122l50 240q5 23 5 36q0 36 -33 36q-42 0 -89 -49.5t-84 -111.5l-58 -273h-91l126 587q4 19 4 35q0 28 -16 39t-53 13l7 30l143 26h13q6 -18 6 -47q0 -51 -16 -122l-43 -193q90 137 191 137q44 0 65.5 -25t21.5 -67q0 -17 -5 -42l-53 -249q-6 -29 -6 -40
q0 -18 9.5 -26t31.5 -8q14 0 37 3l3 -31q-64 -29 -104 -29q-69 0 -69 74q0 20 7 57z" />
    <glyph glyph-name="i" unicode="i" horiz-adv-x="268" 
d="M205 367l-56 -245q-6 -24 -6 -40q0 -18 9.5 -26t32.5 -8q15 0 37 3l3 -31q-64 -29 -112 -29q-66 0 -66 74q0 23 8 57l56 232q6 22 6 38q0 26 -18.5 37.5t-59.5 11.5l7 31q48 24 100 24q67 0 67 -71q0 -23 -8 -58zM258 644q0 -26 -18 -44.5t-44 -18.5t-44 18.5t-18 44.5
t18 44.5t44 18.5t44 -18.5t18 -44.5z" />
    <glyph glyph-name="j" unicode="j" horiz-adv-x="265" 
d="M218 367l-75 -371q-17 -86 -65 -130t-138 -72l-16 41q63 27 89 62.5t42 114.5l68 342q6 27 6 38q0 26 -18.5 37.5t-59.5 11.5l7 31q48 24 100 24q67 0 67 -73q0 -18 -7 -56zM270 644q0 -26 -18 -44.5t-44 -18.5t-44 18.5t-18 44.5t18 44.5t44 18.5t44 -18.5t18 -44.5z
" />
    <glyph glyph-name="k" unicode="k" horiz-adv-x="487" 
d="M244 561l-123 -561h-91l126 587q4 19 4 35q0 28 -16 39t-53 13l7 30l143 26h13q6 -18 6 -47q0 -51 -16 -122zM267 87l-76 182l215 222h101l-9 -43q-36 0 -71 -22t-85 -71l-66 -63l82 -189q13 -29 25.5 -40t40.5 -11q14 0 35 3l3 -31q-52 -30 -94 -30q-35 0 -57 20.5
t-44 72.5z" />
    <glyph glyph-name="l" unicode="l" horiz-adv-x="266" 
d="M240 561l-94 -439q-6 -30 -6 -41q0 -18 9.5 -25.5t33.5 -7.5q16 0 40 3l3 -31q-62 -29 -110 -29q-70 0 -70 76q0 23 6 55l100 465q4 19 4 36q0 27 -16 38t-53 13l7 30l143 26h13q6 -18 6 -47q0 -51 -16 -122z" />
    <glyph glyph-name="m" unicode="m" horiz-adv-x="793" 
d="M470 365q95 140 184 140q44 0 65.5 -25t21.5 -67q0 -17 -5 -42l-53 -249q-6 -28 -6 -40q0 -18 9.5 -26t32.5 -8q15 0 36 3l3 -31q-64 -29 -103 -29q-69 0 -69 77q0 24 6 54l50 240q5 23 5 36q0 36 -33 36q-66 0 -161 -156l-59 -278h-91l76 359q5 25 5 39q0 36 -32 36
q-68 0 -163 -161l-58 -273h-91l75 354q5 25 5 39q0 26 -16.5 37t-57.5 11l7 31q48 24 98 24q59 0 59 -80q0 -31 -7 -59q95 148 188 148q82 0 82 -97q0 -20 -3 -43z" />
    <glyph glyph-name="n" unicode="n" horiz-adv-x="541" 
d="M340 122l50 240q5 23 5 36q0 36 -33 36q-42 0 -89 -49.5t-84 -111.5l-58 -273h-91l75 354q5 25 5 39q0 26 -16.5 37t-57.5 11l7 31q48 24 98 24q59 0 59 -80q0 -28 -7 -59q95 148 199 148q44 0 65.5 -25t21.5 -67q0 -17 -5 -42l-53 -249q-6 -28 -6 -40q0 -18 9.5 -26
t32.5 -8q15 0 36 3l3 -31q-64 -29 -102 -29q-71 0 -71 74q0 20 7 57z" />
    <glyph glyph-name="o" unicode="o" horiz-adv-x="518" 
d="M483 310q0 -133 -74 -228.5t-189 -95.5q-85 0 -135 53t-50 139q0 137 78.5 231.5t184.5 94.5q88 0 136.5 -54.5t48.5 -139.5zM387 325q0 131 -93 131q-58 0 -102 -63q-61 -88 -61 -230q0 -129 93 -129q52 0 91 45q34 40 53 105.5t19 140.5z" />
    <glyph glyph-name="p" unicode="p" horiz-adv-x="547" 
d="M190 274l-45 -210q18 -31 63 -31q68 0 116.5 50t70 120.5t21.5 149.5q0 85 -48 85q-40 0 -91.5 -51.5t-86.5 -112.5zM131 -3l-19 -90q-4 -16 -4 -31q0 -21 14.5 -28.5t54.5 -9.5l-7 -34h-240l7 34q44 3 59.5 15.5t24.5 54.5l95 446q5 25 5 39q0 26 -16.5 37t-57.5 11
l7 31q48 24 98 24q59 0 59 -80q0 -28 -7 -59q93 146 200 146q51 0 79.5 -37.5t28.5 -110.5q0 -94 -36.5 -177.5t-109 -137.5t-165.5 -54q-39 0 -70 11z" />
    <glyph glyph-name="q" unicode="q" horiz-adv-x="522" 
d="M276 -93l52 219q-88 -138 -183 -138q-55 0 -85 36t-30 99q0 149 95 265.5t214 116.5q78 0 91 -52q11 18 37 42h50q-27 -46 -48 -140l-102 -447q-5 -23 -5 -33q0 -19 13 -27t46 -10l-8 -34h-239l8 34q51 2 68 15t26 54zM333 458q-55 0 -103 -47t-76 -122.5t-28 -159.5
q0 -76 52 -76q38 0 84.5 49.5t82.5 111.5l49 207q-12 37 -61 37z" />
    <glyph glyph-name="r" unicode="r" horiz-adv-x="360" 
d="M204 358q29 63 68.5 105t79.5 42q15 0 28 -5l-21 -102q-12 5 -30 5q-53 0 -93 -47t-59 -138l-46 -218h-91l75 354q5 25 5 39q0 26 -16.5 37t-57.5 11l7 31q48 24 98 24q57 0 57 -85q0 -26 -4 -53z" />
    <glyph glyph-name="s" unicode="s" horiz-adv-x="423" 
d="M167 -14q-99 0 -162 45l17 98h63v-12q0 -46 20 -65.5t70 -19.5q48 0 79.5 22t31.5 68q0 33 -17.5 50.5t-56.5 34.5l-51 22q-47 20 -72 50t-25 79q0 69 54.5 108t133.5 39q85 0 141 -38l-15 -90h-61q-2 41 -21 61.5t-64 20.5q-40 0 -63 -20.5t-23 -57.5q0 -25 12.5 -42
t45.5 -31l51 -22q59 -25 87 -56.5t28 -81.5q0 -71 -57 -116.5t-146 -45.5z" />
    <glyph glyph-name="t" unicode="t" horiz-adv-x="319" 
d="M343 491l-25 -55h-106l-64 -302q-6 -30 -6 -49q0 -26 13 -36.5t42 -10.5q24 0 60 13l8 -33q-64 -32 -113 -32q-102 0 -102 91q0 23 6 50l65 309h-59l6 32l71 23q38 99 75 142l52 8q-26 -70 -42 -150h119z" />
    <glyph glyph-name="u" unicode="u" horiz-adv-x="537" 
d="M329 126q-91 -140 -193 -140q-44 0 -65.5 25t-21.5 67q0 17 5 42l50 234q5 25 5 39q0 26 -16.5 37t-57.5 11l7 31q48 24 98 24q29 0 46 -21.5t17 -62.5q0 -19 -7 -56l-48 -227q-5 -23 -5 -36q0 -36 33 -36q42 0 89 49.5t84 111.5l58 273h90l-77 -369q-5 -22 -5 -33
q0 -40 49 -40q6 0 28 2l3 -31q-55 -29 -101 -29q-35 0 -53 22.5t-18 61.5q0 24 6 51z" />
    <glyph glyph-name="v" unicode="v" horiz-adv-x="457" 
d="M378 498l84 -15v-35l-268 -452h-71l-30 360q-4 53 -17 69t-61 16l7 31q48 24 95 24q34 0 45.5 -27t17.5 -104l11 -147q3 -47 3 -79q0 -41 -2 -53h6l62 111q50 88 77.5 153.5t33 91.5t7.5 56z" />
    <glyph glyph-name="w" unicode="w" horiz-adv-x="701" 
d="M481 100h5l39 90q93 212 99 308l82 -15v-35l-231 -453h-61l-26 235q-8 77 -8 139h-3l-169 -374h-72l-43 361q-4 35 -8 50q-5 20 -20.5 27.5t-49.5 7.5l7 31q48 24 95 24q33 0 45.5 -24.5t18.5 -90.5l15 -150q6 -61 6 -116v-15h6l170 391h61l29 -241q13 -104 13 -150z" />
    <glyph glyph-name="x" unicode="x" horiz-adv-x="475" 
d="M193 252l-43 129q-13 38 -31.5 49t-60.5 11l7 31q48 24 83 24q30 0 49.5 -19t33.5 -70l28 -102l118 186h108l-9 -43q-34 -3 -54.5 -15t-45.5 -45l-100 -133l48 -149q11 -32 25.5 -44.5t42.5 -12.5q14 0 30 2l3 -31q-62 -29 -105 -29q-29 0 -48 27.5t-35 85.5l-27 96
l-130 -200h-100l9 43q37 7 59 23.5t54 60.5z" />
    <glyph glyph-name="y" unicode="y" horiz-adv-x="463" 
d="M168 1l-30 -3q-4 109 -24 239l-18 119q-8 53 -21.5 69t-60.5 16l7 31q48 24 93 24q34 0 46 -25.5t23 -105.5l17 -118q11 -73 11 -132q0 -7 -0.5 -17.5t-0.5 -12.5h6l52 97q106 198 113 316l87 -15v-35l-258 -471q-51 -92 -96 -134.5t-112 -55.5l-17 60q63 14 104.5 47
t78.5 107z" />
    <glyph glyph-name="z" unicode="z" horiz-adv-x="435" 
d="M453 450l-370 -365q37 0 97 -4t78 -4q65 0 106 76l31 -8q-29 -97 -51 -126.5t-66 -29.5q-39 0 -105.5 21t-97.5 21q-41 0 -60 -31h-45l6 39l360 366q-32 1 -89.5 3.5t-72.5 2.5q-30 0 -48 -17t-35 -53l-36 5q18 83 42 118t68 35q33 0 102.5 -19.5t92.5 -19.5q33 0 54 31
h46z" />
    <glyph glyph-name="braceleft" unicode="{" horiz-adv-x="380" 
d="M45 292l7 34q54 0 84.5 21t39.5 70l46 237q11 61 49 90t89 29h80l-8 -40h-57q-63 0 -77 -74l-45 -230q-11 -59 -40 -86t-60 -32l-1 -4q23 -4 40.5 -23t17.5 -58q0 -18 -4 -37l-45 -230q-3 -12 -3 -24q0 -50 52 -50h57l-8 -40h-80q-96 0 -96 79q0 20 4 40l47 237
q3 15 3 27q0 34 -23 49t-69 15z" />
    <glyph glyph-name="bar" unicode="|" horiz-adv-x="265" 
d="M89 -149h-64l176 910h64z" />
    <glyph glyph-name="braceright" unicode="}" horiz-adv-x="389" 
d="M364 326l-7 -34q-54 0 -83.5 -21t-39.5 -70l-48 -241q-11 -58 -48.5 -86.5t-88.5 -28.5h-79l8 39h56q63 0 77 74l45 231q11 59 40 86t60 32l1 4q-23 4 -40.5 23t-17.5 58q0 18 4 37l45 230q3 12 3 24q0 50 -52 50h-57l8 40h80q49 0 72.5 -19t23.5 -61q0 -19 -4 -39
l-46 -237q-3 -15 -3 -27q0 -64 91 -64z" />
    <glyph glyph-name="asciitilde" unicode="~" horiz-adv-x="554" 
d="M379 320q60 0 97 63l38 -21q-24 -59 -61.5 -92t-80.5 -33q-41 0 -101.5 24.5t-89.5 24.5q-47 0 -87 -67l-34 19q20 63 54.5 96.5t78.5 33.5q40 0 97 -24t89 -24z" />
    <glyph glyph-name="uni00A0" unicode="&#xa0;" horiz-adv-x="225" 
 />
    <glyph glyph-name="exclamdown" unicode="&#xa1;" horiz-adv-x="325" 
d="M21 -205l150 492h53l-82 -477zM160 437q0 28 20 48t47 20t45.5 -19.5t18.5 -48.5q0 -27 -18.5 -46t-46.5 -19q-27 0 -46.5 19t-19.5 46z" />
    <glyph glyph-name="cent" unicode="&#xa2;" horiz-adv-x="455" 
d="M166 -100l18 88q-71 9 -110 57.5t-39 130.5q0 114 72.5 213t180.5 113l20 96h45l-20 -95q78 -4 122 -39l-20 -92h-68v10q0 66 -43 74l-84 -413q67 3 130 61l26 -35q-67 -76 -168 -82l-17 -87h-45zM130 168q0 -98 66 -120l82 405q-65 -17 -106.5 -101.5t-41.5 -183.5z" />
    <glyph glyph-name="sterling" unicode="&#xa3;" horiz-adv-x="558" 
d="M47 301l11 44h74l17 87q24 124 93 182t169 58q99 0 147 -46l-22 -101h-65q0 53 -14.5 77t-61.5 24q-56 0 -90 -36.5t-53 -130.5l-23 -114h195l-11 -44h-192l-49 -252h161q54 0 82.5 25.5t57.5 94.5h44l-48 -169h-484l7 35q49 1 67.5 16.5t26.5 59.5l37 190h-76z" />
    <glyph glyph-name="currency" unicode="&#xa4;" horiz-adv-x="491" 
d="M218 99q-39 0 -68 10l-65 -78l-50 38l62 74q-33 36 -33 94q0 114 85 177l-33 73l63 37l33 -76q35 13 76 13q36 0 66 -11l63 75l49 -38l-59 -71q35 -37 35 -95q0 -118 -92 -182l33 -71l-62 -37l-35 78q-31 -10 -68 -10zM279 416q-60 0 -92 -53t-32 -140q0 -40 17 -59
t55 -19q35 0 61 19.5t39.5 50.5t19.5 62.5t6 62.5q0 76 -74 76z" />
    <glyph glyph-name="yen" unicode="&#xa5;" horiz-adv-x="583" 
d="M84 336l10 44h125l-56 192q-14 45 -30.5 61.5t-47.5 20.5l6 35h229l-6 -35q-61 -1 -61 -39q0 -12 7 -38l64 -236h4l155 238q21 33 21 49q0 23 -53 26l6 35h206l-6 -35q-32 -4 -55 -22t-60 -71l-125 -181h141l-10 -44h-161l-37 -54l-4 -19h190l-10 -44h-188l-21 -108
q-4 -20 -4 -30q0 -25 16.5 -34.5t58.5 -11.5l-7 -35h-268l7 35q52 1 71.5 17t27.5 59l19 108h-176l10 44h174l3 13l-18 60h-147z" />
    <glyph glyph-name="brokenbar" unicode="&#xa6;" horiz-adv-x="266" 
d="M188 356h-64l78 401h64zM89 -150h-64l78 401h64z" />
    <glyph glyph-name="section" unicode="&#xa7;" horiz-adv-x="468" 
d="M40 283q0 130 162 175q-42 23 -62.5 49t-20.5 73q0 69 54.5 108t133.5 39q85 0 141 -38l-15 -90h-61q-2 41 -21 61.5t-64 20.5q-40 0 -63 -20.5t-23 -57.5q0 -22 13.5 -38.5t44.5 -34.5l73 -44q62 -37 87 -70.5t25 -87.5q0 -69 -45.5 -115t-117.5 -61q46 -28 67.5 -55.5
t21.5 -73.5q0 -66 -57.5 -110.5t-145.5 -44.5q-99 0 -162 45l17 98h63v-12q0 -46 20 -65.5t70 -19.5q51 0 81 20t30 59q0 33 -18 53.5t-56 42.5l-82 48q-90 52 -90 146zM119 305q0 -57 54 -89l64 -38q124 24 124 121q0 42 -20 68.5t-59 47.5l-36 19q-127 -29 -127 -129z" />
    <glyph glyph-name="dieresis" unicode="&#xa8;" horiz-adv-x="445" 
d="M178 638q0 -26 -17 -43t-43 -17t-43 17t-17 43t17 43t43 17t43 -17t17 -43zM387 638q0 -26 -17.5 -43t-42.5 -17t-42.5 17t-17.5 43t17.5 43t42.5 17t42.5 -17t17.5 -43z" />
    <glyph glyph-name="copyright" unicode="&#xa9;" horiz-adv-x="797" 
d="M290 348q0 -83 31 -132t93 -49q46 0 64.5 18.5t25.5 61.5h58v-87q-56 -35 -144 -35q-108 0 -162.5 55.5t-54.5 159.5t54 162.5t160 58.5q90 0 144 -35v-87l-64 -1q-8 46 -23.5 64.5t-59.5 18.5q-122 0 -122 -173zM411 31q129 0 215 86t86 226q0 142 -86 228t-215 86
t-215 -86t-86 -228q0 -140 86 -226t215 -86zM411 -12q-154 0 -255 98t-101 258q0 157 103 257t253 100t253 -100t103 -257q0 -160 -101 -258t-255 -98z" />
    <glyph glyph-name="ordfeminine" unicode="&#xaa;" horiz-adv-x="437" 
d="M279 738q61 0 71 -40q8 14 28 32h49q-21 -35 -37 -108l-41 -179q-4 -15 -4 -27q0 -30 35 -30q11 0 25 2l2 -25q-38 -23 -86 -23q-56 0 -56 61q0 20 6 44q-69 -107 -142 -107q-42 0 -65.5 28t-23.5 76q0 116 73.5 206t165.5 90zM275 700q-61 0 -106.5 -76.5t-45.5 -174.5
q0 -58 38 -58q27 0 61 37t62 85l38 160q-10 27 -47 27z" />
    <glyph glyph-name="guillemotleft" unicode="&#xab;" horiz-adv-x="506" 
d="M280 426l-144 -185l71 -180l-39 -30l-128 213l211 213zM476 426l-144 -185l71 -180l-39 -30l-128 213l211 213z" />
    <glyph glyph-name="logicalnot" unicode="&#xac;" horiz-adv-x="507" 
d="M55 237l11 56h391l-43 -221h-59l32 165h-332z" />
    <glyph glyph-name="uni00AD" unicode="&#xad;" horiz-adv-x="313" 
d="M251 235h-203l13 71h203z" />
    <glyph glyph-name="registered" unicode="&#xae;" horiz-adv-x="797" 
d="M431 331v-3q50 -13 82 -63q10 -17 34 -63q13 -23 23.5 -29t38.5 -7v-30h-115q-19 43 -53 106q-28 53 -43 68t-46 16v-102q0 -36 12 -47t50 -12v-29h-190v29q36 1 45 12t9 47v241q0 36 -9 47t-45 12v31h172q79 0 120.5 -25t41.5 -89q0 -61 -31.5 -84.5t-95.5 -25.5z
M479 441q0 41 -21.5 58.5t-79.5 17.5h-26v-156h39q50 0 69 17t19 63zM411 31q129 0 215 86t86 226q0 142 -86 228t-215 86t-215 -86t-86 -228q0 -140 86 -226t215 -86zM411 -12q-154 0 -255 98t-101 258q0 157 103 257t253 100t253 -100t103 -257q0 -160 -101 -258t-255 -98
z" />
    <glyph glyph-name="macron" unicode="&#xaf;" horiz-adv-x="351" 
d="M311 590h-281l10 57h281z" />
    <glyph glyph-name="degree" unicode="&#xb0;" horiz-adv-x="411" 
d="M391 549q0 -78 -50 -135t-133 -57q-68 0 -108 38.5t-40 105.5q0 89 50 142t131 53q70 0 110 -39t40 -108zM214 414q49 0 74.5 38.5t25.5 99.5q0 47 -19 67t-59 20q-47 0 -73.5 -36.5t-26.5 -97.5q0 -50 19 -70.5t59 -20.5z" />
    <glyph glyph-name="plusminus" unicode="&#xb1;" horiz-adv-x="559" 
d="M301 507h59l-30 -155h164l-11 -56h-164l-32 -164h-59l32 164h-168l11 56h168zM40 25l10 56h391l-10 -56h-391z" />
    <glyph glyph-name="twosuperior" unicode="&#xb2;" horiz-adv-x="343" 
d="M220 651q54 0 84.5 -23.5t30.5 -68.5q0 -28 -11.5 -52.5t-39.5 -51.5t-50 -44l-69 -51l-71 -52h220l-22 -58h-280l9 41l95 80q58 49 80 69t39 48t17 58q0 54 -61 54q-52 0 -106 -52l-19 28q53 75 154 75z" />
    <glyph glyph-name="threesuperior" unicode="&#xb3;" horiz-adv-x="329" 
d="M171 604q-47 0 -87 -40l-23 26q53 61 140 61q49 0 79.5 -20.5t30.5 -61.5t-31 -69.5t-78 -37.5q39 -4 60.5 -25.5t21.5 -55.5q0 -73 -66 -112t-152 -39q-47 0 -74 9l-5 35q24 -6 60 -6q65 0 111 30t46 83q0 32 -16.5 44.5t-48.5 12.5q-12 0 -34 -2l10 43q9 -1 30 -1
q38 0 61.5 19t23.5 57q0 50 -59 50z" />
    <glyph glyph-name="acute" unicode="&#xb4;" horiz-adv-x="545" 
d="M197 566l-20 34l179 153l53 -91z" />
    <glyph glyph-name="mu" unicode="&#xb5;" horiz-adv-x="537" 
d="M329 126q-38 -63 -82.5 -101.5t-87.5 -38.5q-41 0 -50 27l-4 -2q2 -10 2 -25q0 -21 -6 -52l-24 -116l-94 -29l121 565q5 25 5 39q0 26 -16.5 37t-57.5 11l7 31q48 24 98 24q29 0 46 -21.5t17 -62.5q0 -19 -7 -56l-48 -227q-5 -23 -5 -36q0 -36 33 -36q42 0 89 49.5
t84 111.5l58 273h90l-77 -369q-5 -21 -5 -33q0 -40 49 -40q6 0 28 2l3 -31q-55 -29 -101 -29q-35 0 -53 22.5t-18 61.5q0 24 6 51z" />
    <glyph glyph-name="paragraph" unicode="&#xb6;" horiz-adv-x="641" 
d="M681 689l-6 -31q-49 -1 -68 -16.5t-27 -59.5l-137 -707h-55l149 767h-85l-149 -767h-55l84 432h-44q-109 0 -163.5 41t-54.5 116q0 225 273 225h338zM397 642h-46q-51 0 -80 -51t-29 -153q0 -45 15.5 -64t56.5 -19h27z" />
    <glyph glyph-name="periodcentered" unicode="&#xb7;" horiz-adv-x="291" 
d="M216 278q0 -31 -20 -52t-51 -21t-51 21t-20 52t20 52t51 21t51 -21t20 -52z" />
    <glyph glyph-name="cedilla" unicode="&#xb8;" horiz-adv-x="288" 
d="M233 -113q0 -85 -99 -85q-44 0 -81 25l16 32q28 -18 62 -18q40 0 40 36q0 31 -74 33l1 21l33 79l37 -6l-18 -43q42 -4 62.5 -24.5t20.5 -49.5z" />
    <glyph glyph-name="onesuperior" unicode="&#xb9;" horiz-adv-x="304" 
d="M258 644l-68 -318q-7 -29 6.5 -37t69.5 -10l-6 -29h-248l6 29q55 2 71 8.5t22 33.5l55 257q-46 -21 -98 -35l-3 28l136 73h57z" />
    <glyph glyph-name="ordmasculine" unicode="&#xba;" horiz-adv-x="418" 
d="M388 586q0 -102 -57.5 -174.5t-147.5 -72.5q-65 0 -104 40.5t-39 105.5q0 105 61 176.5t144 71.5q67 0 105 -42t38 -105zM307 595q0 97 -67 97q-42 0 -73 -46q-45 -66 -45 -171q0 -95 67 -95q37 0 66 34q52 58 52 181z" />
    <glyph glyph-name="guillemotright" unicode="&#xbb;" horiz-adv-x="506" 
d="M226 62l144 185l-71 180l39 30l128 -213l-211 -213zM30 62l144 185l-71 180l39 30l128 -213l-211 -213z" />
    <glyph glyph-name="onequarter" unicode="&#xbc;" horiz-adv-x="832" 
d="M735 730l-617 -853h-54l617 853h54zM639 -21l24 112h-198l5 25l211 278h76l-221 -267h134q19 88 58 160l58 10l-36 -170h52l-7 -36h-52l-22 -101zM258 644l-68 -318q-7 -29 6.5 -37t69.5 -10l-6 -29h-248l6 29q55 2 71 8.5t22 33.5l55 257q-46 -21 -98 -35l-3 28l136 73
h57z" />
    <glyph glyph-name="onehalf" unicode="&#xbd;" horiz-adv-x="838" 
d="M735 730l-617 -853h-54l617 853h54zM703 401q54 0 84.5 -23.5t30.5 -68.5q0 -28 -11.5 -52.5t-39.5 -51.5t-50 -44l-69 -51l-71 -52h220l-22 -58h-280l9 41l95 80q58 49 80 69t39 48t17 58q0 54 -61 54q-52 0 -106 -52l-19 28q53 75 154 75zM258 644l-68 -318
q-7 -29 6.5 -37t69.5 -10l-6 -29h-248l6 29q55 2 71 8.5t22 33.5l55 257q-46 -21 -98 -35l-3 28l136 73h57z" />
    <glyph glyph-name="threequarters" unicode="&#xbe;" horiz-adv-x="857" 
d="M171 604q-47 0 -87 -40l-23 26q53 61 140 61q49 0 79.5 -20.5t30.5 -61.5t-31 -69.5t-78 -37.5q39 -4 60.5 -25.5t21.5 -55.5q0 -73 -66 -112t-152 -39q-47 0 -74 9l-5 35q24 -6 60 -6q65 0 111 30t46 83q0 32 -16.5 44.5t-48.5 12.5q-12 0 -34 -2l10 43q9 -1 30 -1
q38 0 61.5 19t23.5 57q0 50 -59 50zM760 730l-617 -853h-54l617 853h54zM664 -21l24 112h-198l5 25l211 278h76l-221 -267h134q19 88 58 160l58 10l-36 -170h52l-7 -36h-52l-22 -101z" />
    <glyph glyph-name="questiondown" unicode="&#xbf;" horiz-adv-x="443" 
d="M209 432q0 30 21 51.5t50 21.5q28 0 48 -21.5t20 -51.5q0 -28 -20 -48t-48 -20q-29 0 -50 20t-21 48zM174 -162q48 0 74 23t39 68h66l-20 -90q-75 -47 -163 -47q-76 0 -123 31t-47 99q0 64 37 108t118 90q61 35 77.5 67t16.5 90h38q15 -30 15 -67q0 -77 -90 -139
q-66 -45 -89 -73.5t-23 -80.5q0 -79 74 -79z" />
    <glyph glyph-name="Agrave" unicode="&#xc0;" horiz-adv-x="643" 
d="M428 107l-9 108h-226l-55 -108q-15 -28 -15 -44q0 -15 15 -21t47 -7l-7 -35h-215l7 35q40 6 61.5 21.5t47.5 64.5l293 568h94l57 -566q5 -46 20 -65t52 -23l-7 -35h-239l7 35q41 1 57 13.5t16 41.5q0 6 -1 17zM335 490l-117 -227h197l-20 212q-5 56 -5 97v16v10l1 4h-6
q-10 -33 -50 -112zM498 761l-20 -34l-214 70l43 92z" />
    <glyph glyph-name="Aacute" unicode="&#xc1;" horiz-adv-x="643" 
d="M428 107l-9 108h-226l-55 -108q-15 -28 -15 -44q0 -15 15 -21t47 -7l-7 -35h-215l7 35q40 6 61.5 21.5t47.5 64.5l293 568h94l57 -566q5 -46 20 -65t52 -23l-7 -35h-239l7 35q41 1 57 13.5t16 41.5q0 6 -1 17zM335 490l-117 -227h197l-20 212q-5 56 -5 97v16v10l1 4h-6
q-10 -33 -50 -112zM330 727l-20 34l191 128l43 -92z" />
    <glyph glyph-name="Acircumflex" unicode="&#xc2;" horiz-adv-x="643" 
d="M428 107l-9 108h-226l-55 -108q-15 -28 -15 -44q0 -15 15 -21t47 -7l-7 -35h-215l7 35q40 6 61.5 21.5t47.5 64.5l293 568h94l57 -566q5 -46 20 -65t52 -23l-7 -35h-239l7 35q41 1 57 13.5t16 41.5q0 6 -1 17zM335 490l-117 -227h197l-20 212q-5 56 -5 97v16v10l1 4h-6
q-10 -33 -50 -112zM553 724l-120 85l-156 -85l-21 30l192 153l129 -155z" />
    <glyph glyph-name="Atilde" unicode="&#xc3;" horiz-adv-x="643" 
d="M428 107l-9 108h-226l-55 -108q-15 -28 -15 -44q0 -15 15 -21t47 -7l-7 -35h-215l7 35q40 6 61.5 21.5t47.5 64.5l293 568h94l57 -566q5 -46 20 -65t52 -23l-7 -35h-239l7 35q41 1 57 13.5t16 41.5q0 6 -1 17zM335 490l-117 -227h197l-20 212q-5 56 -5 97v16v10l1 4h-6
q-10 -33 -50 -112zM498 818q45 0 73 45l36 -14q-32 -95 -109 -95q-38 0 -79 22t-59 22q-26 0 -41 -11.5t-30 -35.5l-34 13q25 100 105 100q35 0 75.5 -23t62.5 -23z" />
    <glyph glyph-name="Adieresis" unicode="&#xc4;" horiz-adv-x="643" 
d="M428 107l-9 108h-226l-55 -108q-15 -28 -15 -44q0 -15 15 -21t47 -7l-7 -35h-215l7 35q40 6 61.5 21.5t47.5 64.5l293 568h94l57 -566q5 -46 20 -65t52 -23l-7 -35h-239l7 35q41 1 57 13.5t16 41.5q0 6 -1 17zM335 490l-117 -227h197l-20 212q-5 56 -5 97v16v10l1 4h-6
q-10 -33 -50 -112zM385 787q0 -25 -17.5 -42.5t-42.5 -17.5t-42.5 17.5t-17.5 42.5t17.5 42.5t42.5 17.5t42.5 -17.5t17.5 -42.5zM594 787q0 -25 -17 -42.5t-43 -17.5t-43 17.5t-17 42.5t17 42.5t43 17.5t43 -17.5t17 -42.5z" />
    <glyph glyph-name="Aring" unicode="&#xc5;" horiz-adv-x="643" 
d="M428 107l-9 108h-226l-55 -108q-15 -28 -15 -44q0 -15 15 -21t47 -7l-7 -35h-215l7 35q40 6 61.5 21.5t47.5 64.5l293 568h94l57 -566q5 -46 20 -65t52 -23l-7 -35h-239l7 35q41 1 57 13.5t16 41.5q0 6 -1 17zM335 490l-117 -227h197l-20 212q-5 56 -5 97v16v10l1 4h-6
q-10 -33 -50 -112zM417 719q-44 0 -70 27t-26 68q0 47 30.5 78t78.5 31q44 0 69.5 -27.5t25.5 -68.5q0 -48 -30 -78t-78 -30zM427 888q-29 0 -47 -20.5t-18 -51.5q0 -28 14 -44.5t40 -16.5q30 0 49 19.5t19 48.5t-15 47t-42 18z" />
    <glyph glyph-name="AE" unicode="&#xc6;" horiz-adv-x="916" 
d="M342 35q50 1 68.5 16.5t26.5 59.5l26 134h-213l-102 -138q-22 -28 -22 -45q0 -25 59 -27l-7 -35h-215l7 35q38 5 62.5 22.5t58.5 63.5l352 476q17 23 17 35q0 21 -60 22l6 35h532l-19 -150h-42q-5 60 -19.5 80.5t-56.5 20.5h-163l-50 -256h89q47 0 68 14.5t32 56.5h41
l-37 -190h-41q5 41 -10 56t-61 15h-90l-56 -287h164q57 0 82 23t45 93h45l-32 -165h-491zM546 642l-260 -349h186l38 191q18 97 42 158h-6z" />
    <glyph glyph-name="Ccedilla" unicode="&#xc7;" horiz-adv-x="578" 
d="M354 -113q0 -85 -99 -85q-44 0 -81 25l16 32q28 -18 62 -18q40 0 40 36q0 31 -74 33l1 21l24 59q-180 27 -180 250q0 88 23.5 169t68 146.5t115.5 105t158 39.5q104 0 167 -51l-22 -109h-68q-3 64 -19.5 88.5t-69.5 24.5q-67 0 -118 -41.5t-78 -107.5t-40 -135t-13 -137
q0 -108 33 -153.5t100 -45.5q59 0 94.5 25.5t58.5 84.5h66l-21 -105q-33 -21 -88.5 -36.5t-113.5 -15.5h-15l-10 -25q42 -4 62.5 -24.5t20.5 -49.5z" />
    <glyph glyph-name="Egrave" unicode="&#xc8;" horiz-adv-x="568" 
d="M-12 0l6 35q50 1 68.5 16.5t26.5 59.5l91 467q4 22 4 32q0 24 -15 33t-54 11l6 35h469l-19 -150h-42q-5 60 -19.5 80.5t-56.5 20.5h-163l-50 -256h89q47 0 68 14.5t32 56.5h41l-37 -190h-41q5 41 -10 56t-61 15h-90l-56 -287h164q57 0 82 23t45 93h45l-32 -165h-491z
M486 761l-20 -34l-214 70l43 92z" />
    <glyph glyph-name="Eacute" unicode="&#xc9;" horiz-adv-x="568" 
d="M-12 0l6 35q50 1 68.5 16.5t26.5 59.5l91 467q4 22 4 32q0 24 -15 33t-54 11l6 35h469l-19 -150h-42q-5 60 -19.5 80.5t-56.5 20.5h-163l-50 -256h89q47 0 68 14.5t32 56.5h41l-37 -190h-41q5 41 -10 56t-61 15h-90l-56 -287h164q57 0 82 23t45 93h45l-32 -165h-491z
M304 727l-20 34l191 128l43 -92z" />
    <glyph glyph-name="Ecircumflex" unicode="&#xca;" horiz-adv-x="568" 
d="M-12 0l6 35q50 1 68.5 16.5t26.5 59.5l91 467q4 22 4 32q0 24 -15 33t-54 11l6 35h469l-19 -150h-42q-5 60 -19.5 80.5t-56.5 20.5h-163l-50 -256h89q47 0 68 14.5t32 56.5h41l-37 -190h-41q5 41 -10 56t-61 15h-90l-56 -287h164q57 0 82 23t45 93h45l-32 -165h-491z
M510 724l-120 85l-156 -85l-21 30l192 153l129 -155z" />
    <glyph glyph-name="Edieresis" unicode="&#xcb;" horiz-adv-x="568" 
d="M-12 0l6 35q50 1 68.5 16.5t26.5 59.5l91 467q4 22 4 32q0 24 -15 33t-54 11l6 35h469l-19 -150h-42q-5 60 -19.5 80.5t-56.5 20.5h-163l-50 -256h89q47 0 68 14.5t32 56.5h41l-37 -190h-41q5 41 -10 56t-61 15h-90l-56 -287h164q57 0 82 23t45 93h45l-32 -165h-491z
M343 787q0 -25 -17.5 -42.5t-42.5 -17.5t-42.5 17.5t-17.5 42.5t17.5 42.5t42.5 17.5t42.5 -17.5t17.5 -42.5zM552 787q0 -25 -17 -42.5t-43 -17.5t-43 17.5t-17 42.5t17 42.5t43 17.5t43 -17.5t17 -42.5z" />
    <glyph glyph-name="Igrave" unicode="&#xcc;" horiz-adv-x="327" 
d="M278 578l-91 -467q-4 -22 -4 -32q0 -24 15 -33t54 -11l-6 -35h-258l6 35q50 1 68.5 16.5t26.5 59.5l91 467q4 22 4 32q0 24 -15 33t-54 11l6 35h258l-6 -35q-50 -1 -68.5 -16.5t-26.5 -59.5zM348 761l-20 -34l-214 70l43 92z" />
    <glyph glyph-name="Iacute" unicode="&#xcd;" horiz-adv-x="327" 
d="M278 578l-91 -467q-4 -22 -4 -32q0 -24 15 -33t54 -11l-6 -35h-258l6 35q50 1 68.5 16.5t26.5 59.5l91 467q4 22 4 32q0 24 -15 33t-54 11l6 35h258l-6 -35q-50 -1 -68.5 -16.5t-26.5 -59.5zM166 727l-20 34l191 128l43 -92z" />
    <glyph glyph-name="Icircumflex" unicode="&#xce;" horiz-adv-x="327" 
d="M278 578l-91 -467q-4 -22 -4 -32q0 -24 15 -33t54 -11l-6 -35h-258l6 35q50 1 68.5 16.5t26.5 59.5l91 467q4 22 4 32q0 24 -15 33t-54 11l6 35h258l-6 -35q-50 -1 -68.5 -16.5t-26.5 -59.5zM400 724l-120 85l-156 -85l-21 30l192 153l129 -155z" />
    <glyph glyph-name="Idieresis" unicode="&#xcf;" horiz-adv-x="327" 
d="M278 578l-91 -467q-4 -22 -4 -32q0 -24 15 -33t54 -11l-6 -35h-258l6 35q50 1 68.5 16.5t26.5 59.5l91 467q4 22 4 32q0 24 -15 33t-54 11l6 35h258l-6 -35q-50 -1 -68.5 -16.5t-26.5 -59.5zM215 787q0 -25 -17.5 -42.5t-42.5 -17.5t-42.5 17.5t-17.5 42.5t17.5 42.5
t42.5 17.5t42.5 -17.5t17.5 -42.5zM424 787q0 -25 -17 -42.5t-43 -17.5t-43 17.5t-17 42.5t17 42.5t43 17.5t43 -17.5t17 -42.5z" />
    <glyph glyph-name="Eth" unicode="&#xd0;" horiz-adv-x="658" 
d="M-12 0l6 35q50 1 68.5 16.5t26.5 59.5l45 231h-83l10 46h82l37 190q4 22 4 32q0 24 -15 33t-54 11l6 35h236q278 0 278 -249q0 -104 -33.5 -207.5t-90.5 -158.5q-45 -43 -101 -58.5t-154 -15.5h-268zM362 642h-71l-50 -254h161l-10 -46h-160l-56 -291h84q70 0 114 15
t79 61q38 49 59.5 141.5t21.5 179.5q0 98 -36 146t-136 48z" />
    <glyph glyph-name="Ntilde" unicode="&#xd1;" horiz-adv-x="669" 
d="M526 0h-65l-171 408q-46 111 -51 170h-6q-6 -92 -24 -184l-55 -283q-4 -17 -4 -32q0 -24 15 -33t54 -11l-6 -35h-225l6 35q50 1 68.5 16.5t26.5 59.5l91 467q4 22 4 32q0 24 -15 33t-54 11l6 35h156l174 -418q36 -87 40 -144h6q5 84 28 206l48 245q4 22 4 32q0 24 -15 33
t-54 11l6 35h217l-6 -35q-45 -1 -62 -16.5t-25 -59.5zM516 818q45 0 73 45l36 -14q-32 -95 -109 -95q-38 0 -79 22t-59 22q-26 0 -41 -11.5t-30 -35.5l-34 13q25 100 105 100q35 0 75.5 -23t62.5 -23z" />
    <glyph glyph-name="Ograve" unicode="&#xd2;" horiz-adv-x="673" 
d="M650 438q0 -59 -11.5 -119.5t-38 -121t-65 -107t-97.5 -75.5t-130 -29q-116 0 -180.5 70t-64.5 196q0 58 12 118t39 120t66 106t98.5 75t131.5 29q111 0 175.5 -67.5t64.5 -194.5zM546 467q0 92 -32.5 138.5t-104.5 46.5q-101 0 -157 -90q-42 -65 -63.5 -161t-21.5 -182
q0 -99 33.5 -142.5t106.5 -43.5q95 0 152 91q42 67 64.5 165.5t22.5 177.5zM531 761l-20 -34l-214 70l43 92z" />
    <glyph glyph-name="Oacute" unicode="&#xd3;" horiz-adv-x="673" 
d="M650 438q0 -59 -11.5 -119.5t-38 -121t-65 -107t-97.5 -75.5t-130 -29q-116 0 -180.5 70t-64.5 196q0 58 12 118t39 120t66 106t98.5 75t131.5 29q111 0 175.5 -67.5t64.5 -194.5zM546 467q0 92 -32.5 138.5t-104.5 46.5q-101 0 -157 -90q-42 -65 -63.5 -161t-21.5 -182
q0 -99 33.5 -142.5t106.5 -43.5q95 0 152 91q42 67 64.5 165.5t22.5 177.5zM329 727l-20 34l191 128l43 -92z" />
    <glyph glyph-name="Ocircumflex" unicode="&#xd4;" horiz-adv-x="673" 
d="M650 438q0 -59 -11.5 -119.5t-38 -121t-65 -107t-97.5 -75.5t-130 -29q-116 0 -180.5 70t-64.5 196q0 58 12 118t39 120t66 106t98.5 75t131.5 29q111 0 175.5 -67.5t64.5 -194.5zM546 467q0 92 -32.5 138.5t-104.5 46.5q-101 0 -157 -90q-42 -65 -63.5 -161t-21.5 -182
q0 -99 33.5 -142.5t106.5 -43.5q95 0 152 91q42 67 64.5 165.5t22.5 177.5zM565 724l-120 85l-156 -85l-21 30l192 153l129 -155z" />
    <glyph glyph-name="Otilde" unicode="&#xd5;" horiz-adv-x="673" 
d="M650 438q0 -59 -11.5 -119.5t-38 -121t-65 -107t-97.5 -75.5t-130 -29q-116 0 -180.5 70t-64.5 196q0 58 12 118t39 120t66 106t98.5 75t131.5 29q111 0 175.5 -67.5t64.5 -194.5zM546 467q0 92 -32.5 138.5t-104.5 46.5q-101 0 -157 -90q-42 -65 -63.5 -161t-21.5 -182
q0 -99 33.5 -142.5t106.5 -43.5q95 0 152 91q42 67 64.5 165.5t22.5 177.5zM506 818q45 0 73 45l36 -14q-32 -95 -109 -95q-38 0 -79 22t-59 22q-26 0 -41 -11.5t-30 -35.5l-34 13q25 100 105 100q35 0 75.5 -23t62.5 -23z" />
    <glyph glyph-name="Odieresis" unicode="&#xd6;" horiz-adv-x="673" 
d="M650 438q0 -59 -11.5 -119.5t-38 -121t-65 -107t-97.5 -75.5t-130 -29q-116 0 -180.5 70t-64.5 196q0 58 12 118t39 120t66 106t98.5 75t131.5 29q111 0 175.5 -67.5t64.5 -194.5zM546 467q0 92 -32.5 138.5t-104.5 46.5q-101 0 -157 -90q-42 -65 -63.5 -161t-21.5 -182
q0 -99 33.5 -142.5t106.5 -43.5q95 0 152 91q42 67 64.5 165.5t22.5 177.5zM389 787q0 -25 -17.5 -42.5t-42.5 -17.5t-42.5 17.5t-17.5 42.5t17.5 42.5t42.5 17.5t42.5 -17.5t17.5 -42.5zM598 787q0 -25 -17 -42.5t-43 -17.5t-43 17.5t-17 42.5t17 42.5t43 17.5t43 -17.5
t17 -42.5z" />
    <glyph glyph-name="multiply" unicode="&#xd7;" horiz-adv-x="562" 
d="M118 433l43 36l129 -160l191 160l31 -38l-191 -160l129 -159l-44 -36l-129 160l-191 -160l-30 38l190 159z" />
    <glyph glyph-name="Oslash" unicode="&#xd8;" horiz-adv-x="673" 
d="M650 438q0 -59 -11.5 -119.5t-38 -121t-65 -107t-97.5 -75.5t-130 -29q-103 0 -166 55l-65 -85l-36 27l71 92q-49 67 -49 177q0 58 12 118t39 120t66 106t98.5 75t131.5 29q86 0 147 -43l60 79l40 -29l-65 -83q58 -69 58 -186zM546 467q0 49 -9 85l-350 -454
q30 -65 120 -65q95 0 152 91q42 67 64.5 165.5t22.5 177.5zM167 219q0 -41 4 -66l344 450q-34 49 -106 49q-101 0 -157 -90q-42 -65 -63.5 -161t-21.5 -182z" />
    <glyph glyph-name="Ugrave" unicode="&#xd9;" horiz-adv-x="670" 
d="M317 46q150 0 184 175l69 357q4 24 4 32q0 23 -16 33t-58 11l6 35h226l-6 -35q-45 -1 -62 -16.5t-25 -59.5l-69 -357q-24 -122 -87.5 -178.5t-168.5 -56.5q-112 0 -166 43.5t-54 122.5q0 39 9 87l65 339q3 16 3 29q0 26 -15 35.5t-53 11.5l6 35h258l-6 -35
q-51 -1 -68.5 -16.5t-26.5 -59.5l-67 -342q-9 -45 -9 -81q0 -57 30.5 -83t96.5 -26zM559 761l-20 -34l-214 70l43 92z" />
    <glyph glyph-name="Uacute" unicode="&#xda;" horiz-adv-x="670" 
d="M317 46q150 0 184 175l69 357q4 24 4 32q0 23 -16 33t-58 11l6 35h226l-6 -35q-45 -1 -62 -16.5t-25 -59.5l-69 -357q-24 -122 -87.5 -178.5t-168.5 -56.5q-112 0 -166 43.5t-54 122.5q0 39 9 87l65 339q3 16 3 29q0 26 -15 35.5t-53 11.5l6 35h258l-6 -35
q-51 -1 -68.5 -16.5t-26.5 -59.5l-67 -342q-9 -45 -9 -81q0 -57 30.5 -83t96.5 -26zM357 727l-20 34l191 128l43 -92z" />
    <glyph glyph-name="Ucircumflex" unicode="&#xdb;" horiz-adv-x="670" 
d="M317 46q150 0 184 175l69 357q4 24 4 32q0 23 -16 33t-58 11l6 35h226l-6 -35q-45 -1 -62 -16.5t-25 -59.5l-69 -357q-24 -122 -87.5 -178.5t-168.5 -56.5q-112 0 -166 43.5t-54 122.5q0 39 9 87l65 339q3 16 3 29q0 26 -15 35.5t-53 11.5l6 35h258l-6 -35
q-51 -1 -68.5 -16.5t-26.5 -59.5l-67 -342q-9 -45 -9 -81q0 -57 30.5 -83t96.5 -26zM592 724l-120 85l-156 -85l-21 30l192 153l129 -155z" />
    <glyph glyph-name="Udieresis" unicode="&#xdc;" horiz-adv-x="670" 
d="M317 46q150 0 184 175l69 357q4 24 4 32q0 23 -16 33t-58 11l6 35h226l-6 -35q-45 -1 -62 -16.5t-25 -59.5l-69 -357q-24 -122 -87.5 -178.5t-168.5 -56.5q-112 0 -166 43.5t-54 122.5q0 39 9 87l65 339q3 16 3 29q0 26 -15 35.5t-53 11.5l6 35h258l-6 -35
q-51 -1 -68.5 -16.5t-26.5 -59.5l-67 -342q-9 -45 -9 -81q0 -57 30.5 -83t96.5 -26zM405 787q0 -25 -17.5 -42.5t-42.5 -17.5t-42.5 17.5t-17.5 42.5t17.5 42.5t42.5 17.5t42.5 -17.5t17.5 -42.5zM614 787q0 -25 -17 -42.5t-43 -17.5t-43 17.5t-17 42.5t17 42.5t43 17.5
t43 -17.5t17 -42.5z" />
    <glyph glyph-name="Yacute" unicode="&#xdd;" horiz-adv-x="589" 
d="M222 111l30 165l-86 296q-14 45 -30.5 61.5t-47.5 20.5l6 35h229l-6 -35q-61 -1 -61 -39q0 -12 7 -38l64 -236h4l155 238q21 33 21 49q0 23 -53 26l6 35h206l-6 -35q-32 -4 -55 -22t-60 -71l-192 -279l-33 -171q-8 -43 5.5 -59t65.5 -17l-7 -35h-268l7 35q52 1 71.5 17
t27.5 59zM319 727l-20 34l191 128l43 -92z" />
    <glyph glyph-name="Thorn" unicode="&#xde;" horiz-adv-x="552" 
d="M459 397q0 58 -26.5 85t-95.5 27h-72l-57 -291h75q72 0 107 25q69 48 69 154zM278 578l-4 -21h53q124 0 178 -38.5t54 -123.5q0 -68 -32.5 -118.5t-86.5 -76.5q-57 -28 -163 -28h-78l-12 -58q-4 -20 -4 -32q0 -25 17 -35t59 -12l-6 -35h-265l6 35q50 1 68.5 16.5
t26.5 59.5l91 467q4 20 4 32q0 24 -15 33t-54 11l6 35h258l-6 -35q-50 -1 -68.5 -16.5t-26.5 -59.5z" />
    <glyph glyph-name="germandbls" unicode="&#xdf;" horiz-adv-x="554" 
d="M123 436h-64l7 32l67 23l9 46q18 90 85 141t146 51q72 0 117 -33t45 -85q0 -22 -10 -43.5t-22.5 -36.5t-35.5 -33t-36 -26.5l-36 -22.5q-25 -15 -32.5 -22.5t-7.5 -17.5q0 -9 26 -33q59 -54 93 -102.5t34 -107.5q0 -73 -53 -124t-141 -51q-80 0 -132 47l27 40
q48 -37 98 -37q48 0 74.5 34t26.5 84t-18.5 90t-58.5 84t-40 71q0 20 12 33t51 40q94 66 94 132q0 35 -21 54.5t-58 19.5q-54 0 -86.5 -33.5t-49.5 -116.5l-112 -560q-33 -161 -155 -161q-29 0 -61 16v31q63 4 89 25.5t37 80.5z" />
    <glyph glyph-name="agrave" unicode="&#xe0;" horiz-adv-x="547" 
d="M344 505q78 0 91 -52q11 18 37 42h50q-27 -46 -48 -140l-53 -233q-5 -23 -5 -35q0 -39 45 -39q14 0 32 3l3 -31q-55 -29 -98 -29q-72 0 -72 79q0 27 7 56q-88 -138 -183 -138q-55 0 -85 36t-30 99q0 149 95 265.5t214 116.5zM338 458q-55 0 -103 -47t-76 -122.5
t-28 -159.5q0 -76 52 -76q38 0 84.5 49.5t82.5 111.5l49 207q-12 37 -61 37zM442 600l-20 -34l-212 96l53 91z" />
    <glyph glyph-name="aacute" unicode="&#xe1;" horiz-adv-x="547" 
d="M344 505q78 0 91 -52q11 18 37 42h50q-27 -46 -48 -140l-53 -233q-5 -23 -5 -35q0 -39 45 -39q14 0 32 3l3 -31q-55 -29 -98 -29q-72 0 -72 79q0 27 7 56q-88 -138 -183 -138q-55 0 -85 36t-30 99q0 149 95 265.5t214 116.5zM338 458q-55 0 -103 -47t-76 -122.5
t-28 -159.5q0 -76 52 -76q38 0 84.5 49.5t82.5 111.5l49 207q-12 37 -61 37zM266 566l-20 34l179 153l53 -91z" />
    <glyph glyph-name="acircumflex" unicode="&#xe2;" horiz-adv-x="547" 
d="M344 505q78 0 91 -52q11 18 37 42h50q-27 -46 -48 -140l-53 -233q-5 -23 -5 -35q0 -39 45 -39q14 0 32 3l3 -31q-55 -29 -98 -29q-72 0 -72 79q0 27 7 56q-88 -138 -183 -138q-55 0 -85 36t-30 99q0 149 95 265.5t214 116.5zM338 458q-55 0 -103 -47t-76 -122.5
t-28 -159.5q0 -76 52 -76q38 0 84.5 49.5t82.5 111.5l49 207q-12 37 -61 37zM492 564l-120 85l-156 -85l-21 30l192 153l129 -155z" />
    <glyph glyph-name="atilde" unicode="&#xe3;" horiz-adv-x="547" 
d="M344 505q78 0 91 -52q11 18 37 42h50q-27 -46 -48 -140l-53 -233q-5 -23 -5 -35q0 -39 45 -39q14 0 32 3l3 -31q-55 -29 -98 -29q-72 0 -72 79q0 27 7 56q-88 -138 -183 -138q-55 0 -85 36t-30 99q0 149 95 265.5t214 116.5zM338 458q-55 0 -103 -47t-76 -122.5
t-28 -159.5q0 -76 52 -76q38 0 84.5 49.5t82.5 111.5l49 207q-12 37 -61 37zM424 669q43 0 66 42l35 -15q-13 -43 -38.5 -72t-62.5 -29q-29 0 -68.5 14.5t-55.5 14.5q-40 0 -64 -44l-33 14q10 46 34.5 76t62.5 30q29 0 67 -15.5t57 -15.5z" />
    <glyph glyph-name="adieresis" unicode="&#xe4;" horiz-adv-x="547" 
d="M344 505q78 0 91 -52q11 18 37 42h50q-27 -46 -48 -140l-53 -233q-5 -23 -5 -35q0 -39 45 -39q14 0 32 3l3 -31q-55 -29 -98 -29q-72 0 -72 79q0 27 7 56q-88 -138 -183 -138q-55 0 -85 36t-30 99q0 149 95 265.5t214 116.5zM338 458q-55 0 -103 -47t-76 -122.5
t-28 -159.5q0 -76 52 -76q38 0 84.5 49.5t82.5 111.5l49 207q-12 37 -61 37zM332 638q0 -26 -17 -43t-43 -17t-43 17t-17 43t17 43t43 17t43 -17t17 -43zM541 638q0 -26 -17.5 -43t-42.5 -17t-42.5 17t-17.5 43t17.5 43t42.5 17t42.5 -17t17.5 -43z" />
    <glyph glyph-name="aring" unicode="&#xe5;" horiz-adv-x="547" 
d="M344 505q78 0 91 -52q11 18 37 42h50q-27 -46 -48 -140l-53 -233q-5 -23 -5 -35q0 -39 45 -39q14 0 32 3l3 -31q-55 -29 -98 -29q-72 0 -72 79q0 27 7 56q-88 -138 -183 -138q-55 0 -85 36t-30 99q0 149 95 265.5t214 116.5zM338 458q-55 0 -103 -47t-76 -122.5
t-28 -159.5q0 -76 52 -76q38 0 84.5 49.5t82.5 111.5l49 207q-12 37 -61 37zM354 560q-44 0 -70 27t-26 68q0 47 30.5 78t78.5 31q44 0 69.5 -27.5t25.5 -68.5q0 -48 -30 -78t-78 -30zM364 729q-29 0 -47 -20.5t-18 -51.5q0 -28 14 -44.5t40 -16.5q30 0 49 19.5t19 48.5
t-15 47t-42 18z" />
    <glyph glyph-name="ae" unicode="&#xe6;" horiz-adv-x="756" 
d="M409 171q0 -61 27 -94.5t75 -33.5q75 0 149 69l26 -35q-80 -91 -204 -91q-113 0 -152 94q-67 -94 -171 -94q-66 0 -102.5 32t-36.5 96q0 160 295 160h13l7 33q9 43 9 74q0 39 -16 57t-52 18q-52 0 -78.5 -21t-38.5 -63h-63l18 94q80 39 168 39q63 0 95 -17.5t50 -58.5
q72 76 168 76q67 0 106.5 -33t39.5 -92q0 -74 -73.5 -115t-226.5 -41h-30q-2 -15 -2 -53zM183 43q40 0 70 18.5t66 60.5q-5 28 -5 57q0 26 4 49h-12q-43 0 -73.5 -4t-59.5 -15t-44 -34.5t-15 -59.5q0 -72 69 -72zM649 386q0 30 -16.5 50t-43.5 20q-60 0 -105.5 -52
t-64.5 -133q5 0 15 -0.5t14 -0.5q109 0 155 29.5t46 86.5z" />
    <glyph glyph-name="ccedilla" unicode="&#xe7;" horiz-adv-x="455" 
d="M256 -113q0 -85 -99 -85q-44 0 -81 25l16 32q28 -18 62 -18q40 0 40 36q0 31 -74 33l1 21l27 65q-54 17 -83.5 63t-29.5 117q0 78 35 153t101.5 125t145.5 50q90 0 138 -40l-20 -92h-68v13q0 38 -14 55t-45 17q-76 0 -127 -88.5t-51 -200.5q0 -61 27.5 -93t76.5 -32
q70 0 136 61l26 -35q-31 -35 -79 -59t-102 -24q-11 0 -31 2l-11 -27q42 -4 62.5 -24.5t20.5 -49.5z" />
    <glyph glyph-name="egrave" unicode="&#xe8;" horiz-adv-x="477" 
d="M130 171q0 -61 27 -94.5t75 -33.5q75 0 149 69l26 -35q-80 -91 -204 -91q-82 0 -125 50t-43 143q0 78 35.5 152t101.5 123.5t144 49.5q67 0 106.5 -32.5t39.5 -91.5q0 -74 -79.5 -118t-228.5 -44h-22q-2 -15 -2 -47zM370 386q0 30 -16.5 50t-43.5 20q-59 0 -105 -55
t-65 -137h29q201 0 201 122zM430 600l-20 -34l-212 96l53 91z" />
    <glyph glyph-name="eacute" unicode="&#xe9;" horiz-adv-x="477" 
d="M130 171q0 -61 27 -94.5t75 -33.5q75 0 149 69l26 -35q-80 -91 -204 -91q-82 0 -125 50t-43 143q0 78 35.5 152t101.5 123.5t144 49.5q67 0 106.5 -32.5t39.5 -91.5q0 -74 -79.5 -118t-228.5 -44h-22q-2 -15 -2 -47zM370 386q0 30 -16.5 50t-43.5 20q-59 0 -105 -55
t-65 -137h29q201 0 201 122zM252 566l-20 34l179 153l53 -91z" />
    <glyph glyph-name="ecircumflex" unicode="&#xea;" horiz-adv-x="477" 
d="M130 171q0 -61 27 -94.5t75 -33.5q75 0 149 69l26 -35q-80 -91 -204 -91q-82 0 -125 50t-43 143q0 78 35.5 152t101.5 123.5t144 49.5q67 0 106.5 -32.5t39.5 -91.5q0 -74 -79.5 -118t-228.5 -44h-22q-2 -15 -2 -47zM370 386q0 30 -16.5 50t-43.5 20q-59 0 -105 -55
t-65 -137h29q201 0 201 122zM465 564l-120 85l-156 -85l-21 30l192 153l129 -155z" />
    <glyph glyph-name="edieresis" unicode="&#xeb;" horiz-adv-x="477" 
d="M130 171q0 -61 27 -94.5t75 -33.5q75 0 149 69l26 -35q-80 -91 -204 -91q-82 0 -125 50t-43 143q0 78 35.5 152t101.5 123.5t144 49.5q67 0 106.5 -32.5t39.5 -91.5q0 -74 -79.5 -118t-228.5 -44h-22q-2 -15 -2 -47zM370 386q0 30 -16.5 50t-43.5 20q-59 0 -105 -55
t-65 -137h29q201 0 201 122zM281 638q0 -26 -17.5 -43t-42.5 -17t-42.5 17t-17.5 43t17.5 43t42.5 17t42.5 -17t17.5 -43zM490 638q0 -26 -17 -43t-43 -17t-43 17t-17 43t17 43t43 17t43 -17t17 -43z" />
    <glyph glyph-name="igrave" unicode="&#xec;" horiz-adv-x="268" 
d="M205 367l-56 -245q-6 -24 -6 -40q0 -18 9.5 -26t32.5 -8q15 0 37 3l3 -31q-64 -29 -112 -29q-66 0 -66 74q0 23 8 57l56 232q6 22 6 38q0 26 -18.5 37.5t-59.5 11.5l7 31q48 24 100 24q67 0 67 -71q0 -23 -8 -58zM275 600l-20 -34l-212 96l53 91z" />
    <glyph glyph-name="iacute" unicode="&#xed;" horiz-adv-x="268" 
d="M205 367l-56 -245q-6 -24 -6 -40q0 -18 9.5 -26t32.5 -8q15 0 37 3l3 -31q-64 -29 -112 -29q-66 0 -66 74q0 23 8 57l56 232q6 22 6 38q0 26 -18.5 37.5t-59.5 11.5l7 31q48 24 100 24q67 0 67 -71q0 -23 -8 -58zM117 566l-20 34l179 153l53 -91z" />
    <glyph glyph-name="icircumflex" unicode="&#xee;" horiz-adv-x="268" 
d="M205 367l-56 -245q-6 -24 -6 -40q0 -18 9.5 -26t32.5 -8q15 0 37 3l3 -31q-64 -29 -112 -29q-66 0 -66 74q0 23 8 57l56 232q6 22 6 38q0 26 -18.5 37.5t-59.5 11.5l7 31q48 24 100 24q67 0 67 -71q0 -23 -8 -58zM319 564l-120 85l-156 -85l-21 30l192 153l129 -155z" />
    <glyph glyph-name="idieresis" unicode="&#xef;" horiz-adv-x="268" 
d="M205 367l-56 -245q-6 -24 -6 -40q0 -18 9.5 -26t32.5 -8q15 0 37 3l3 -31q-64 -29 -112 -29q-66 0 -66 74q0 23 8 57l56 232q6 22 6 38q0 26 -18.5 37.5t-59.5 11.5l7 31q48 24 100 24q67 0 67 -71q0 -23 -8 -58zM143 638q0 -26 -17.5 -43t-42.5 -17t-42.5 17t-17.5 43
t17.5 43t42.5 17t42.5 -17t17.5 -43zM352 638q0 -26 -17 -43t-43 -17t-43 17t-17 43t17 43t43 17t43 -17t17 -43z" />
    <glyph glyph-name="eth" unicode="&#xf0;" horiz-adv-x="518" 
d="M128 579l136 55q-54 41 -134 60l20 31q102 -13 176 -66l116 47l17 -38l-96 -39q120 -111 120 -304q0 -143 -73.5 -241t-189.5 -98q-85 0 -135 53t-50 139q0 137 78.5 231.5t184.5 94.5q37 0 65 -16q-23 68 -65 115l-153 -62zM387 325q0 54 -10 111q-34 24 -74 24
q-65 0 -111 -67q-61 -88 -61 -230q0 -129 93 -129q52 0 91 45q34 40 53 105.5t19 140.5z" />
    <glyph glyph-name="ntilde" unicode="&#xf1;" horiz-adv-x="541" 
d="M340 122l50 240q5 23 5 36q0 36 -33 36q-42 0 -89 -49.5t-84 -111.5l-58 -273h-91l75 354q5 25 5 39q0 26 -16.5 37t-57.5 11l7 31q48 24 98 24q59 0 59 -80q0 -28 -7 -59q95 148 199 148q44 0 65.5 -25t21.5 -67q0 -17 -5 -42l-53 -249q-6 -28 -6 -40q0 -18 9.5 -26
t32.5 -8q15 0 36 3l3 -31q-64 -29 -102 -29q-71 0 -71 74q0 20 7 57zM400 669q43 0 66 42l35 -15q-13 -43 -38.5 -72t-62.5 -29q-29 0 -68.5 14.5t-55.5 14.5q-40 0 -64 -44l-33 14q10 46 34.5 76t62.5 30q29 0 67 -15.5t57 -15.5z" />
    <glyph glyph-name="ograve" unicode="&#xf2;" horiz-adv-x="518" 
d="M483 310q0 -133 -74 -228.5t-189 -95.5q-85 0 -135 53t-50 139q0 137 78.5 231.5t184.5 94.5q88 0 136.5 -54.5t48.5 -139.5zM387 325q0 131 -93 131q-58 0 -102 -63q-61 -88 -61 -230q0 -129 93 -129q52 0 91 45q34 40 53 105.5t19 140.5zM421 600l-20 -34l-212 96
l53 91z" />
    <glyph glyph-name="oacute" unicode="&#xf3;" horiz-adv-x="518" 
d="M483 310q0 -133 -74 -228.5t-189 -95.5q-85 0 -135 53t-50 139q0 137 78.5 231.5t184.5 94.5q88 0 136.5 -54.5t48.5 -139.5zM387 325q0 131 -93 131q-58 0 -102 -63q-61 -88 -61 -230q0 -129 93 -129q52 0 91 45q34 40 53 105.5t19 140.5zM243 566l-20 34l179 153
l53 -91z" />
    <glyph glyph-name="ocircumflex" unicode="&#xf4;" horiz-adv-x="518" 
d="M483 310q0 -133 -74 -228.5t-189 -95.5q-85 0 -135 53t-50 139q0 137 78.5 231.5t184.5 94.5q88 0 136.5 -54.5t48.5 -139.5zM387 325q0 131 -93 131q-58 0 -102 -63q-61 -88 -61 -230q0 -129 93 -129q52 0 91 45q34 40 53 105.5t19 140.5zM456 564l-120 85l-156 -85
l-21 30l192 153l129 -155z" />
    <glyph glyph-name="otilde" unicode="&#xf5;" horiz-adv-x="518" 
d="M483 310q0 -133 -74 -228.5t-189 -95.5q-85 0 -135 53t-50 139q0 137 78.5 231.5t184.5 94.5q88 0 136.5 -54.5t48.5 -139.5zM387 325q0 131 -93 131q-58 0 -102 -63q-61 -88 -61 -230q0 -129 93 -129q52 0 91 45q34 40 53 105.5t19 140.5zM397 669q43 0 66 42l35 -15
q-13 -43 -38.5 -72t-62.5 -29q-29 0 -68.5 14.5t-55.5 14.5q-40 0 -64 -44l-33 14q10 46 34.5 76t62.5 30q29 0 67 -15.5t57 -15.5z" />
    <glyph glyph-name="odieresis" unicode="&#xf6;" horiz-adv-x="518" 
d="M483 310q0 -133 -74 -228.5t-189 -95.5q-85 0 -135 53t-50 139q0 137 78.5 231.5t184.5 94.5q88 0 136.5 -54.5t48.5 -139.5zM387 325q0 131 -93 131q-58 0 -102 -63q-61 -88 -61 -230q0 -129 93 -129q52 0 91 45q34 40 53 105.5t19 140.5zM291 638q0 -26 -17.5 -43
t-42.5 -17t-42.5 17t-17.5 43t17.5 43t42.5 17t42.5 -17t17.5 -43zM500 638q0 -26 -17 -43t-43 -17t-43 17t-17 43t17 43t43 17t43 -17t17 -43z" />
    <glyph glyph-name="divide" unicode="&#xf7;" horiz-adv-x="620" 
d="M55 245l10 53h505l-10 -53h-505zM417 482q0 -28 -19 -47.5t-45 -19.5q-27 0 -45.5 18.5t-18.5 46.5q0 27 18.5 46.5t45.5 19.5q26 0 45 -19t19 -45zM342 56q0 -28 -19 -47.5t-45 -19.5q-27 0 -45.5 18.5t-18.5 46.5q0 27 18.5 46.5t45.5 19.5q26 0 45 -19t19 -45z" />
    <glyph glyph-name="oslash" unicode="&#xf8;" horiz-adv-x="518" 
d="M483 310q0 -133 -74 -228.5t-189 -95.5q-59 0 -103 27l-50 -68l-34 25l51 70q-49 54 -49 138q0 137 78.5 231.5t184.5 94.5q58 0 104 -28l51 70l37 -27l-53 -73q46 -54 46 -136zM131 163q0 -33 5 -52l228 313q-23 32 -70 32q-58 0 -102 -63q-61 -88 -61 -230zM387 325
q0 29 -4 49l-228 -309q23 -31 69 -31q52 0 91 45q34 40 53 105.5t19 140.5z" />
    <glyph glyph-name="ugrave" unicode="&#xf9;" horiz-adv-x="537" 
d="M329 126q-91 -140 -193 -140q-44 0 -65.5 25t-21.5 67q0 17 5 42l50 234q5 25 5 39q0 26 -16.5 37t-57.5 11l7 31q48 24 98 24q29 0 46 -21.5t17 -62.5q0 -19 -7 -56l-48 -227q-5 -23 -5 -36q0 -36 33 -36q42 0 89 49.5t84 111.5l58 273h90l-77 -369q-5 -22 -5 -33
q0 -40 49 -40q6 0 28 2l3 -31q-55 -29 -101 -29q-35 0 -53 22.5t-18 61.5q0 24 6 51zM396 600l-20 -34l-212 96l53 91z" />
    <glyph glyph-name="uacute" unicode="&#xfa;" horiz-adv-x="537" 
d="M329 126q-91 -140 -193 -140q-44 0 -65.5 25t-21.5 67q0 17 5 42l50 234q5 25 5 39q0 26 -16.5 37t-57.5 11l7 31q48 24 98 24q29 0 46 -21.5t17 -62.5q0 -19 -7 -56l-48 -227q-5 -23 -5 -36q0 -36 33 -36q42 0 89 49.5t84 111.5l58 273h90l-77 -369q-5 -22 -5 -33
q0 -40 49 -40q6 0 28 2l3 -31q-55 -29 -101 -29q-35 0 -53 22.5t-18 61.5q0 24 6 51zM238 566l-20 34l179 153l53 -91z" />
    <glyph glyph-name="ucircumflex" unicode="&#xfb;" horiz-adv-x="537" 
d="M329 126q-91 -140 -193 -140q-44 0 -65.5 25t-21.5 67q0 17 5 42l50 234q5 25 5 39q0 26 -16.5 37t-57.5 11l7 31q48 24 98 24q29 0 46 -21.5t17 -62.5q0 -19 -7 -56l-48 -227q-5 -23 -5 -36q0 -36 33 -36q42 0 89 49.5t84 111.5l58 273h90l-77 -369q-5 -22 -5 -33
q0 -40 49 -40q6 0 28 2l3 -31q-55 -29 -101 -29q-35 0 -53 22.5t-18 61.5q0 24 6 51zM470 564l-120 85l-156 -85l-21 30l192 153l129 -155z" />
    <glyph glyph-name="udieresis" unicode="&#xfc;" horiz-adv-x="537" 
d="M329 126q-91 -140 -193 -140q-44 0 -65.5 25t-21.5 67q0 17 5 42l50 234q5 25 5 39q0 26 -16.5 37t-57.5 11l7 31q48 24 98 24q29 0 46 -21.5t17 -62.5q0 -19 -7 -56l-48 -227q-5 -23 -5 -36q0 -36 33 -36q42 0 89 49.5t84 111.5l58 273h90l-77 -369q-5 -22 -5 -33
q0 -40 49 -40q6 0 28 2l3 -31q-55 -29 -101 -29q-35 0 -53 22.5t-18 61.5q0 24 6 51zM266 638q0 -26 -17 -43t-43 -17t-43 17t-17 43t17 43t43 17t43 -17t17 -43zM475 638q0 -26 -17.5 -43t-42.5 -17t-42.5 17t-17.5 43t17.5 43t42.5 17t42.5 -17t17.5 -43z" />
    <glyph glyph-name="yacute" unicode="&#xfd;" horiz-adv-x="463" 
d="M168 1l-30 -3q-4 109 -24 239l-18 119q-8 53 -21.5 69t-60.5 16l7 31q48 24 93 24q34 0 46 -25.5t23 -105.5l17 -118q11 -73 11 -132q0 -7 -0.5 -17.5t-0.5 -12.5h6l52 97q106 198 113 316l87 -15v-35l-258 -471q-51 -92 -96 -134.5t-112 -55.5l-17 60q63 14 104.5 47
t78.5 107zM212 566l-20 34l179 153l53 -91z" />
    <glyph glyph-name="thorn" unicode="&#xfe;" horiz-adv-x="547" 
d="M190 274l-45 -210q18 -31 63 -31q68 0 116.5 50t70 120.5t21.5 149.5q0 85 -48 85q-40 0 -91.5 -51.5t-86.5 -112.5zM254 561l-44 -193q90 135 194 135q51 0 79.5 -37.5t28.5 -110.5q0 -94 -36.5 -177.5t-109 -137.5t-165.5 -54q-39 0 -70 11l-19 -90q-4 -17 -4 -31
q0 -21 14.5 -28.5t54.5 -9.5l-7 -34h-240l7 34q44 3 59.5 15.5t24.5 54.5l145 679q5 23 5 35q0 28 -16.5 39t-53.5 13l7 30l143 26h13q6 -18 6 -49q0 -51 -16 -120z" />
    <glyph glyph-name="ydieresis" unicode="&#xff;" horiz-adv-x="463" 
d="M168 1l-30 -3q-4 109 -24 239l-18 119q-8 53 -21.5 69t-60.5 16l7 31q48 24 93 24q34 0 46 -25.5t23 -105.5l17 -118q11 -73 11 -132q0 -7 -0.5 -17.5t-0.5 -12.5h6l52 97q106 198 113 316l87 -15v-35l-258 -471q-51 -92 -96 -134.5t-112 -55.5l-17 60q63 14 104.5 47
t78.5 107zM240 638q0 -26 -17 -43t-43 -17t-43 17t-17 43t17 43t43 17t43 -17t17 -43zM449 638q0 -26 -17.5 -43t-42.5 -17t-42.5 17t-17.5 43t17.5 43t42.5 17t42.5 -17t17.5 -43z" />
    <glyph glyph-name="Amacron" unicode="&#x100;" horiz-adv-x="643" 
d="M428 107l-9 108h-226l-55 -108q-15 -28 -15 -44q0 -15 15 -21t47 -7l-7 -35h-215l7 35q40 6 61.5 21.5t47.5 64.5l293 568h94l57 -566q5 -46 20 -65t52 -23l-7 -35h-239l7 35q41 1 57 13.5t16 41.5q0 6 -1 17zM335 490l-117 -227h197l-20 212q-5 56 -5 97v16v10l1 4h-6
q-10 -33 -50 -112zM561 769h-281l10 57h281z" />
    <glyph glyph-name="amacron" unicode="&#x101;" horiz-adv-x="547" 
d="M344 505q78 0 91 -52q11 18 37 42h50q-27 -46 -48 -140l-53 -233q-5 -23 -5 -35q0 -39 45 -39q14 0 32 3l3 -31q-55 -29 -98 -29q-72 0 -72 79q0 27 7 56q-88 -138 -183 -138q-55 0 -85 36t-30 99q0 149 95 265.5t214 116.5zM338 458q-55 0 -103 -47t-76 -122.5
t-28 -159.5q0 -76 52 -76q38 0 84.5 49.5t82.5 111.5l49 207q-12 37 -61 37zM498 590h-281l10 57h281z" />
    <glyph glyph-name="Abreve" unicode="&#x102;" horiz-adv-x="643" 
d="M428 107l-9 108h-226l-55 -108q-15 -28 -15 -44q0 -15 15 -21t47 -7l-7 -35h-215l7 35q40 6 61.5 21.5t47.5 64.5l293 568h94l57 -566q5 -46 20 -65t52 -23l-7 -35h-239l7 35q41 1 57 13.5t16 41.5q0 6 -1 17zM335 490l-117 -227h197l-20 212q-5 56 -5 97v16v10l1 4h-6
q-10 -33 -50 -112zM422 743q-52 0 -86.5 41t-36.5 94l33 22q34 -79 102 -79q63 0 134 79l32 -22q-29 -56 -78 -95.5t-100 -39.5z" />
    <glyph glyph-name="abreve" unicode="&#x103;" horiz-adv-x="547" 
d="M344 505q78 0 91 -52q11 18 37 42h50q-27 -46 -48 -140l-53 -233q-5 -23 -5 -35q0 -39 45 -39q14 0 32 3l3 -31q-55 -29 -98 -29q-72 0 -72 79q0 27 7 56q-88 -138 -183 -138q-55 0 -85 36t-30 99q0 149 95 265.5t214 116.5zM338 458q-55 0 -103 -47t-76 -122.5
t-28 -159.5q0 -76 52 -76q38 0 84.5 49.5t82.5 111.5l49 207q-12 37 -61 37zM343 567q-57 0 -90.5 42t-40.5 99l35 14q17 -40 41 -58.5t62 -18.5q39 0 69 19t64 60l31 -22q-31 -60 -75 -97.5t-96 -37.5z" />
    <glyph glyph-name="Aogonek" unicode="&#x104;" horiz-adv-x="643" 
d="M395 -142l16 -21q-40 -42 -98 -42q-45 0 -68 21t-23 56q0 44 35.5 78.5t132.5 87.5q23 13 31 29.5t6 48.5l-8 99h-226l-55 -108q-15 -28 -15 -44q0 -26 62 -28l-7 -35h-215l7 35q40 6 61.5 21.5t47.5 64.5l293 568h94l57 -566q5 -46 20 -65t52 -23l-7 -35h-158
q-54 0 -91 -37.5t-37 -79.5q0 -19 11 -30.5t29 -11.5q24 0 53 17zM335 490l-117 -227h197l-20 212q-5 56 -5 97v20l1 10h-6q-10 -33 -50 -112z" />
    <glyph glyph-name="aogonek" unicode="&#x105;" horiz-adv-x="547" 
d="M436 -142l16 -21q-40 -42 -98 -42q-45 0 -68 21t-23 53q0 68 116 124q-52 12 -52 80q0 25 6 53q-88 -138 -183 -138q-55 0 -85 36t-30 99q0 149 95 265.5t214 116.5q78 0 91 -52q11 18 37 42h50q-27 -46 -48 -140l-53 -233q-5 -19 -5 -37q0 -37 42 -37q17 0 35 3l3 -31
q-153 -63 -153 -139q0 -17 11 -28.5t29 -11.5q24 0 53 17zM338 458q-55 0 -103 -47t-76 -122.5t-28 -159.5q0 -76 52 -76q38 0 84.5 49.5t82.5 111.5l49 207q-12 37 -61 37z" />
    <glyph glyph-name="Cacute" unicode="&#x106;" horiz-adv-x="578" 
d="M300 33q59 0 94.5 25.5t58.5 84.5h66l-21 -105q-33 -21 -88.5 -36.5t-113.5 -15.5q-233 0 -233 254q0 88 23.5 169t68 146.5t115.5 105t158 39.5q104 0 167 -51l-22 -109h-68q-3 64 -19.5 88.5t-69.5 24.5q-67 0 -118 -41.5t-78 -107.5t-40 -135t-13 -137
q0 -108 33 -153.5t100 -45.5zM322 727l-20 34l191 128l43 -92z" />
    <glyph glyph-name="cacute" unicode="&#x107;" horiz-adv-x="455" 
d="M317 504q90 0 138 -40l-20 -92h-68v13q0 38 -14 55t-45 17q-76 0 -127 -88.5t-51 -200.5q0 -61 27.5 -93t76.5 -32q70 0 136 61l26 -35q-31 -35 -79 -59t-102 -24q-84 0 -132 49.5t-48 140.5q0 78 35 153t101.5 125t145.5 50zM255 566l-20 34l179 153l53 -91z" />
    <glyph glyph-name="Ccircumflex" unicode="&#x108;" horiz-adv-x="578" 
d="M300 33q59 0 94.5 25.5t58.5 84.5h66l-21 -105q-33 -21 -88.5 -36.5t-113.5 -15.5q-233 0 -233 254q0 88 23.5 169t68 146.5t115.5 105t158 39.5q104 0 167 -51l-22 -109h-68q-3 64 -19.5 88.5t-69.5 24.5q-67 0 -118 -41.5t-78 -107.5t-40 -135t-13 -137
q0 -108 33 -153.5t100 -45.5zM560 724l-120 85l-156 -85l-21 30l192 153l129 -155z" />
    <glyph glyph-name="ccircumflex" unicode="&#x109;" horiz-adv-x="455" 
d="M317 504q90 0 138 -40l-20 -92h-68v13q0 38 -14 55t-45 17q-76 0 -127 -88.5t-51 -200.5q0 -61 27.5 -93t76.5 -32q70 0 136 61l26 -35q-31 -35 -79 -59t-102 -24q-84 0 -132 49.5t-48 140.5q0 78 35 153t101.5 125t145.5 50zM469 564l-120 85l-156 -85l-21 30l192 153
l129 -155z" />
    <glyph glyph-name="Cdotaccent" unicode="&#x10a;" horiz-adv-x="578" 
d="M300 33q59 0 94.5 25.5t58.5 84.5h66l-21 -105q-33 -21 -88.5 -36.5t-113.5 -15.5q-233 0 -233 254q0 88 23.5 169t68 146.5t115.5 105t158 39.5q104 0 167 -51l-22 -109h-68q-3 64 -19.5 88.5t-69.5 24.5q-67 0 -118 -41.5t-78 -107.5t-40 -135t-13 -137
q0 -108 33 -153.5t100 -45.5zM471 808q0 -26 -18 -44.5t-44 -18.5t-44 18.5t-18 44.5t18 44.5t44 18.5t44 -18.5t18 -44.5z" />
    <glyph glyph-name="cdotaccent" unicode="&#x10b;" horiz-adv-x="455" 
d="M317 504q90 0 138 -40l-20 -92h-68v13q0 38 -14 55t-45 17q-76 0 -127 -88.5t-51 -200.5q0 -61 27.5 -93t76.5 -32q70 0 136 61l26 -35q-31 -35 -79 -59t-102 -24q-84 0 -132 49.5t-48 140.5q0 78 35 153t101.5 125t145.5 50zM391 644q0 -26 -18 -44.5t-44 -18.5
t-44 18.5t-18 44.5t18 44.5t44 18.5t44 -18.5t18 -44.5z" />
    <glyph glyph-name="Ccaron" unicode="&#x10c;" horiz-adv-x="578" 
d="M300 33q59 0 94.5 25.5t58.5 84.5h66l-21 -105q-33 -21 -88.5 -36.5t-113.5 -15.5q-233 0 -233 254q0 88 23.5 169t68 146.5t115.5 105t158 39.5q104 0 167 -51l-22 -109h-68q-3 64 -19.5 88.5t-69.5 24.5q-67 0 -118 -41.5t-78 -107.5t-40 -135t-13 -137
q0 -108 33 -153.5t100 -45.5zM303 907l120 -85l156 85l21 -30l-192 -153l-129 155z" />
    <glyph glyph-name="ccaron" unicode="&#x10d;" horiz-adv-x="455" 
d="M317 504q90 0 138 -40l-20 -92h-68v13q0 38 -14 55t-45 17q-76 0 -127 -88.5t-51 -200.5q0 -61 27.5 -93t76.5 -32q70 0 136 61l26 -35q-31 -35 -79 -59t-102 -24q-84 0 -132 49.5t-48 140.5q0 78 35 153t101.5 125t145.5 50zM211 730l120 -85l156 85l21 -30l-192 -153
l-129 155z" />
    <glyph glyph-name="Dcaron" unicode="&#x10e;" horiz-adv-x="658" 
d="M-12 0l6 35q50 1 68.5 16.5t26.5 59.5l91 467q4 18 4 32q0 24 -15 33t-54 11l6 35h236q278 0 278 -249q0 -104 -33.5 -207.5t-90.5 -158.5q-45 -43 -101 -58.5t-154 -15.5h-268zM362 642h-71l-115 -591h84q70 0 114 15t79 61q38 49 59.5 141.5t21.5 179.5q0 98 -36 146
t-136 48zM267 907l120 -85l156 85l21 -30l-192 -153l-129 155z" />
    <glyph glyph-name="dcaron" unicode="&#x10f;" horiz-adv-x="553" 
d="M706 715l-83 -188l-43 11l36 192zM361 214l46 215q-19 28 -58 28q-90 0 -154 -94t-64 -228q0 -82 55 -82q45 0 91.5 48t83.5 113zM344 126q-35 -58 -83.5 -98t-104.5 -40t-88.5 37t-32.5 103q0 104 47.5 192t123 136.5t157.5 48.5q33 0 59 -14l19 96q4 19 4 36
q0 28 -16 38.5t-53 12.5l7 30l141 26h13q5 -15 5 -46q0 -50 -15 -123l-94 -439q-5 -23 -5 -36q0 -20 10.5 -29t34.5 -9q14 0 32 3l3 -31q-64 -29 -102 -29q-68 0 -68 82q0 25 6 53z" />
    <glyph glyph-name="Dcroat" unicode="&#x110;" horiz-adv-x="658" 
d="M-12 0l6 35q50 1 68.5 16.5t26.5 59.5l45 231h-83l10 46h82l37 190q4 20 4 32q0 24 -15 33t-54 11l6 35h236q278 0 278 -249q0 -104 -33.5 -207.5t-90.5 -158.5q-45 -43 -101 -58.5t-154 -15.5h-268zM362 642h-71l-50 -254h161l-10 -46h-160l-56 -291h84q70 0 114 15
t79 61q38 49 59.5 141.5t21.5 179.5q0 98 -36 146t-136 48z" />
    <glyph glyph-name="dcroat" unicode="&#x111;" horiz-adv-x="553" 
d="M282 564l9 41h153q1 6 1 16q0 28 -16 39.5t-53 13.5l7 30l141 26h13q5 -15 5 -43q0 -34 -7 -82h87l-9 -41h-86v-3l-94 -439q-5 -23 -5 -36q0 -20 10.5 -29t34.5 -9q13 0 32 3l3 -31q-64 -29 -102 -29q-68 0 -68 82q0 25 6 53q-35 -58 -83.5 -98t-104.5 -40t-88.5 37
t-32.5 103q0 104 47.5 192t123 136.5t157.5 48.5q33 0 59 -14l14 73h-154zM361 214l46 215q-20 29 -58 29q-90 0 -154 -94.5t-64 -228.5q0 -82 55 -82q45 0 91.5 48t83.5 113z" />
    <glyph glyph-name="Emacron" unicode="&#x112;" horiz-adv-x="568" 
d="M-12 0l6 35q50 1 68.5 16.5t26.5 59.5l91 467q4 22 4 32q0 24 -15 33t-54 11l6 35h469l-19 -150h-42q-5 60 -19.5 80.5t-56.5 20.5h-163l-50 -256h89q47 0 68 14.5t32 56.5h41l-37 -190h-41q5 41 -10 56t-61 15h-90l-56 -287h164q57 0 82 23t45 93h45l-32 -165h-491z
M524 769h-281l10 57h281z" />
    <glyph glyph-name="emacron" unicode="&#x113;" horiz-adv-x="477" 
d="M130 171q0 -61 27 -94.5t75 -33.5q75 0 149 69l26 -35q-80 -91 -204 -91q-82 0 -125 50t-43 143q0 78 35.5 152t101.5 123.5t144 49.5q67 0 106.5 -32.5t39.5 -91.5q0 -74 -79.5 -118t-228.5 -44h-22q-2 -15 -2 -47zM370 386q0 30 -16.5 50t-43.5 20q-59 0 -105 -55
t-65 -137h29q201 0 201 122zM458 590h-281l10 57h281z" />
    <glyph glyph-name="Ebreve" unicode="&#x114;" horiz-adv-x="568" 
d="M-12 0l6 35q50 1 68.5 16.5t26.5 59.5l91 467q4 22 4 32q0 24 -15 33t-54 11l6 35h469l-19 -150h-42q-5 60 -19.5 80.5t-56.5 20.5h-163l-50 -256h89q47 0 68 14.5t32 56.5h41l-37 -190h-41q5 41 -10 56t-61 15h-90l-56 -287h164q57 0 82 23t45 93h45l-32 -165h-491z
M380 741q-57 0 -90.5 42t-40.5 99l35 14q17 -40 41 -58.5t62 -18.5q39 0 69 19t64 60l31 -22q-31 -60 -75 -97.5t-96 -37.5z" />
    <glyph glyph-name="ebreve" unicode="&#x115;" horiz-adv-x="477" 
d="M130 171q0 -61 27 -94.5t75 -33.5q75 0 149 69l26 -35q-80 -91 -204 -91q-82 0 -125 50t-43 143q0 78 35.5 152t101.5 123.5t144 49.5q67 0 106.5 -32.5t39.5 -91.5q0 -74 -79.5 -118t-228.5 -44h-22q-2 -15 -2 -47zM370 386q0 30 -16.5 50t-43.5 20q-59 0 -105 -55
t-65 -137h29q201 0 201 122zM334 567q-57 0 -90.5 42t-40.5 99l35 14q17 -40 41 -58.5t62 -18.5q39 0 69 19t64 60l31 -22q-31 -60 -75 -97.5t-96 -37.5z" />
    <glyph glyph-name="Edotaccent" unicode="&#x116;" horiz-adv-x="568" 
d="M-12 0l6 35q50 1 68.5 16.5t26.5 59.5l91 467q4 22 4 32q0 24 -15 33t-54 11l6 35h469l-19 -150h-42q-5 60 -19.5 80.5t-56.5 20.5h-163l-50 -256h89q47 0 68 14.5t32 56.5h41l-37 -190h-41q5 41 -10 56t-61 15h-90l-56 -287h164q57 0 82 23t45 93h45l-32 -165h-491z
M459 808q0 -26 -18 -44.5t-44 -18.5t-44 18.5t-18 44.5t18 44.5t44 18.5t44 -18.5t18 -44.5z" />
    <glyph glyph-name="edotaccent" unicode="&#x117;" horiz-adv-x="477" 
d="M130 171q0 -61 27 -94.5t75 -33.5q75 0 149 69l26 -35q-80 -91 -204 -91q-82 0 -125 50t-43 143q0 78 35.5 152t101.5 123.5t144 49.5q67 0 106.5 -32.5t39.5 -91.5q0 -74 -79.5 -118t-228.5 -44h-22q-2 -15 -2 -47zM370 386q0 30 -16.5 50t-43.5 20q-59 0 -105 -55
t-65 -137h29q201 0 201 122zM390 644q0 -26 -18 -44.5t-44 -18.5t-44 18.5t-18 44.5t18 44.5t44 18.5t44 -18.5t18 -44.5z" />
    <glyph glyph-name="Eogonek" unicode="&#x118;" horiz-adv-x="568" 
d="M378 0h-390l6 35q50 1 68.5 16.5t26.5 59.5l91 467q4 22 4 32q0 24 -15 33t-54 11l6 35h469l-19 -150h-42q-5 60 -19.5 80.5t-56.5 20.5h-163l-50 -256h89q47 0 68 14.5t32 56.5h41l-37 -190h-41q5 41 -10 56t-61 15h-90l-56 -287h164q57 0 82 23t45 93h45l-32 -165h-10
q-48 0 -91 -38t-43 -78q0 -19 11 -31t29 -12q24 0 53 17l16 -21q-40 -42 -98 -42q-45 0 -68 21.5t-23 54.5q0 70 123 129z" />
    <glyph glyph-name="eogonek" unicode="&#x119;" horiz-adv-x="477" 
d="M290 -142l16 -21q-40 -42 -98 -42q-45 0 -68 21t-23 53q0 64 99 117h-13q-82 0 -125 50t-43 143q0 78 35.5 152t101.5 123.5t144 49.5q67 0 106.5 -32.5t39.5 -91.5q0 -74 -79.5 -118t-228.5 -44h-22q-2 -15 -2 -47q0 -61 27 -94.5t75 -33.5q75 0 149 69l26 -35
q-31 -35 -92 -70q-65 -37 -91.5 -65t-26.5 -61q0 -17 11 -28.5t29 -11.5q24 0 53 17zM370 386q0 30 -16.5 50t-43.5 20q-59 0 -105 -55t-65 -137h29q201 0 201 122z" />
    <glyph glyph-name="Ecaron" unicode="&#x11a;" horiz-adv-x="568" 
d="M-12 0l6 35q50 1 68.5 16.5t26.5 59.5l91 467q4 22 4 32q0 24 -15 33t-54 11l6 35h469l-19 -150h-42q-5 60 -19.5 80.5t-56.5 20.5h-163l-50 -256h89q47 0 68 14.5t32 56.5h41l-37 -190h-41q5 41 -10 56t-61 15h-90l-56 -287h164q57 0 82 23t45 93h45l-32 -165h-491z
M267 907l120 -85l156 85l21 -30l-192 -153l-129 155z" />
    <glyph glyph-name="ecaron" unicode="&#x11b;" horiz-adv-x="477" 
d="M130 171q0 -61 27 -94.5t75 -33.5q75 0 149 69l26 -35q-80 -91 -204 -91q-82 0 -125 50t-43 143q0 78 35.5 152t101.5 123.5t144 49.5q67 0 106.5 -32.5t39.5 -91.5q0 -74 -79.5 -118t-228.5 -44h-22q-2 -15 -2 -47zM370 386q0 30 -16.5 50t-43.5 20q-59 0 -105 -55
t-65 -137h29q201 0 201 122zM191 730l120 -85l156 85l21 -30l-192 -153l-129 155z" />
    <glyph glyph-name="Gcircumflex" unicode="&#x11c;" horiz-adv-x="648" 
d="M316 33q71 0 116 30l31 163q4 24 4 32q0 24 -17 33t-62 11l7 35h250l-7 -35q-39 -1 -55.5 -17t-24.5 -59l-37 -189q-93 -51 -206 -51q-252 0 -252 258q0 83 23 162t66.5 145.5t115 107t160.5 40.5q121 0 183 -50l-22 -109h-68q-3 61 -24.5 86.5t-80.5 25.5
q-67 0 -118 -41t-78 -106.5t-40 -134t-13 -137.5q0 -109 37 -154.5t112 -45.5zM590 724l-120 85l-156 -85l-21 30l192 153l129 -155z" />
    <glyph glyph-name="gcircumflex" unicode="&#x11d;" horiz-adv-x="496" 
d="M526 440q-35 -14 -65 -14q-35 0 -70 19q44 -37 44 -102q0 -58 -54.5 -108t-160.5 -50q-3 0 -9 0.5t-10 0.5q-31 -6 -54 -23t-23 -35q0 -25 33 -26l82 -2q88 -2 130 -32t42 -91q0 -83 -69 -129t-176 -46q-103 0 -152 28t-49 75q0 52 66 82l40 2q-22 -32 -22 -74
q0 -69 119 -69q159 0 159 106q0 61 -99 65q-65 3 -103 7q-41 3 -63 17.5t-22 50.5q0 70 115 107q-45 11 -69.5 47.5t-24.5 81.5q0 77 59 126.5t139 49.5q38 0 92.5 -11.5t72.5 -11.5q37 0 80 27zM235 231q53 0 81 42.5t28 103.5q0 81 -85 81q-44 0 -76 -38t-32 -106
q0 -83 84 -83zM450 564l-120 85l-156 -85l-21 30l192 153l129 -155z" />
    <glyph glyph-name="Gbreve" unicode="&#x11e;" horiz-adv-x="648" 
d="M316 33q71 0 116 30l31 163q4 24 4 32q0 24 -17 33t-62 11l7 35h250l-7 -35q-39 -1 -55.5 -17t-24.5 -59l-37 -189q-93 -51 -206 -51q-252 0 -252 258q0 83 23 162t66.5 145.5t115 107t160.5 40.5q121 0 183 -50l-22 -109h-68q-3 61 -24.5 86.5t-80.5 25.5
q-67 0 -118 -41t-78 -106.5t-40 -134t-13 -137.5q0 -109 37 -154.5t112 -45.5zM434 743q-52 0 -86.5 41t-36.5 94l33 22q34 -79 102 -79q63 0 134 79l32 -22q-29 -56 -78 -95.5t-100 -39.5z" />
    <glyph glyph-name="gbreve" unicode="&#x11f;" horiz-adv-x="496" 
d="M526 440q-35 -14 -65 -14q-35 0 -70 19q44 -37 44 -102q0 -58 -54.5 -108t-160.5 -50q-3 0 -9 0.5t-10 0.5q-31 -6 -54 -23t-23 -35q0 -25 33 -26l82 -2q88 -2 130 -32t42 -91q0 -83 -69 -129t-176 -46q-103 0 -152 28t-49 75q0 52 66 82l40 2q-22 -32 -22 -74
q0 -69 119 -69q159 0 159 106q0 61 -99 65q-65 3 -103 7q-41 3 -63 17.5t-22 50.5q0 70 115 107q-45 11 -69.5 47.5t-24.5 81.5q0 77 59 126.5t139 49.5q38 0 92.5 -11.5t72.5 -11.5q37 0 80 27zM235 231q53 0 81 42.5t28 103.5q0 81 -85 81q-44 0 -76 -38t-32 -106
q0 -83 84 -83zM315 567q-57 0 -90.5 42t-40.5 99l35 14q17 -40 41 -58.5t62 -18.5q39 0 69 19t64 60l31 -22q-31 -60 -75 -97.5t-96 -37.5z" />
    <glyph glyph-name="Gdotaccent" unicode="&#x120;" horiz-adv-x="648" 
d="M316 33q71 0 116 30l31 163q4 24 4 32q0 24 -17 33t-62 11l7 35h250l-7 -35q-39 -1 -55.5 -17t-24.5 -59l-37 -189q-93 -51 -206 -51q-252 0 -252 258q0 83 23 162t66.5 145.5t115 107t160.5 40.5q121 0 183 -50l-22 -109h-68q-3 61 -24.5 86.5t-80.5 25.5
q-67 0 -118 -41t-78 -106.5t-40 -134t-13 -137.5q0 -109 37 -154.5t112 -45.5zM501 808q0 -26 -18 -44.5t-44 -18.5t-44 18.5t-18 44.5t18 44.5t44 18.5t44 -18.5t18 -44.5z" />
    <glyph glyph-name="gdotaccent" unicode="&#x121;" horiz-adv-x="496" 
d="M526 440q-35 -14 -65 -14q-35 0 -70 19q44 -37 44 -102q0 -58 -54.5 -108t-160.5 -50q-3 0 -9 0.5t-10 0.5q-31 -6 -54 -23t-23 -35q0 -25 33 -26l82 -2q88 -2 130 -32t42 -91q0 -83 -69 -129t-176 -46q-103 0 -152 28t-49 75q0 52 66 82l40 2q-22 -32 -22 -74
q0 -69 119 -69q159 0 159 106q0 61 -99 65q-65 3 -103 7q-41 3 -63 17.5t-22 50.5q0 70 115 107q-45 11 -69.5 47.5t-24.5 81.5q0 77 59 126.5t139 49.5q38 0 92.5 -11.5t72.5 -11.5q37 0 80 27zM235 231q53 0 81 42.5t28 103.5q0 81 -85 81q-44 0 -76 -38t-32 -106
q0 -83 84 -83zM369 644q0 -26 -18 -44.5t-44 -18.5t-44 18.5t-18 44.5t18 44.5t44 18.5t44 -18.5t18 -44.5z" />
    <glyph glyph-name="Gcommaaccent" unicode="&#x122;" horiz-adv-x="648" 
d="M316 33q71 0 116 30l31 163q4 24 4 32q0 24 -17 33t-62 11l7 35h250l-7 -35q-39 -1 -55.5 -17t-24.5 -59l-37 -189q-93 -51 -206 -51q-252 0 -252 258q0 83 23 162t66.5 145.5t115 107t160.5 40.5q121 0 183 -50l-22 -109h-68q-3 61 -24.5 86.5t-80.5 25.5
q-67 0 -118 -41t-78 -106.5t-40 -134t-13 -137.5q0 -109 37 -154.5t112 -45.5zM342 -141q0 -48 -33 -85.5t-94 -49.5l-19 27q38 12 52.5 25.5t14.5 32.5q0 16 -27 26q-31 13 -31 48q0 23 18 39t47 16q34 0 53 -21.5t19 -57.5z" />
    <glyph glyph-name="gcommaaccent" unicode="&#x123;" horiz-adv-x="496" 
d="M526 440q-35 -14 -65 -14q-35 0 -70 19q44 -37 44 -102q0 -58 -54.5 -108t-160.5 -50q-3 0 -9 0.5t-10 0.5q-31 -6 -54 -23t-23 -35q0 -25 33 -26l82 -2q88 -2 130 -32t42 -91q0 -83 -69 -129t-176 -46q-103 0 -152 28t-49 75q0 52 66 82l40 2q-22 -32 -22 -74
q0 -69 119 -69q159 0 159 106q0 61 -99 65q-65 3 -103 7q-41 3 -63 17.5t-22 50.5q0 70 115 107q-45 11 -69.5 47.5t-24.5 81.5q0 77 59 126.5t139 49.5q38 0 92.5 -11.5t72.5 -11.5q37 0 80 27zM235 231q53 0 81 42.5t28 103.5q0 81 -85 81q-44 0 -76 -38t-32 -106
q0 -83 84 -83zM252 664q0 49 38.5 87.5t101.5 51.5l15 -29q-78 -26 -78 -63q0 -10 4 -13t16 -7q40 -10 40 -52q0 -25 -18 -41.5t-47 -16.5q-34 0 -53 23t-19 60z" />
    <glyph glyph-name="Hcircumflex" unicode="&#x124;" horiz-adv-x="699" 
d="M650 578l-91 -467q-4 -20 -4 -32q0 -24 15 -33t54 -11l-6 -35h-258l6 35q50 1 68.5 16.5t26.5 59.5l44 229h-274l-44 -229q-4 -22 -4 -32q0 -24 15 -33t54 -11l-6 -35h-258l6 35q50 1 68.5 16.5t26.5 59.5l91 467q4 22 4 32q0 24 -15 33t-54 11l6 35h258l-6 -35
q-50 -1 -68.5 -16.5t-26.5 -59.5l-37 -188h274l37 188q4 22 4 32q0 24 -15 33t-54 11l6 35h258l-6 -35q-50 -1 -68.5 -16.5t-26.5 -59.5zM581 724l-120 85l-156 -85l-21 30l192 153l129 -155z" />
    <glyph glyph-name="hcircumflex" unicode="&#x125;" horiz-adv-x="531" 
d="M330 122l50 240q5 23 5 36q0 36 -33 36q-42 0 -89 -49.5t-84 -111.5l-58 -273h-91l126 587q4 19 4 35q0 28 -16 39t-53 13l7 30l143 26h13q6 -18 6 -47q0 -51 -16 -122l-43 -193q90 137 191 137q44 0 65.5 -25t21.5 -67q0 -17 -5 -42l-53 -249q-6 -29 -6 -40
q0 -18 9.5 -26t31.5 -8q14 0 37 3l3 -31q-64 -29 -104 -29q-69 0 -69 74q0 20 7 57zM488 763l-120 85l-156 -85l-21 30l192 153l129 -155z" />
    <glyph glyph-name="Hbar" unicode="&#x126;" horiz-adv-x="699" 
d="M650 578l-8 -38h74l-10 -46h-73l-74 -383q-4 -20 -4 -32q0 -24 15 -33t54 -11l-6 -35h-258l6 35q50 1 68.5 16.5t26.5 59.5l44 229h-274l-44 -229q-4 -20 -4 -32q0 -24 15 -33t54 -11l-6 -35h-258l6 35q50 1 68.5 16.5t26.5 59.5l74 383h-71l10 46h70l8 38q4 22 4 32
q0 24 -15 33t-54 11l6 35h258l-6 -35q-50 -1 -68.5 -16.5t-26.5 -59.5l-8 -38h274l8 38q4 22 4 32q0 24 -15 33t-54 11l6 35h258l-6 -35q-50 -1 -68.5 -16.5t-26.5 -59.5zM241 390h274l20 104h-274z" />
    <glyph glyph-name="hbar" unicode="&#x127;" horiz-adv-x="531" 
d="M69 564l9 41h81q1 6 1 16q0 28 -16 39.5t-53 13.5l7 30l143 26h13q5 -15 5 -45q0 -34 -7 -80h157l-9 -41h-156v-3l-43 -193q90 137 191 137q44 0 65.5 -25t21.5 -67q0 -17 -5 -42l-53 -249q-6 -26 -6 -40q0 -18 9.5 -26t34.5 -8q11 0 34 3l3 -31q-64 -29 -104 -29
q-69 0 -69 74q0 20 7 57l50 240q5 27 5 36q0 36 -33 36q-42 0 -89 -49.5t-84 -111.5l-58 -273h-91l121 564h-82z" />
    <glyph glyph-name="Itilde" unicode="&#x128;" horiz-adv-x="327" 
d="M278 578l-91 -467q-4 -22 -4 -32q0 -24 15 -33t54 -11l-6 -35h-258l6 35q50 1 68.5 16.5t26.5 59.5l91 467q4 22 4 32q0 24 -15 33t-54 11l6 35h258l-6 -35q-50 -1 -68.5 -16.5t-26.5 -59.5zM340 818q45 0 73 45l36 -14q-32 -95 -109 -95q-38 0 -79 22t-59 22
q-26 0 -41 -11.5t-30 -35.5l-34 13q25 100 105 100q35 0 75.5 -23t62.5 -23z" />
    <glyph glyph-name="itilde" unicode="&#x129;" horiz-adv-x="268" 
d="M205 367l-56 -245q-6 -24 -6 -40q0 -18 9.5 -26t32.5 -8q15 0 37 3l3 -31q-64 -29 -112 -29q-66 0 -66 74q0 23 8 57l56 232q6 22 6 38q0 26 -18.5 37.5t-59.5 11.5l7 31q48 24 100 24q67 0 67 -71q0 -23 -8 -58zM240 669q43 0 66 42l35 -15q-13 -43 -38.5 -72t-62.5 -29
q-29 0 -68.5 14.5t-55.5 14.5q-40 0 -64 -44l-33 14q10 46 34.5 76t62.5 30q29 0 67 -15.5t57 -15.5z" />
    <glyph glyph-name="Imacron" unicode="&#x12a;" horiz-adv-x="327" 
d="M278 578l-91 -467q-4 -22 -4 -32q0 -24 15 -33t54 -11l-6 -35h-258l6 35q50 1 68.5 16.5t26.5 59.5l91 467q4 22 4 32q0 24 -15 33t-54 11l6 35h258l-6 -35q-50 -1 -68.5 -16.5t-26.5 -59.5zM407 769h-281l10 57h281z" />
    <glyph glyph-name="imacron" unicode="&#x12b;" horiz-adv-x="268" 
d="M301 590h-241l10 57h241zM205 367l-56 -245q-6 -24 -6 -40q0 -18 9.5 -26t32.5 -8q15 0 37 3l3 -31q-64 -29 -112 -29q-66 0 -66 74q0 23 8 57l56 232q6 22 6 38q0 26 -18.5 37.5t-59.5 11.5l7 31q48 24 100 24q67 0 67 -71q0 -23 -8 -58z" />
    <glyph glyph-name="Ibreve" unicode="&#x12c;" horiz-adv-x="327" 
d="M278 578l-91 -467q-4 -22 -4 -32q0 -24 15 -33t54 -11l-6 -35h-258l6 35q50 1 68.5 16.5t26.5 59.5l91 467q4 22 4 32q0 24 -15 33t-54 11l6 35h258l-6 -35q-50 -1 -68.5 -16.5t-26.5 -59.5zM249 743q-52 0 -86.5 41t-36.5 94l33 22q34 -79 102 -79q63 0 134 79l32 -22
q-29 -56 -78 -95.5t-100 -39.5z" />
    <glyph glyph-name="ibreve" unicode="&#x12d;" horiz-adv-x="268" 
d="M205 367l-56 -245q-6 -24 -6 -40q0 -18 9.5 -26t32.5 -8q15 0 37 3l3 -31q-64 -29 -112 -29q-66 0 -66 74q0 23 8 57l56 232q6 22 6 38q0 26 -18.5 37.5t-59.5 11.5l7 31q48 24 100 24q67 0 67 -71q0 -23 -8 -58zM190 567q-57 0 -90.5 42t-40.5 99l35 14q17 -40 41 -58.5
t62 -18.5q39 0 69 19t64 60l31 -22q-31 -60 -75 -97.5t-96 -37.5z" />
    <glyph glyph-name="Iogonek" unicode="&#x12e;" horiz-adv-x="327" 
d="M195 -142l16 -21q-40 -42 -98 -42q-45 0 -68 21t-23 53q0 77 125 131h-159l6 35q50 1 68.5 16.5t26.5 59.5l91 467q4 22 4 32q0 24 -15 33t-54 11l6 35h258l-6 -35q-50 -1 -68.5 -16.5t-26.5 -59.5l-91 -467q-4 -22 -4 -32q0 -24 15 -33t54 -11l-6 -35h-6
q-51 0 -94.5 -39.5t-43.5 -79.5q0 -17 11 -28.5t29 -11.5q24 0 53 17z" />
    <glyph glyph-name="iogonek" unicode="&#x12f;" horiz-adv-x="268" 
d="M258 644q0 -26 -18 -44.5t-44 -18.5t-44 18.5t-18 44.5t18 44.5t44 18.5t44 -18.5t18 -44.5zM222 51l3 -31l-6 -3q-37 -18 -60 -31.5t-50.5 -43.5t-27.5 -61q0 -17 11 -28.5t29 -11.5q24 0 53 17l16 -21q-40 -42 -98 -42q-45 0 -68 21t-23 53q0 69 116 125q-70 0 -70 73
q0 21 8 55l56 232q6 22 6 38q0 26 -18.5 37.5t-59.5 11.5l7 31q48 24 100 24q67 0 67 -71q0 -23 -8 -58l-56 -245q-6 -24 -6 -40q0 -18 9.5 -26t32.5 -8q15 0 37 3z" />
    <glyph glyph-name="Idotaccent" unicode="&#x130;" horiz-adv-x="327" 
d="M278 578l-91 -467q-4 -22 -4 -32q0 -24 15 -33t54 -11l-6 -35h-258l6 35q50 1 68.5 16.5t26.5 59.5l91 467q4 22 4 32q0 24 -15 33t-54 11l6 35h258l-6 -35q-50 -1 -68.5 -16.5t-26.5 -59.5zM335 808q0 -26 -18 -44.5t-44 -18.5t-44 18.5t-18 44.5t18 44.5t44 18.5
t44 -18.5t18 -44.5z" />
    <glyph glyph-name="dotlessi" unicode="&#x131;" horiz-adv-x="268" 
d="M205 367l-56 -245q-6 -24 -6 -40q0 -18 9.5 -26t32.5 -8q15 0 37 3l3 -31q-64 -29 -112 -29q-66 0 -66 74q0 23 8 57l56 232q6 22 6 38q0 26 -18.5 37.5t-59.5 11.5l7 31q48 24 100 24q67 0 67 -71q0 -23 -8 -58z" />
    <glyph glyph-name="IJ" unicode="&#x132;" horiz-adv-x="657" 
d="M278 578l-91 -467q-4 -22 -4 -32q0 -24 15 -33t54 -11l-6 -35h-258l6 35q50 1 68.5 16.5t26.5 59.5l91 467q4 22 4 32q0 24 -15 33t-54 11l6 35h258l-6 -35q-50 -1 -68.5 -16.5t-26.5 -59.5zM603 578l-92 -470q-23 -118 -75 -172.5t-165 -82.5l-17 37q79 32 109.5 76
t48.5 134l93 478q4 26 4 32q0 24 -15 33t-54 11l6 35h258l-6 -35q-50 -1 -68.5 -16.5t-26.5 -59.5z" />
    <glyph glyph-name="ij" unicode="&#x133;" horiz-adv-x="513" 
d="M205 367l-56 -245q-6 -24 -6 -40q0 -18 9.5 -26t32.5 -8q15 0 37 3l3 -31q-64 -29 -112 -29q-66 0 -66 74q0 23 8 57l56 232q6 22 6 38q0 26 -18.5 37.5t-59.5 11.5l7 31q48 24 100 24q67 0 67 -71q0 -23 -8 -58zM258 644q0 -26 -18 -44.5t-44 -18.5t-44 18.5t-18 44.5
t18 44.5t44 18.5t44 -18.5t18 -44.5zM466 367l-75 -371q-17 -86 -65 -130t-138 -72l-16 41q63 27 89 62.5t42 114.5l68 342q6 27 6 38q0 26 -18.5 37.5t-59.5 11.5l7 31q48 24 100 24q67 0 67 -73q0 -18 -7 -56zM518 644q0 -26 -18 -44.5t-44 -18.5t-44 18.5t-18 44.5
t18 44.5t44 18.5t44 -18.5t18 -44.5z" />
    <glyph glyph-name="Jcircumflex" unicode="&#x134;" horiz-adv-x="336" 
d="M282 578l-92 -470q-23 -118 -75 -172.5t-165 -82.5l-17 37q79 32 109.5 76t48.5 134l93 478q4 26 4 32q0 24 -15 33t-54 11l6 35h258l-6 -35q-50 -1 -68.5 -16.5t-26.5 -59.5zM401 724l-120 85l-156 -85l-21 30l192 153l129 -155z" />
    <glyph glyph-name="jcircumflex" unicode="&#x135;" horiz-adv-x="265" 
d="M218 367l-75 -371q-17 -86 -65 -130t-138 -72l-16 41q63 27 89 62.5t42 114.5l68 342q6 27 6 38q0 26 -18.5 37.5t-59.5 11.5l7 31q48 24 100 24q67 0 67 -73q0 -18 -7 -56zM311 564l-120 85l-156 -85l-21 30l192 153l129 -155z" />
    <glyph glyph-name="Kcommaaccent" unicode="&#x136;" horiz-adv-x="622" 
d="M510 547l-166 -162l149 -301q13 -26 32 -36t59 -13l-6 -35h-154l-171 364l212 212q34 34 34 53q0 23 -48 25l6 35h212l-6 -35q-35 -5 -62 -24.5t-91 -82.5zM278 578l-91 -467q-4 -22 -4 -32q0 -24 15 -33t54 -11l-6 -35h-258l6 35q50 1 68.5 16.5t26.5 59.5l91 467
q4 22 4 32q0 24 -15 33t-54 11l6 35h258l-6 -35q-50 -1 -68.5 -16.5t-26.5 -59.5zM349 -141q0 -48 -33 -85.5t-94 -49.5l-19 27q38 12 52.5 25.5t14.5 32.5q0 16 -27 26q-31 13 -31 48q0 23 18 39t47 16q34 0 53 -21.5t19 -57.5z" />
    <glyph glyph-name="kcommaaccent" unicode="&#x137;" horiz-adv-x="487" 
d="M244 561l-123 -561h-91l126 587q4 19 4 35q0 28 -16 39t-53 13l7 30l143 26h13q6 -18 6 -47q0 -51 -16 -122zM267 87l-76 182l215 222h101l-9 -43q-36 0 -71 -22t-85 -71l-66 -63l82 -189q13 -29 25.5 -40t40.5 -11q14 0 35 3l3 -31q-52 -30 -94 -30q-35 0 -57 20.5
t-44 72.5zM268 -141q0 -48 -33 -85.5t-94 -49.5l-19 27q38 12 52.5 25.5t14.5 32.5q0 16 -27 26q-31 13 -31 48q0 23 18 39t47 16q34 0 53 -21.5t19 -57.5z" />
    <glyph glyph-name="kgreenlandic" unicode="&#x138;" horiz-adv-x="497" 
d="M40 0l77 354q5 23 5 37q0 27 -17.5 38.5t-59.5 11.5l7 31q48 24 100 24q66 0 66 -72q0 -26 -7 -57l-80 -367h-91zM277 87l-76 182l215 222h101l-9 -43q-36 0 -71 -22t-85 -71l-66 -63l82 -189q13 -29 25.5 -40t40.5 -11q14 0 35 3l3 -31q-52 -30 -94 -30q-35 0 -57 20.5
t-44 72.5z" />
    <glyph glyph-name="Lacute" unicode="&#x139;" horiz-adv-x="532" 
d="M175 49h141q54 0 82.5 25.5t56.5 94.5h44l-47 -169h-464l6 35q50 1 68.5 16.5t26.5 59.5l91 467q4 22 4 32q0 24 -15 33t-54 11l6 35h263l-6 -35q-52 -1 -72 -18t-29 -61zM176 727l-20 34l191 128l43 -92z" />
    <glyph glyph-name="lacute" unicode="&#x13a;" horiz-adv-x="266" 
d="M240 561l-94 -439q-6 -30 -6 -41q0 -18 9.5 -25.5t33.5 -7.5q16 0 40 3l3 -31q-62 -29 -110 -29q-70 0 -70 76q0 23 6 55l100 465q4 19 4 36q0 27 -16 38t-53 13l7 30l143 26h13q6 -18 6 -47q0 -51 -16 -122zM149 758l-20 34l191 128l43 -92z" />
    <glyph glyph-name="Lcommaaccent" unicode="&#x13b;" horiz-adv-x="532" 
d="M175 49h141q54 0 82.5 25.5t56.5 94.5h44l-47 -169h-464l6 35q50 1 68.5 16.5t26.5 59.5l91 467q4 22 4 32q0 24 -15 33t-54 11l6 35h263l-6 -35q-52 -1 -72 -18t-29 -61zM216 -141q0 -48 -33 -85.5t-94 -49.5l-19 27q38 12 52.5 25.5t14.5 32.5q0 16 -27 26
q-31 13 -31 48q0 23 18 39t47 16q34 0 53 -21.5t19 -57.5z" />
    <glyph glyph-name="lcommaaccent" unicode="&#x13c;" horiz-adv-x="266" 
d="M240 561l-94 -439q-6 -30 -6 -41q0 -18 9.5 -25.5t33.5 -7.5q16 0 40 3l3 -31q-62 -29 -110 -29q-70 0 -70 76q0 23 6 55l100 465q4 19 4 36q0 27 -16 38t-53 13l7 30l143 26h13q6 -18 6 -47q0 -51 -16 -122zM145 -141q0 -48 -33 -85.5t-94 -49.5l-19 27q38 12 52.5 25.5
t14.5 32.5q0 16 -27 26q-31 13 -31 48q0 23 18 39t47 16q34 0 53 -21.5t19 -57.5z" />
    <glyph glyph-name="Lcaron" unicode="&#x13d;" horiz-adv-x="532" 
d="M564 715l-83 -188l-43 11l36 192zM175 49h141q54 0 82.5 25.5t56.5 94.5h44l-47 -169h-464l6 35q50 1 68.5 16.5t26.5 59.5l91 467q4 22 4 32q0 24 -15 33t-54 11l6 35h263l-6 -35q-52 -1 -72 -18t-29 -61z" />
    <glyph glyph-name="lcaron" unicode="&#x13e;" horiz-adv-x="266" 
d="M416 715l-83 -188l-43 11l36 192zM240 561l-94 -439q-6 -30 -6 -41q0 -18 9.5 -25.5t33.5 -7.5q16 0 40 3l3 -31q-62 -29 -110 -29q-70 0 -70 76q0 23 6 55l100 465q4 19 4 36q0 27 -16 38t-53 13l7 30l143 26h13q6 -18 6 -47q0 -51 -16 -122z" />
    <glyph glyph-name="Ldot" unicode="&#x13f;" horiz-adv-x="532" 
d="M175 49h141q54 0 82.5 25.5t56.5 94.5h44l-47 -169h-464l6 35q50 1 68.5 16.5t26.5 59.5l91 467q4 22 4 32q0 24 -15 33t-54 11l6 35h263l-6 -35q-52 -1 -72 -18t-29 -61zM548 369q0 -31 -20 -52t-51 -21t-51 21t-20 52t20 52t51 21t51 -21t20 -52z" />
    <glyph glyph-name="ldot" unicode="&#x140;" horiz-adv-x="366" 
d="M240 561l-94 -439q-6 -30 -6 -41q0 -18 9.5 -25.5t33.5 -7.5q16 0 40 3l3 -31q-62 -29 -110 -29q-70 0 -70 76q0 23 6 55l100 465q4 19 4 36q0 27 -16 38t-53 13l7 30l143 26h13q6 -18 6 -47q0 -51 -16 -122zM386 347q0 -27 -18 -45.5t-44 -18.5q-27 0 -44.5 18.5
t-17.5 45.5t17.5 45.5t44.5 18.5q26 0 44 -18.5t18 -45.5z" />
    <glyph glyph-name="Lslash" unicode="&#x141;" horiz-adv-x="532" 
d="M133 336l47 242q4 22 4 32q0 24 -15 33t-54 11l6 35h263l-6 -35q-53 -1 -73 -17.5t-28 -60.5l-40 -207l205 65l-10 -57l-206 -65l-51 -263h141q54 0 82.5 25.5t56.5 94.5h44l-47 -169h-464l6 35q50 1 68.5 16.5t26.5 59.5l33 168l-85 -26l10 56z" />
    <glyph glyph-name="lslash" unicode="&#x142;" horiz-adv-x="266" 
d="M240 561l-30 -138l79 38l-11 -52l-79 -37l-53 -250q-6 -34 -6 -41q0 -18 9.5 -25.5t33.5 -7.5q16 0 40 3l3 -31q-62 -29 -110 -29q-70 0 -70 76q0 23 6 55l43 200l-73 -34l11 51l73 35l46 213q4 19 4 35q0 28 -16 39t-53 13l7 30l143 26h13q6 -18 6 -47q0 -51 -16 -122z
" />
    <glyph glyph-name="Nacute" unicode="&#x143;" horiz-adv-x="669" 
d="M526 0h-65l-171 408q-46 111 -51 170h-6q-6 -92 -24 -184l-55 -283q-4 -17 -4 -32q0 -24 15 -33t54 -11l-6 -35h-225l6 35q50 1 68.5 16.5t26.5 59.5l91 467q4 22 4 32q0 24 -15 33t-54 11l6 35h156l174 -418q36 -87 40 -144h6q5 84 28 206l48 245q4 22 4 32q0 24 -15 33
t-54 11l6 35h217l-6 -35q-45 -1 -62 -16.5t-25 -59.5zM352 727l-20 34l191 128l43 -92z" />
    <glyph glyph-name="nacute" unicode="&#x144;" horiz-adv-x="541" 
d="M340 122l50 240q5 23 5 36q0 36 -33 36q-42 0 -89 -49.5t-84 -111.5l-58 -273h-91l75 354q5 25 5 39q0 26 -16.5 37t-57.5 11l7 31q48 24 98 24q59 0 59 -80q0 -28 -7 -59q95 148 199 148q44 0 65.5 -25t21.5 -67q0 -17 -5 -42l-53 -249q-6 -28 -6 -40q0 -18 9.5 -26
t32.5 -8q15 0 36 3l3 -31q-64 -29 -102 -29q-71 0 -71 74q0 20 7 57zM247 566l-20 34l179 153l53 -91z" />
    <glyph glyph-name="Ncommaaccent" unicode="&#x145;" horiz-adv-x="669" 
d="M526 0h-65l-171 408q-46 111 -51 170h-6q-6 -92 -24 -184l-55 -283q-4 -17 -4 -32q0 -24 15 -33t54 -11l-6 -35h-225l6 35q50 1 68.5 16.5t26.5 59.5l91 467q4 22 4 32q0 24 -15 33t-54 11l6 35h156l174 -418q36 -87 40 -144h6q5 84 28 206l48 245q4 22 4 32q0 24 -15 33
t-54 11l6 35h217l-6 -35q-45 -1 -62 -16.5t-25 -59.5zM372 -141q0 -48 -33 -85.5t-94 -49.5l-19 27q38 12 52.5 25.5t14.5 32.5q0 16 -27 26q-31 13 -31 48q0 23 18 39t47 16q34 0 53 -21.5t19 -57.5z" />
    <glyph glyph-name="ncommaaccent" unicode="&#x146;" horiz-adv-x="541" 
d="M340 122l50 240q5 23 5 36q0 36 -33 36q-42 0 -89 -49.5t-84 -111.5l-58 -273h-91l75 354q5 25 5 39q0 26 -16.5 37t-57.5 11l7 31q48 24 98 24q59 0 59 -80q0 -28 -7 -59q95 148 199 148q44 0 65.5 -25t21.5 -67q0 -17 -5 -42l-53 -249q-6 -28 -6 -40q0 -18 9.5 -26
t32.5 -8q15 0 36 3l3 -31q-64 -29 -102 -29q-71 0 -71 74q0 20 7 57zM301 -141q0 -48 -33 -85.5t-94 -49.5l-19 27q38 12 52.5 25.5t14.5 32.5q0 16 -27 26q-31 13 -31 48q0 23 18 39t47 16q34 0 53 -21.5t19 -57.5z" />
    <glyph glyph-name="Ncaron" unicode="&#x147;" horiz-adv-x="669" 
d="M526 0h-65l-171 408q-46 111 -51 170h-6q-6 -92 -24 -184l-55 -283q-4 -17 -4 -32q0 -24 15 -33t54 -11l-6 -35h-225l6 35q50 1 68.5 16.5t26.5 59.5l91 467q4 22 4 32q0 24 -15 33t-54 11l6 35h156l174 -418q36 -87 40 -144h6q5 84 28 206l48 245q4 22 4 32q0 24 -15 33
t-54 11l6 35h217l-6 -35q-45 -1 -62 -16.5t-25 -59.5zM299 907l120 -85l156 85l21 -30l-192 -153l-129 155z" />
    <glyph glyph-name="ncaron" unicode="&#x148;" horiz-adv-x="541" 
d="M340 122l50 240q5 23 5 36q0 36 -33 36q-42 0 -89 -49.5t-84 -111.5l-58 -273h-91l75 354q5 25 5 39q0 26 -16.5 37t-57.5 11l7 31q48 24 98 24q59 0 59 -80q0 -28 -7 -59q95 148 199 148q44 0 65.5 -25t21.5 -67q0 -17 -5 -42l-53 -249q-6 -28 -6 -40q0 -18 9.5 -26
t32.5 -8q15 0 36 3l3 -31q-64 -29 -102 -29q-71 0 -71 74q0 20 7 57zM193 730l120 -85l156 85l21 -30l-192 -153l-129 155z" />
    <glyph glyph-name="napostrophe" unicode="&#x149;" horiz-adv-x="541" 
d="M89 626q0 -59 -43 -101.5t-104 -59.5l-16 29q89 34 89 75q0 5 -1 9t-4.5 6.5l-5.5 4t-8 4t-8 3.5q-29 13 -29 49q0 28 16.5 44t43.5 16q31 0 50.5 -22t19.5 -57zM340 122l50 240q5 23 5 36q0 36 -33 36q-42 0 -89 -49.5t-84 -111.5l-58 -273h-91l75 354q5 25 5 39
q0 26 -16.5 37t-57.5 11l7 31q48 24 98 24q59 0 59 -80q0 -28 -7 -59q95 148 199 148q44 0 65.5 -25t21.5 -67q0 -17 -5 -42l-53 -249q-6 -28 -6 -40q0 -18 9.5 -26t32.5 -8q15 0 36 3l3 -31q-64 -29 -102 -29q-71 0 -71 74q0 20 7 57z" />
    <glyph glyph-name="Eng" unicode="&#x14a;" horiz-adv-x="684" 
d="M638 578l-106 -549q-19 -97 -68 -140t-143 -66l-17 36q61 28 95.5 63.5t48.5 105.5l-158 380q-46 111 -51 170h-6q-6 -92 -24 -184l-55 -283q-4 -17 -4 -32q0 -24 15 -33t54 -11l-6 -35h-225l6 35q50 1 68.5 16.5t26.5 59.5l91 467q4 22 4 32q0 24 -15 33t-54 11l6 35
h156l174 -418q36 -87 40 -144h6q5 84 28 206l48 245q4 22 4 32q0 24 -15 33t-54 11l6 35h217l-6 -35q-45 -1 -62 -16.5t-25 -59.5z" />
    <glyph glyph-name="eng" unicode="&#x14b;" horiz-adv-x="530" 
d="M448 184l-33 -171q-18 -94 -67 -142.5t-139 -76.5l-16 41q64 31 90.5 66.5t41.5 116.5l65 344q5 23 5 36q0 36 -33 36q-42 0 -89 -49.5t-84 -111.5l-58 -273h-91l75 354q5 25 5 39q0 26 -16.5 37t-57.5 11l7 31q48 24 98 24q59 0 59 -80q0 -28 -7 -59q95 148 199 148
q44 0 65.5 -25t21.5 -67q0 -17 -5 -42z" />
    <glyph glyph-name="Omacron" unicode="&#x14c;" horiz-adv-x="673" 
d="M650 438q0 -59 -11.5 -119.5t-38 -121t-65 -107t-97.5 -75.5t-130 -29q-116 0 -180.5 70t-64.5 196q0 58 12 118t39 120t66 106t98.5 75t131.5 29q111 0 175.5 -67.5t64.5 -194.5zM546 467q0 92 -32.5 138.5t-104.5 46.5q-101 0 -157 -90q-42 -65 -63.5 -161t-21.5 -182
q0 -99 33.5 -142.5t106.5 -43.5q95 0 152 91q42 67 64.5 165.5t22.5 177.5zM569 769h-281l10 57h281z" />
    <glyph glyph-name="omacron" unicode="&#x14d;" horiz-adv-x="518" 
d="M483 310q0 -133 -74 -228.5t-189 -95.5q-85 0 -135 53t-50 139q0 137 78.5 231.5t184.5 94.5q88 0 136.5 -54.5t48.5 -139.5zM387 325q0 131 -93 131q-58 0 -102 -63q-61 -88 -61 -230q0 -129 93 -129q52 0 91 45q34 40 53 105.5t19 140.5zM449 590h-281l10 57h281z" />
    <glyph glyph-name="Obreve" unicode="&#x14e;" horiz-adv-x="673" 
d="M650 438q0 -59 -11.5 -119.5t-38 -121t-65 -107t-97.5 -75.5t-130 -29q-116 0 -180.5 70t-64.5 196q0 58 12 118t39 120t66 106t98.5 75t131.5 29q111 0 175.5 -67.5t64.5 -194.5zM546 467q0 92 -32.5 138.5t-104.5 46.5q-101 0 -157 -90q-42 -65 -63.5 -161t-21.5 -182
q0 -99 33.5 -142.5t106.5 -43.5q95 0 152 91q42 67 64.5 165.5t22.5 177.5zM422 743q-52 0 -86.5 41t-36.5 94l33 22q34 -79 102 -79q63 0 134 79l32 -22q-29 -56 -78 -95.5t-100 -39.5z" />
    <glyph glyph-name="obreve" unicode="&#x14f;" horiz-adv-x="518" 
d="M483 310q0 -133 -74 -228.5t-189 -95.5q-85 0 -135 53t-50 139q0 137 78.5 231.5t184.5 94.5q88 0 136.5 -54.5t48.5 -139.5zM387 325q0 131 -93 131q-58 0 -102 -63q-61 -88 -61 -230q0 -129 93 -129q52 0 91 45q34 40 53 105.5t19 140.5zM317 567q-57 0 -90.5 42
t-40.5 99l35 14q17 -40 41 -58.5t62 -18.5q39 0 69 19t64 60l31 -22q-31 -60 -75 -97.5t-96 -37.5z" />
    <glyph glyph-name="Ohungarumlaut" unicode="&#x150;" horiz-adv-x="673" 
d="M650 438q0 -59 -11.5 -119.5t-38 -121t-65 -107t-97.5 -75.5t-130 -29q-116 0 -180.5 70t-64.5 196q0 58 12 118t39 120t66 106t98.5 75t131.5 29q111 0 175.5 -67.5t64.5 -194.5zM546 467q0 92 -32.5 138.5t-104.5 46.5q-101 0 -157 -90q-42 -65 -63.5 -161t-21.5 -182
q0 -99 33.5 -142.5t106.5 -43.5q95 0 152 91q42 67 64.5 165.5t22.5 177.5zM456 901l-96 -174l-42 18l52 192zM636 873l-124 -152l-37 26l84 175z" />
    <glyph glyph-name="ohungarumlaut" unicode="&#x151;" horiz-adv-x="518" 
d="M483 310q0 -133 -74 -228.5t-189 -95.5q-85 0 -135 53t-50 139q0 137 78.5 231.5t184.5 94.5q88 0 136.5 -54.5t48.5 -139.5zM387 325q0 131 -93 131q-58 0 -102 -63q-61 -88 -61 -230q0 -129 93 -129q52 0 91 45q34 40 53 105.5t19 140.5zM384 770l-113 -207l-42 18
l70 225zM568 740l-145 -183l-37 26l104 208z" />
    <glyph glyph-name="OE" unicode="&#x152;" horiz-adv-x="907" 
d="M818 0h-468q-135 0 -210.5 63.5t-75.5 198.5q0 117 45.5 212.5t139 155t220.5 59.5h460l-19 -150h-42q-5 60 -19.5 80.5t-56.5 20.5h-163l-50 -256h89q47 0 68 14.5t32 56.5h41l-37 -190h-41q2 16 2 21q0 28 -16.5 39t-56.5 11h-90l-56 -287h164q57 0 82 23t45 93h45z
M416 49l115 591h-61q-78 0 -128.5 -21t-87.5 -70q-89 -116 -89 -287q0 -108 44.5 -160.5t153.5 -52.5h53z" />
    <glyph glyph-name="oe" unicode="&#x153;" horiz-adv-x="813" 
d="M465 171q0 -61 27.5 -94.5t75.5 -33.5q75 0 149 69l26 -35q-80 -91 -204 -91q-109 0 -141 85q-68 -85 -178 -85q-85 0 -135 53t-50 139q0 137 78.5 231.5t184.5 94.5q58 0 100 -27.5t63 -73.5q76 101 191 101q67 0 106.5 -32.5t39.5 -91.5q0 -74 -80 -118t-229 -44h-22
q-2 -15 -2 -47zM387 325q0 131 -93 131q-58 0 -102 -63q-61 -88 -61 -230q0 -129 93 -129q52 0 91 45q34 40 53 105.5t19 140.5zM706 386q0 30 -16.5 50t-43.5 20q-59 0 -105.5 -55t-65.5 -137h27q204 0 204 122z" />
    <glyph glyph-name="Racute" unicode="&#x154;" horiz-adv-x="612" 
d="M290 640l-54 -278h76q166 0 166 164q0 63 -31 88.5t-98 25.5h-59zM228 319l-41 -208q-4 -22 -4 -32q0 -24 15 -33t54 -11l-6 -35h-258l6 35q50 1 68.5 16.5t26.5 59.5l91 467q4 20 4 32q0 24 -15 33t-54 11l6 35h252q206 0 206 -152q0 -105 -65 -157.5t-175 -52.5v-4
q64 -17 93 -65q8 -15 18.5 -40t24.5 -63.5l23 -61.5q12 -31 26 -44t49 -14l-6 -35h-142q-54 171 -83 239q-20 47 -43.5 62.5t-70.5 17.5zM292 727l-20 34l191 128l43 -92z" />
    <glyph glyph-name="racute" unicode="&#x155;" horiz-adv-x="360" 
d="M204 358q29 63 68.5 105t79.5 42q15 0 28 -5l-21 -102q-12 5 -30 5q-53 0 -93 -47t-59 -138l-46 -218h-91l75 354q5 25 5 39q0 26 -16.5 37t-57.5 11l7 31q48 24 98 24q57 0 57 -85q0 -26 -4 -53zM173 566l-20 34l179 153l53 -91z" />
    <glyph glyph-name="Rcommaaccent" unicode="&#x156;" horiz-adv-x="612" 
d="M290 640l-54 -278h76q166 0 166 164q0 63 -31 88.5t-98 25.5h-59zM228 319l-41 -208q-4 -22 -4 -32q0 -24 15 -33t54 -11l-6 -35h-258l6 35q50 1 68.5 16.5t26.5 59.5l91 467q4 20 4 32q0 24 -15 33t-54 11l6 35h252q206 0 206 -152q0 -105 -65 -157.5t-175 -52.5v-4
q64 -17 93 -65q8 -15 18.5 -40t24.5 -63.5l23 -61.5q12 -31 26 -44t49 -14l-6 -35h-142q-54 171 -83 239q-20 47 -43.5 62.5t-70.5 17.5zM348 -141q0 -48 -33 -85.5t-94 -49.5l-19 27q38 12 52.5 25.5t14.5 32.5q0 16 -27 26q-31 13 -31 48q0 23 18 39t47 16q34 0 53 -21.5
t19 -57.5z" />
    <glyph glyph-name="rcommaaccent" unicode="&#x157;" horiz-adv-x="360" 
d="M204 358q29 63 68.5 105t79.5 42q15 0 28 -5l-21 -102q-12 5 -30 5q-53 0 -93 -47t-59 -138l-46 -218h-91l75 354q5 25 5 39q0 26 -16.5 37t-57.5 11l7 31q48 24 98 24q57 0 57 -85q0 -26 -4 -53zM131 -141q0 -48 -33 -85.5t-94 -49.5l-19 27q38 12 52.5 25.5t14.5 32.5
q0 16 -27 26q-31 13 -31 48q0 23 18 39t47 16q34 0 53 -21.5t19 -57.5z" />
    <glyph glyph-name="Rcaron" unicode="&#x158;" horiz-adv-x="612" 
d="M290 640l-54 -278h76q166 0 166 164q0 63 -31 88.5t-98 25.5h-59zM228 319l-41 -208q-4 -22 -4 -32q0 -24 15 -33t54 -11l-6 -35h-258l6 35q50 1 68.5 16.5t26.5 59.5l91 467q4 20 4 32q0 24 -15 33t-54 11l6 35h252q206 0 206 -152q0 -105 -65 -157.5t-175 -52.5v-4
q64 -17 93 -65q8 -15 18.5 -40t24.5 -63.5l23 -61.5q12 -31 26 -44t49 -14l-6 -35h-142q-54 171 -83 239q-20 47 -43.5 62.5t-70.5 17.5zM254 907l120 -85l156 85l21 -30l-192 -153l-129 155z" />
    <glyph glyph-name="rcaron" unicode="&#x159;" horiz-adv-x="360" 
d="M204 358q29 63 68.5 105t79.5 42q15 0 28 -5l-21 -102q-12 5 -30 5q-53 0 -93 -47t-59 -138l-46 -218h-91l75 354q5 25 5 39q0 26 -16.5 37t-57.5 11l7 31q48 24 98 24q57 0 57 -85q0 -26 -4 -53zM120 730l120 -85l156 85l21 -30l-192 -153l-129 155z" />
    <glyph glyph-name="Sacute" unicode="&#x15a;" horiz-adv-x="503" 
d="M215 33q70 0 109.5 37t39.5 100q0 87 -93 134l-59 31q-54 28 -82 67t-28 99q0 89 63 144t159 55q122 0 181 -57l-19 -108h-61q0 118 -111 118q-60 0 -94 -33.5t-34 -88.5q0 -45 21 -71t66 -50l59 -31q57 -30 89 -70t32 -105q0 -99 -63.5 -158.5t-183.5 -59.5
q-133 0 -202 60l23 125h64q0 -74 26.5 -106t97.5 -32zM251 727l-20 34l191 128l43 -92z" />
    <glyph glyph-name="sacute" unicode="&#x15b;" horiz-adv-x="423" 
d="M167 -14q-99 0 -162 45l17 98h63v-12q0 -46 20 -65.5t70 -19.5q48 0 79.5 22t31.5 68q0 33 -17.5 50.5t-56.5 34.5l-51 22q-47 20 -72 50t-25 79q0 69 54.5 108t133.5 39q85 0 141 -38l-15 -90h-61q-2 41 -21 61.5t-64 20.5q-40 0 -63 -20.5t-23 -57.5q0 -25 12.5 -42
t45.5 -31l51 -22q59 -25 87 -56.5t28 -81.5q0 -71 -57 -116.5t-146 -45.5zM183 566l-20 34l179 153l53 -91z" />
    <glyph glyph-name="Scircumflex" unicode="&#x15c;" horiz-adv-x="503" 
d="M215 33q70 0 109.5 37t39.5 100q0 87 -93 134l-59 31q-54 28 -82 67t-28 99q0 89 63 144t159 55q122 0 181 -57l-19 -108h-61q0 118 -111 118q-60 0 -94 -33.5t-34 -88.5q0 -45 21 -71t66 -50l59 -31q57 -30 89 -70t32 -105q0 -99 -63.5 -158.5t-183.5 -59.5
q-133 0 -202 60l23 125h64q0 -74 26.5 -106t97.5 -32zM467 724l-120 85l-156 -85l-21 30l192 153l129 -155z" />
    <glyph glyph-name="scircumflex" unicode="&#x15d;" horiz-adv-x="423" 
d="M167 -14q-99 0 -162 45l17 98h63v-12q0 -46 20 -65.5t70 -19.5q48 0 79.5 22t31.5 68q0 33 -17.5 50.5t-56.5 34.5l-51 22q-47 20 -72 50t-25 79q0 69 54.5 108t133.5 39q85 0 141 -38l-15 -90h-61q-2 41 -21 61.5t-64 20.5q-40 0 -63 -20.5t-23 -57.5q0 -25 12.5 -42
t45.5 -31l51 -22q59 -25 87 -56.5t28 -81.5q0 -71 -57 -116.5t-146 -45.5zM395 564l-120 85l-156 -85l-21 30l192 153l129 -155z" />
    <glyph glyph-name="Scedilla" unicode="&#x15e;" horiz-adv-x="503" 
d="M273 -113q0 -85 -99 -85q-44 0 -81 25l16 32q28 -18 62 -18q40 0 40 36q0 31 -74 33l1 21l23 57q-104 10 -157 58l23 125h64q0 -74 26.5 -106t97.5 -32q70 0 109.5 37t39.5 100q0 87 -93 134l-59 31q-54 28 -82 67t-28 99q0 89 63 144t159 55q122 0 181 -57l-19 -108h-61
q0 118 -111 118q-60 0 -94 -33.5t-34 -88.5q0 -45 21 -71t66 -50l59 -31q57 -30 89 -70t32 -105q0 -99 -63.5 -158.5t-183.5 -59.5h-6l-10 -25q42 -4 62.5 -24.5t20.5 -49.5z" />
    <glyph glyph-name="scedilla" unicode="&#x15f;" horiz-adv-x="423" 
d="M241 -113q0 -85 -99 -85q-44 0 -81 25l16 32q28 -18 62 -18q40 0 40 36q0 31 -74 33l1 21l23 57q-74 7 -124 43l17 98h63v-12q0 -46 20 -65.5t70 -19.5q48 0 79.5 22t31.5 68q0 33 -17.5 50.5t-56.5 34.5l-51 22q-47 20 -72 50t-25 79q0 69 54.5 108t133.5 39
q85 0 141 -38l-15 -90h-61q-2 41 -21 61.5t-64 20.5q-40 0 -63 -20.5t-23 -57.5q0 -25 12.5 -42t45.5 -31l51 -22q59 -25 87 -56.5t28 -81.5q0 -71 -57 -116t-145 -46l-10 -25q42 -4 62.5 -24.5t20.5 -49.5z" />
    <glyph glyph-name="Scaron" unicode="&#x160;" horiz-adv-x="503" 
d="M215 33q70 0 109.5 37t39.5 100q0 87 -93 134l-59 31q-54 28 -82 67t-28 99q0 89 63 144t159 55q122 0 181 -57l-19 -108h-61q0 118 -111 118q-60 0 -94 -33.5t-34 -88.5q0 -45 21 -71t66 -50l59 -31q57 -30 89 -70t32 -105q0 -99 -63.5 -158.5t-183.5 -59.5
q-133 0 -202 60l23 125h64q0 -74 26.5 -106t97.5 -32zM224 907l120 -85l156 85l21 -30l-192 -153l-129 155z" />
    <glyph glyph-name="scaron" unicode="&#x161;" horiz-adv-x="423" 
d="M167 -14q-99 0 -162 45l17 98h63v-12q0 -46 20 -65.5t70 -19.5q48 0 79.5 22t31.5 68q0 33 -17.5 50.5t-56.5 34.5l-51 22q-47 20 -72 50t-25 79q0 69 54.5 108t133.5 39q85 0 141 -38l-15 -90h-61q-2 41 -21 61.5t-64 20.5q-40 0 -63 -20.5t-23 -57.5q0 -25 12.5 -42
t45.5 -31l51 -22q59 -25 87 -56.5t28 -81.5q0 -71 -57 -116.5t-146 -45.5zM147 730l120 -85l156 85l21 -30l-192 -153l-129 155z" />
    <glyph glyph-name="Tcommaaccent" unicode="&#x162;" horiz-adv-x="569" 
d="M322 -113q0 -85 -99 -85q-44 0 -81 25l16 32q28 -18 62 -18q40 0 40 36q0 31 -74 33l1 21l29 69h-106l7 35q52 1 71.5 16.5t27.5 59.5l103 529h-75q-48 0 -68.5 -22t-39.5 -86h-48l30 157h508l-32 -157h-46q2 30 2 39q0 39 -12.5 54t-47.5 15h-73l-103 -529
q-4 -21 -4 -31q0 -24 16.5 -33.5t58.5 -11.5l-7 -35h-123l-16 -39q42 -4 62.5 -24.5t20.5 -49.5z" />
    <glyph glyph-name="tcommaaccent" unicode="&#x163;" horiz-adv-x="319" 
d="M206 -113q0 -85 -99 -85q-44 0 -81 25l16 32q28 -18 62 -18q40 0 40 36q0 31 -74 33l1 21l26 64q-47 19 -47 82q0 23 6 50l65 309h-59l6 32l71 23q38 99 75 142l52 8q-26 -70 -42 -150h119l-25 -55h-106l-64 -302q-6 -30 -6 -49q0 -26 13 -36.5t42 -10.5q24 0 60 13
l8 -33q-64 -32 -113 -32q-13 0 -19 1l-10 -26q42 -4 62.5 -24.5t20.5 -49.5z" />
    <glyph glyph-name="Tcaron" unicode="&#x164;" horiz-adv-x="569" 
d="M118 689h508l-32 -157h-46q2 30 2 39q0 39 -12.5 54t-47.5 15h-73l-103 -529q-4 -21 -4 -31q0 -24 16.5 -33.5t58.5 -11.5l-7 -35h-268l7 35q52 1 71.5 16.5t27.5 59.5l103 529h-75q-48 0 -68.5 -22t-39.5 -86h-48zM257 907l120 -85l156 85l21 -30l-192 -153l-129 155z
" />
    <glyph glyph-name="tcaron" unicode="&#x165;" horiz-adv-x="319" 
d="M419 715l-83 -188l-43 11l36 192zM343 491l-25 -55h-106l-64 -302q-6 -30 -6 -49q0 -26 13 -36.5t42 -10.5q24 0 60 13l8 -33q-64 -32 -113 -32q-102 0 -102 91q0 23 6 50l65 309h-59l6 32l71 23q38 99 75 142l52 8q-26 -70 -42 -150h119z" />
    <glyph glyph-name="Tbar" unicode="&#x166;" horiz-adv-x="569" 
d="M118 689h508l-32 -157h-46q2 30 2 40q0 39 -12.5 53.5t-47.5 14.5h-73l-50 -257h128l-10 -46h-127l-44 -226q-8 -43 5.5 -59t65.5 -17l-7 -35h-268l7 35q52 1 71.5 16.5t27.5 59.5l44 226h-118l10 46h117l50 257h-75q-48 0 -68.5 -22t-39.5 -86h-48z" />
    <glyph glyph-name="tbar" unicode="&#x167;" horiz-adv-x="319" 
d="M343 491l-25 -55h-106l-20 -91h116l-10 -41h-114l-36 -170q-6 -30 -6 -49q0 -26 13 -36.5t42 -10.5q24 0 60 13l8 -33q-64 -32 -113 -32q-102 0 -102 91q0 23 6 50l37 177h-63l10 41h61l20 91h-59l6 32l71 23q38 99 75 142l52 8q-26 -70 -42 -150h119z" />
    <glyph glyph-name="Utilde" unicode="&#x168;" horiz-adv-x="670" 
d="M317 46q150 0 184 175l69 357q4 24 4 32q0 23 -16 33t-58 11l6 35h226l-6 -35q-45 -1 -62 -16.5t-25 -59.5l-69 -357q-24 -122 -87.5 -178.5t-168.5 -56.5q-112 0 -166 43.5t-54 122.5q0 39 9 87l65 339q3 16 3 29q0 26 -15 35.5t-53 11.5l6 35h258l-6 -35
q-51 -1 -68.5 -16.5t-26.5 -59.5l-67 -342q-9 -45 -9 -81q0 -57 30.5 -83t96.5 -26zM520 818q45 0 73 45l36 -14q-32 -95 -109 -95q-38 0 -79 22t-59 22q-26 0 -41 -11.5t-30 -35.5l-34 13q25 100 105 100q35 0 75.5 -23t62.5 -23z" />
    <glyph glyph-name="utilde" unicode="&#x169;" horiz-adv-x="537" 
d="M329 126q-91 -140 -193 -140q-44 0 -65.5 25t-21.5 67q0 17 5 42l50 234q5 25 5 39q0 26 -16.5 37t-57.5 11l7 31q48 24 98 24q29 0 46 -21.5t17 -62.5q0 -19 -7 -56l-48 -227q-5 -23 -5 -36q0 -36 33 -36q42 0 89 49.5t84 111.5l58 273h90l-77 -369q-5 -22 -5 -33
q0 -40 49 -40q6 0 28 2l3 -31q-55 -29 -101 -29q-35 0 -53 22.5t-18 61.5q0 24 6 51zM376 669q43 0 66 42l35 -15q-13 -43 -38.5 -72t-62.5 -29q-29 0 -68.5 14.5t-55.5 14.5q-40 0 -64 -44l-33 14q10 46 34.5 76t62.5 30q29 0 67 -15.5t57 -15.5z" />
    <glyph glyph-name="Umacron" unicode="&#x16a;" horiz-adv-x="670" 
d="M317 46q150 0 184 175l69 357q4 24 4 32q0 23 -16 33t-58 11l6 35h226l-6 -35q-45 -1 -62 -16.5t-25 -59.5l-69 -357q-24 -122 -87.5 -178.5t-168.5 -56.5q-112 0 -166 43.5t-54 122.5q0 39 9 87l65 339q3 16 3 29q0 26 -15 35.5t-53 11.5l6 35h258l-6 -35
q-51 -1 -68.5 -16.5t-26.5 -59.5l-67 -342q-9 -45 -9 -81q0 -57 30.5 -83t96.5 -26zM587 769h-281l10 57h281z" />
    <glyph glyph-name="umacron" unicode="&#x16b;" horiz-adv-x="537" 
d="M329 126q-91 -140 -193 -140q-44 0 -65.5 25t-21.5 67q0 17 5 42l50 234q5 25 5 39q0 26 -16.5 37t-57.5 11l7 31q48 24 98 24q29 0 46 -21.5t17 -62.5q0 -19 -7 -56l-48 -227q-5 -23 -5 -36q0 -36 33 -36q42 0 89 49.5t84 111.5l58 273h90l-77 -369q-5 -22 -5 -33
q0 -40 49 -40q6 0 28 2l3 -31q-55 -29 -101 -29q-35 0 -53 22.5t-18 61.5q0 24 6 51zM450 590h-281l10 57h281z" />
    <glyph glyph-name="Ubreve" unicode="&#x16c;" horiz-adv-x="670" 
d="M317 46q150 0 184 175l69 357q4 24 4 32q0 23 -16 33t-58 11l6 35h226l-6 -35q-45 -1 -62 -16.5t-25 -59.5l-69 -357q-24 -122 -87.5 -178.5t-168.5 -56.5q-112 0 -166 43.5t-54 122.5q0 39 9 87l65 339q3 16 3 29q0 26 -15 35.5t-53 11.5l6 35h258l-6 -35
q-51 -1 -68.5 -16.5t-26.5 -59.5l-67 -342q-9 -45 -9 -81q0 -57 30.5 -83t96.5 -26zM429 743q-52 0 -86.5 41t-36.5 94l33 22q34 -79 102 -79q63 0 134 79l32 -22q-29 -56 -78 -95.5t-100 -39.5z" />
    <glyph glyph-name="ubreve" unicode="&#x16d;" horiz-adv-x="537" 
d="M329 126q-91 -140 -193 -140q-44 0 -65.5 25t-21.5 67q0 17 5 42l50 234q5 25 5 39q0 26 -16.5 37t-57.5 11l7 31q48 24 98 24q29 0 46 -21.5t17 -62.5q0 -19 -7 -56l-48 -227q-5 -23 -5 -36q0 -36 33 -36q42 0 89 49.5t84 111.5l58 273h90l-77 -369q-5 -22 -5 -33
q0 -40 49 -40q6 0 28 2l3 -31q-55 -29 -101 -29q-35 0 -53 22.5t-18 61.5q0 24 6 51zM311 567q-57 0 -90.5 42t-40.5 99l35 14q17 -40 41 -58.5t62 -18.5q39 0 69 19t64 60l31 -22q-31 -60 -75 -97.5t-96 -37.5z" />
    <glyph glyph-name="Uring" unicode="&#x16e;" horiz-adv-x="670" 
d="M317 46q150 0 184 175l69 357q4 24 4 32q0 23 -16 33t-58 11l6 35h226l-6 -35q-45 -1 -62 -16.5t-25 -59.5l-69 -357q-24 -122 -87.5 -178.5t-168.5 -56.5q-112 0 -166 43.5t-54 122.5q0 39 9 87l65 339q3 16 3 29q0 26 -15 35.5t-53 11.5l6 35h258l-6 -35
q-51 -1 -68.5 -16.5t-26.5 -59.5l-67 -342q-9 -45 -9 -81q0 -57 30.5 -83t96.5 -26zM440 719q-44 0 -70 27t-26 68q0 47 30.5 78t78.5 31q44 0 69.5 -27.5t25.5 -68.5q0 -48 -30 -78t-78 -30zM450 888q-29 0 -47 -20.5t-18 -51.5q0 -28 14 -44.5t40 -16.5q30 0 49 19.5
t19 48.5t-15 47t-42 18z" />
    <glyph glyph-name="uring" unicode="&#x16f;" horiz-adv-x="537" 
d="M329 126q-91 -140 -193 -140q-44 0 -65.5 25t-21.5 67q0 17 5 42l50 234q5 25 5 39q0 26 -16.5 37t-57.5 11l7 31q48 24 98 24q29 0 46 -21.5t17 -62.5q0 -19 -7 -56l-48 -227q-5 -23 -5 -36q0 -36 33 -36q42 0 89 49.5t84 111.5l58 273h90l-77 -369q-5 -22 -5 -33
q0 -40 49 -40q6 0 28 2l3 -31q-55 -29 -101 -29q-35 0 -53 22.5t-18 61.5q0 24 6 51zM308 560q-44 0 -70 27t-26 68q0 47 30.5 78t78.5 31q44 0 69.5 -27.5t25.5 -68.5q0 -48 -30 -78t-78 -30zM318 729q-29 0 -47 -20.5t-18 -51.5q0 -28 14 -44.5t40 -16.5q30 0 49 19.5
t19 48.5t-15 47t-42 18z" />
    <glyph glyph-name="Uhungarumlaut" unicode="&#x170;" horiz-adv-x="670" 
d="M317 46q150 0 184 175l69 357q4 24 4 32q0 23 -16 33t-58 11l6 35h226l-6 -35q-45 -1 -62 -16.5t-25 -59.5l-69 -357q-24 -122 -87.5 -178.5t-168.5 -56.5q-112 0 -166 43.5t-54 122.5q0 39 9 87l65 339q3 16 3 29q0 26 -15 35.5t-53 11.5l6 35h258l-6 -35
q-51 -1 -68.5 -16.5t-26.5 -59.5l-67 -342q-9 -45 -9 -81q0 -57 30.5 -83t96.5 -26zM481 901l-96 -174l-42 18l52 192zM661 873l-124 -152l-37 26l84 175z" />
    <glyph glyph-name="uhungarumlaut" unicode="&#x171;" horiz-adv-x="537" 
d="M329 126q-91 -140 -193 -140q-44 0 -65.5 25t-21.5 67q0 17 5 42l50 234q5 25 5 39q0 26 -16.5 37t-57.5 11l7 31q48 24 98 24q29 0 46 -21.5t17 -62.5q0 -19 -7 -56l-48 -227q-5 -23 -5 -36q0 -36 33 -36q42 0 89 49.5t84 111.5l58 273h90l-77 -369q-5 -22 -5 -33
q0 -40 49 -40q6 0 28 2l3 -31q-55 -29 -101 -29q-35 0 -53 22.5t-18 61.5q0 24 6 51zM328 770l-113 -207l-42 18l70 225zM512 740l-145 -183l-37 26l104 208z" />
    <glyph glyph-name="Uogonek" unicode="&#x172;" horiz-adv-x="670" 
d="M639 578l-69 -357q-33 -166 -146 -215q-26 -11 -43 -20t-41.5 -25t-37.5 -36.5t-13 -43.5q0 -17 11 -28.5t29 -11.5q24 0 53 17l16 -21q-40 -42 -98 -42q-45 0 -68 21t-23 53q0 67 110 117h-5q-112 0 -166 43.5t-54 122.5q0 39 9 87l65 339q3 16 3 29q0 26 -15 35.5
t-53 11.5l6 35h258l-6 -35q-51 -1 -68.5 -16.5t-26.5 -59.5l-67 -342q-9 -45 -9 -81q0 -57 30.5 -83t96.5 -26q150 0 184 175l69 357q4 24 4 32q0 23 -16 33t-58 11l6 35h226l-6 -35q-45 -1 -62 -16.5t-25 -59.5z" />
    <glyph glyph-name="uogonek" unicode="&#x173;" horiz-adv-x="537" 
d="M492 51l3 -31q-153 -63 -153 -139q0 -17 11 -28.5t29 -11.5q24 0 53 17l16 -21q-40 -42 -98 -42q-45 0 -68 21t-23 53q0 68 116 124q-55 9 -55 81q0 25 6 52q-91 -140 -193 -140q-44 0 -65.5 25t-21.5 67q0 17 5 42l50 234q5 25 5 39q0 26 -16.5 37t-57.5 11l7 31
q48 24 98 24q29 0 46 -21.5t17 -62.5q0 -19 -7 -56l-48 -227q-5 -23 -5 -36q0 -36 33 -36q42 0 89 49.5t84 111.5l58 273h90l-77 -369q-5 -22 -5 -33q0 -40 49 -40q6 0 28 2z" />
    <glyph glyph-name="Wcircumflex" unicode="&#x174;" horiz-adv-x="877" 
d="M575 689l22 -392q5 -85 5 -175h6l66 175l107 263q15 36 15 55t-15 28t-49 11l6 35h216l-6 -35q-36 -5 -57 -26.5t-42 -70.5l-236 -557h-89l-24 438q-2 40 -2 63q0 17 0.5 38t0.5 22h-6q-18 -64 -44 -123l-188 -438h-92l-18 566q-2 49 -14 66.5t-49 21.5l6 35h237l-6 -35
q-46 -4 -63.5 -17t-17.5 -49v-6l9 -284v-35q0 -73 -4 -141h6q29 84 69 176l167 391h84zM671 724l-120 85l-156 -85l-21 30l192 153l129 -155z" />
    <glyph glyph-name="wcircumflex" unicode="&#x175;" horiz-adv-x="701" 
d="M481 100h5l39 90q93 212 99 308l82 -15v-35l-231 -453h-61l-26 235q-8 77 -8 139h-3l-169 -374h-72l-43 361q-4 35 -8 50q-5 20 -20.5 27.5t-49.5 7.5l7 31q48 24 95 24q33 0 45.5 -24.5t18.5 -90.5l15 -150q6 -61 6 -116v-15h6l170 391h61l29 -241q13 -104 13 -150z
M557 564l-120 85l-156 -85l-21 30l192 153l129 -155z" />
    <glyph glyph-name="Ycircumflex" unicode="&#x176;" horiz-adv-x="589" 
d="M222 111l30 165l-86 296q-14 45 -30.5 61.5t-47.5 20.5l6 35h229l-6 -35q-61 -1 -61 -39q0 -12 7 -38l64 -236h4l155 238q21 33 21 49q0 23 -53 26l6 35h206l-6 -35q-32 -4 -55 -22t-60 -71l-192 -279l-33 -171q-8 -43 5.5 -59t65.5 -17l-7 -35h-268l7 35q52 1 71.5 17
t27.5 59zM534 724l-120 85l-156 -85l-21 30l192 153l129 -155z" />
    <glyph glyph-name="ycircumflex" unicode="&#x177;" horiz-adv-x="463" 
d="M168 1l-30 -3q-4 109 -24 239l-18 119q-8 53 -21.5 69t-60.5 16l7 31q48 24 93 24q34 0 46 -25.5t23 -105.5l17 -118q11 -73 11 -132q0 -7 -0.5 -17.5t-0.5 -12.5h6l52 97q106 198 113 316l87 -15v-35l-258 -471q-51 -92 -96 -134.5t-112 -55.5l-17 60q63 14 104.5 47
t78.5 107zM422 564l-120 85l-156 -85l-21 30l192 153l129 -155z" />
    <glyph glyph-name="Ydieresis" unicode="&#x178;" horiz-adv-x="589" 
d="M222 111l30 165l-86 296q-14 45 -30.5 61.5t-47.5 20.5l6 35h229l-6 -35q-61 -1 -61 -39q0 -12 7 -38l64 -236h4l155 238q21 33 21 49q0 23 -53 26l6 35h206l-6 -35q-32 -4 -55 -22t-60 -71l-192 -279l-33 -171q-8 -43 5.5 -59t65.5 -17l-7 -35h-268l7 35q52 1 71.5 17
t27.5 59zM368 787q0 -25 -17 -42.5t-43 -17.5t-43 17.5t-17 42.5t17 42.5t43 17.5t43 -17.5t17 -42.5zM577 787q0 -25 -17.5 -42.5t-42.5 -17.5t-42.5 17.5t-17.5 42.5t17.5 42.5t42.5 17.5t42.5 -17.5t17.5 -42.5z" />
    <glyph glyph-name="Zacute" unicode="&#x179;" horiz-adv-x="553" 
d="M585 633l-475 -584h200q57 0 89 27t61 96h44l-48 -172h-463l10 56l474 584h-182q-49 0 -80.5 -26.5t-58.5 -86.5h-44l45 162h438zM287 727l-20 34l191 128l43 -92z" />
    <glyph glyph-name="zacute" unicode="&#x17a;" horiz-adv-x="435" 
d="M453 450l-370 -365q37 0 97 -4t78 -4q65 0 106 76l31 -8q-29 -97 -51 -126.5t-66 -29.5q-39 0 -105.5 21t-97.5 21q-41 0 -60 -31h-45l6 39l360 366q-32 1 -89.5 3.5t-72.5 2.5q-30 0 -48 -17t-35 -53l-36 5q18 83 42 118t68 35q33 0 102.5 -19.5t92.5 -19.5q33 0 54 31
h46zM200 566l-20 34l179 153l53 -91z" />
    <glyph glyph-name="Zdotaccent" unicode="&#x17b;" horiz-adv-x="553" 
d="M585 633l-475 -584h200q57 0 89 27t61 96h44l-48 -172h-463l10 56l474 584h-182q-49 0 -80.5 -26.5t-58.5 -86.5h-44l45 162h438zM446 808q0 -26 -18 -44.5t-44 -18.5t-44 18.5t-18 44.5t18 44.5t44 18.5t44 -18.5t18 -44.5z" />
    <glyph glyph-name="zdotaccent" unicode="&#x17c;" horiz-adv-x="435" 
d="M453 450l-370 -365q37 0 97 -4t78 -4q65 0 106 76l31 -8q-29 -97 -51 -126.5t-66 -29.5q-39 0 -105.5 21t-97.5 21q-41 0 -60 -31h-45l6 39l360 366q-32 1 -89.5 3.5t-72.5 2.5q-30 0 -48 -17t-35 -53l-36 5q18 83 42 118t68 35q33 0 102.5 -19.5t92.5 -19.5q33 0 54 31
h46zM355 644q0 -26 -18 -44.5t-44 -18.5t-44 18.5t-18 44.5t18 44.5t44 18.5t44 -18.5t18 -44.5z" />
    <glyph glyph-name="Zcaron" unicode="&#x17d;" horiz-adv-x="553" 
d="M585 633l-475 -584h200q57 0 89 27t61 96h44l-48 -172h-463l10 56l474 584h-182q-49 0 -80.5 -26.5t-58.5 -86.5h-44l45 162h438zM250 907l120 -85l156 85l21 -30l-192 -153l-129 155z" />
    <glyph glyph-name="zcaron" unicode="&#x17e;" horiz-adv-x="435" 
d="M453 450l-370 -365q37 0 97 -4t78 -4q65 0 106 76l31 -8q-29 -97 -51 -126.5t-66 -29.5q-39 0 -105.5 21t-97.5 21q-41 0 -60 -31h-45l6 39l360 366q-32 1 -89.5 3.5t-72.5 2.5q-30 0 -48 -17t-35 -53l-36 5q18 83 42 118t68 35q33 0 102.5 -19.5t92.5 -19.5q33 0 54 31
h46zM156 730l120 -85l156 85l21 -30l-192 -153l-129 155z" />
    <glyph glyph-name="longs" unicode="&#x17f;" horiz-adv-x="303" 
d="M243 599l-124 -626q-33 -161 -153 -161q-29 0 -61 16v31q63 4 89 25.5t37 80.5l92 471h-63l6 32l66 22l16 80q15 78 66 119t124 41q55 0 95 -18l-17 -83h-61q0 58 -34 58q-29 0 -48.5 -19.5t-29.5 -68.5z" />
    <glyph glyph-name="uni018F" unicode="&#x18f;" horiz-adv-x="610" 
d="M475 445q0 86 -37 133t-110 47q-102 0 -203 -95l-27 32q122 138 266 138q217 0 217 -266q0 -80 -26 -159.5t-71.5 -144t-115 -104.5t-150.5 -40q-92 0 -145 43t-53 116q0 111 100 174.5t289 63.5q31 0 63 -2q3 21 3 64zM129 146q0 -116 95 -116q83 0 148 83.5t92 219.5
q-21 1 -39 1q-160 0 -228 -48.5t-68 -139.5z" />
    <glyph glyph-name="florin" unicode="&#x192;" horiz-adv-x="347" 
d="M55 383l10 34l75 13l29 110q41 160 187 160q69 0 109 -18l-22 -83h-63q0 30 -7 44t-27 14q-25 0 -43.5 -20.5t-33.5 -75.5l-37 -134h116l-15 -44h-113l-120 -427q-20 -71 -73.5 -113t-121.5 -42v34q42 10 65 33.5t37 73.5l120 441h-72z" />
    <glyph glyph-name="uni01B5" unicode="&#x1b5;" horiz-adv-x="553" 
d="M585 633l-204 -250h115l-10 -46h-142l-234 -288h200q57 0 89 27t61 96h44l-48 -172h-463l10 56l228 281h-124l10 46h151l209 257h-182q-49 0 -80.5 -26.5t-58.5 -86.5h-44l45 162h438z" />
    <glyph glyph-name="uni01B6" unicode="&#x1b6;" horiz-adv-x="440" 
d="M453 450l-185 -182h104v-42h-146l-143 -141q37 0 97 -4t78 -4q65 0 106 76l31 -8q-29 -97 -51 -126.5t-66 -29.5q-39 0 -105.5 21t-97.5 21q-41 0 -60 -31h-45l6 39l184 187h-101v42h142l135 137q-32 1 -89.5 3.5t-72.5 2.5q-30 0 -48 -17t-35 -53l-36 5q18 83 42 118
t68 35q33 0 102.5 -19.5t92.5 -19.5q33 0 54 31h46z" />
    <glyph glyph-name="Aringacute" unicode="&#x1fa;" horiz-adv-x="643" 
d="M428 107l-9 108h-226l-55 -108q-15 -28 -15 -44q0 -15 15 -21t47 -7l-7 -35h-215l7 35q40 6 61.5 21.5t47.5 64.5l293 568h94l57 -566q5 -46 20 -65t52 -23l-7 -35h-239l7 35q41 1 57 13.5t16 41.5q0 6 -1 17zM335 490l-117 -227h197l-20 212q-5 56 -5 97v16v10l1 4h-6
q-10 -33 -50 -112zM343 911l-20 34l191 128l43 -92zM424 710q-44 0 -70 27t-26 68q0 47 30.5 78t78.5 31q44 0 69.5 -27.5t25.5 -68.5q0 -48 -30 -78t-78 -30zM434 879q-29 0 -47 -20.5t-18 -51.5q0 -28 14 -44.5t40 -16.5q30 0 49 19.5t19 48.5t-15 47t-42 18z" />
    <glyph glyph-name="aringacute" unicode="&#x1fb;" horiz-adv-x="547" 
d="M344 505q78 0 91 -52q11 18 37 42h50q-27 -46 -48 -140l-53 -233q-5 -23 -5 -35q0 -39 45 -39q14 0 32 3l3 -31q-55 -29 -98 -29q-72 0 -72 79q0 27 7 56q-88 -138 -183 -138q-55 0 -85 36t-30 99q0 149 95 265.5t214 116.5zM338 458q-55 0 -103 -47t-76 -122.5
t-28 -159.5q0 -76 52 -76q38 0 84.5 49.5t82.5 111.5l49 207q-12 37 -61 37zM358 544q-44 0 -70 27t-26 68q0 47 30.5 78t78.5 31q44 0 69.5 -27.5t25.5 -68.5q0 -48 -30 -78t-78 -30zM368 713q-29 0 -47 -20.5t-18 -51.5q0 -28 14 -44.5t40 -16.5q30 0 49 19.5t19 48.5
t-15 47t-42 18zM297 759l-20 34l191 128l43 -92z" />
    <glyph glyph-name="AEacute" unicode="&#x1fc;" horiz-adv-x="916" 
d="M342 35q50 1 68.5 16.5t26.5 59.5l26 134h-213l-102 -138q-22 -28 -22 -45q0 -25 59 -27l-7 -35h-215l7 35q38 5 62.5 22.5t58.5 63.5l352 476q17 23 17 35q0 21 -60 22l6 35h532l-19 -150h-42q-5 60 -19.5 80.5t-56.5 20.5h-163l-50 -256h89q47 0 68 14.5t32 56.5h41
l-37 -190h-41q5 41 -10 56t-61 15h-90l-56 -287h164q57 0 82 23t45 93h45l-32 -165h-491zM546 642l-260 -349h186l38 191q18 97 42 158h-6zM593 727l-20 34l191 128l43 -92z" />
    <glyph glyph-name="aeacute" unicode="&#x1fd;" horiz-adv-x="756" 
d="M409 171q0 -61 27 -94.5t75 -33.5q75 0 149 69l26 -35q-80 -91 -204 -91q-113 0 -152 94q-67 -94 -171 -94q-66 0 -102.5 32t-36.5 96q0 160 295 160h13l7 33q9 43 9 74q0 39 -16 57t-52 18q-52 0 -78.5 -21t-38.5 -63h-63l18 94q80 39 168 39q63 0 95 -17.5t50 -58.5
q72 76 168 76q67 0 106.5 -33t39.5 -92q0 -74 -73.5 -115t-226.5 -41h-30q-2 -15 -2 -53zM183 43q40 0 70 18.5t66 60.5q-5 28 -5 57q0 26 4 49h-12q-43 0 -73.5 -4t-59.5 -15t-44 -34.5t-15 -59.5q0 -72 69 -72zM649 386q0 30 -16.5 50t-43.5 20q-60 0 -105.5 -52
t-64.5 -133q5 0 15 -0.5t14 -0.5q109 0 155 29.5t46 86.5zM407 566l-20 34l179 153l53 -91z" />
    <glyph glyph-name="Oslashacute" unicode="&#x1fe;" horiz-adv-x="673" 
d="M650 438q0 -59 -11.5 -119.5t-38 -121t-65 -107t-97.5 -75.5t-130 -29q-103 0 -166 55l-65 -85l-36 27l71 92q-49 67 -49 177q0 58 12 118t39 120t66 106t98.5 75t131.5 29q86 0 147 -43l60 79l40 -29l-65 -83q58 -69 58 -186zM546 467q0 49 -9 85l-350 -454
q30 -65 120 -65q95 0 152 91q42 67 64.5 165.5t22.5 177.5zM167 219q0 -41 4 -66l344 450q-34 49 -106 49q-101 0 -157 -90q-42 -65 -63.5 -161t-21.5 -182zM349 727l-20 34l191 128l43 -92z" />
    <glyph glyph-name="oslashacute" unicode="&#x1ff;" horiz-adv-x="518" 
d="M483 310q0 -133 -74 -228.5t-189 -95.5q-59 0 -103 27l-50 -68l-34 25l51 70q-49 54 -49 138q0 137 78.5 231.5t184.5 94.5q58 0 104 -28l51 70l37 -27l-53 -73q46 -54 46 -136zM131 163q0 -33 5 -52l228 313q-23 32 -70 32q-58 0 -102 -63q-61 -88 -61 -230zM387 325
q0 29 -4 49l-228 -309q23 -31 69 -31q52 0 91 45q34 40 53 105.5t19 140.5zM243 566l-20 34l179 153l53 -91z" />
    <glyph glyph-name="Scommaaccent" unicode="&#x218;" horiz-adv-x="503" 
d="M215 33q70 0 109.5 37t39.5 100q0 87 -93 134l-59 31q-54 28 -82 67t-28 99q0 89 63 144t159 55q122 0 181 -57l-19 -108h-61q0 118 -111 118q-60 0 -94 -33.5t-34 -88.5q0 -45 21 -71t66 -50l59 -31q57 -30 89 -70t32 -105q0 -99 -63.5 -158.5t-183.5 -59.5
q-133 0 -202 60l23 125h64q0 -74 26.5 -106t97.5 -32zM241 -141q0 -48 -33 -85.5t-94 -49.5l-19 27q38 12 52.5 25.5t14.5 32.5q0 16 -27 26q-31 13 -31 48q0 23 18 39t47 16q34 0 53 -21.5t19 -57.5z" />
    <glyph glyph-name="scommaaccent" unicode="&#x219;" horiz-adv-x="423" 
d="M167 -14q-99 0 -162 45l17 98h63v-12q0 -46 20 -65.5t70 -19.5q48 0 79.5 22t31.5 68q0 33 -17.5 50.5t-56.5 34.5l-51 22q-47 20 -72 50t-25 79q0 69 54.5 108t133.5 39q85 0 141 -38l-15 -90h-61q-2 41 -21 61.5t-64 20.5q-40 0 -63 -20.5t-23 -57.5q0 -25 12.5 -42
t45.5 -31l51 -22q59 -25 87 -56.5t28 -81.5q0 -71 -57 -116.5t-146 -45.5zM209 -141q0 -48 -33 -85.5t-94 -49.5l-19 27q38 12 52.5 25.5t14.5 32.5q0 16 -27 26q-31 13 -31 48q0 23 18 39t47 16q34 0 53 -21.5t19 -57.5z" />
    <glyph glyph-name="uni021A" unicode="&#x21a;" horiz-adv-x="569" 
d="M118 689h508l-32 -157h-46q2 30 2 39q0 39 -12.5 54t-47.5 15h-73l-103 -529q-4 -21 -4 -31q0 -24 16.5 -33.5t58.5 -11.5l-7 -35h-268l7 35q52 1 71.5 16.5t27.5 59.5l103 529h-75q-48 0 -68.5 -22t-39.5 -86h-48zM285 -141q0 -48 -33 -85.5t-94 -49.5l-19 27
q38 12 52.5 25.5t14.5 32.5q0 16 -27 26q-31 13 -31 48q0 23 18 39t47 16q34 0 53 -21.5t19 -57.5z" />
    <glyph glyph-name="uni021B" unicode="&#x21b;" horiz-adv-x="319" 
d="M343 491l-25 -55h-106l-64 -302q-6 -30 -6 -49q0 -26 13 -36.5t42 -10.5q24 0 60 13l8 -33q-64 -32 -113 -32q-102 0 -102 91q0 23 6 50l65 309h-59l6 32l71 23q38 99 75 142l52 8q-26 -70 -42 -150h119zM188 -141q0 -48 -33 -85.5t-94 -49.5l-19 27q38 12 52.5 25.5
t14.5 32.5q0 16 -27 26q-31 13 -31 48q0 23 18 39t47 16q34 0 53 -21.5t19 -57.5z" />
    <glyph glyph-name="dotlessj" unicode="&#x237;" horiz-adv-x="265" 
d="M218 367l-75 -371q-17 -86 -65 -130t-138 -72l-16 41q63 27 89 62.5t42 114.5l68 342q6 27 6 38q0 26 -18.5 37.5t-59.5 11.5l7 31q48 24 100 24q67 0 67 -73q0 -18 -7 -56z" />
    <glyph glyph-name="uni0259" unicode="&#x259;" horiz-adv-x="472" 
d="M347 319q0 61 -27 94.5t-75 33.5q-75 0 -149 -69l-26 35q80 91 204 91q82 0 125 -50t43 -143q0 -78 -35.5 -152t-101.5 -123.5t-144 -49.5q-67 0 -106.5 32.5t-39.5 91.5q0 74 79.5 118t228.5 44h22q2 15 2 47zM107 104q0 -30 16.5 -50t43.5 -20q59 0 105 55t65 137h-24
q-112 0 -159 -32t-47 -90z" />
    <glyph glyph-name="uni02BB" unicode="&#x2bb;" horiz-adv-x="264" 
d="M101 527q0 62 49.5 110.5t117.5 67.5l17 -29q-45 -17 -72.5 -40t-27.5 -45q0 -6 1 -10t5 -7.5t6 -4.5t9.5 -4.5t8.5 -4.5q33 -15 33 -55q0 -31 -18.5 -49t-49.5 -18q-35 0 -57 25t-22 64z" />
    <glyph glyph-name="afii57929" unicode="&#x2bc;" horiz-adv-x="264" 
d="M281 616q0 -62 -49.5 -110.5t-117.5 -67.5l-17 29q45 17 72.5 40t27.5 45q0 6 -1 10t-5 7.5t-6 4.5t-9.5 4.5t-8.5 4.5q-33 15 -33 55q0 31 18.5 49t49.5 18q35 0 57 -25t22 -64z" />
    <glyph glyph-name="circumflex" unicode="&#x2c6;" horiz-adv-x="545" 
d="M400 564l-120 85l-156 -85l-21 30l192 153l129 -155z" />
    <glyph glyph-name="caron" unicode="&#x2c7;" horiz-adv-x="464" 
d="M138 730l120 -85l156 85l21 -30l-192 -153l-129 155z" />
    <glyph glyph-name="breve" unicode="&#x2d8;" horiz-adv-x="402" 
d="M194 567q-57 0 -90.5 42t-40.5 99l35 14q17 -40 41 -58.5t62 -18.5q39 0 69 19t64 60l31 -22q-31 -60 -75 -97.5t-96 -37.5z" />
    <glyph glyph-name="dotaccent" unicode="&#x2d9;" horiz-adv-x="241" 
d="M181 644q0 -26 -18 -44.5t-44 -18.5t-44 18.5t-18 44.5t18 44.5t44 18.5t44 -18.5t18 -44.5z" />
    <glyph glyph-name="ring" unicode="&#x2da;" horiz-adv-x="313" 
d="M147 560q-44 0 -70 27t-26 68q0 47 30.5 78t78.5 31q44 0 69.5 -27.5t25.5 -68.5q0 -48 -30 -78t-78 -30zM157 729q-29 0 -47 -20.5t-18 -51.5q0 -28 14 -44.5t40 -16.5q30 0 49 19.5t19 48.5t-15 47t-42 18z" />
    <glyph glyph-name="ogonek" unicode="&#x2db;" horiz-adv-x="288" 
d="M202 -142l16 -21q-40 -42 -98 -42q-45 0 -68 21t-23 53q0 45 44 81t138 74l16 -17q-65 -37 -91.5 -65t-26.5 -61q0 -17 11 -28.5t29 -11.5q24 0 53 17z" />
    <glyph glyph-name="tilde" unicode="&#x2dc;" horiz-adv-x="545" 
d="M331 669q43 0 66 42l35 -15q-13 -43 -38.5 -72t-62.5 -29q-29 0 -68.5 14.5t-55.5 14.5q-40 0 -64 -44l-33 14q10 46 34.5 76t62.5 30q29 0 67 -15.5t57 -15.5z" />
    <glyph glyph-name="hungarumlaut" unicode="&#x2dd;" horiz-adv-x="482" 
d="M223 770l-113 -207l-42 18l70 225zM407 740l-145 -183l-37 26l104 208z" />
    <glyph glyph-name="uni0394" unicode="&#x394;" horiz-adv-x="576" 
d="M511 0h-501l5 25l320 563h74l107 -563zM93 52h319l-59 342q-11 65 -11 111h-4q-12 -35 -56 -113z" />
    <glyph glyph-name="uni03A9" unicode="&#x3a9;" horiz-adv-x="716" 
d="M433 655q-65 0 -113.5 -33t-74.5 -87t-38 -111.5t-12 -117.5q0 -163 93 -242l-13 -64h-260l17 151h38q2 -51 16.5 -63.5t72.5 -12.5h55q-52 44 -87 116t-35 150q0 151 103.5 255t241.5 104q115 0 182 -76t67 -192q0 -55 -14.5 -103t-35.5 -82t-56.5 -68t-64 -55.5
t-71.5 -48.5h51q58 0 77.5 12.5t41.5 63.5h42l-43 -151h-260l13 64q217 140 217 393q0 91 -37.5 144.5t-112.5 53.5z" />
    <glyph glyph-name="uni03BC" unicode="&#x3bc;" horiz-adv-x="537" 
d="M329 126q-38 -63 -82.5 -101.5t-87.5 -38.5q-41 0 -50 27l-4 -2q2 -10 2 -25q0 -21 -6 -52l-24 -116l-94 -29l121 565q5 25 5 39q0 26 -16.5 37t-57.5 11l7 31q48 24 98 24q29 0 46 -21.5t17 -62.5q0 -19 -7 -56l-48 -227q-5 -23 -5 -36q0 -36 33 -36q42 0 89 49.5
t84 111.5l58 273h90l-77 -369q-5 -21 -5 -33q0 -40 49 -40q6 0 28 2l3 -31q-55 -29 -101 -29q-35 0 -53 22.5t-18 61.5q0 24 6 51z" />
    <glyph glyph-name="pi" unicode="&#x3c0;" horiz-adv-x="581" 
d="M354 198l45 222h-146q-74 -307 -137 -420h-96l11 55q34 31 55.5 61t51.5 105.5t62 198.5q-68 -5 -117 -54l-24 22q36 64 78 88.5t122 24.5h206q92 0 146 19l-33 -79q-30 -16 -88 -21l-45 -221q-14 -67 -14 -96q0 -28 11 -44.5t38 -30.5l-23 -39q-54 19 -82.5 48t-28.5 91
q0 27 8 70z" />
    <glyph glyph-name="Wgrave" unicode="&#x1e80;" horiz-adv-x="877" 
d="M575 689l22 -392q5 -85 5 -175h6l66 175l107 263q15 36 15 55t-15 28t-49 11l6 35h216l-6 -35q-36 -5 -57 -26.5t-42 -70.5l-236 -557h-89l-24 438q-2 40 -2 63q0 17 0.5 38t0.5 22h-6q-18 -64 -44 -123l-188 -438h-92l-18 566q-2 49 -14 66.5t-49 21.5l6 35h237l-6 -35
q-46 -4 -63.5 -17t-17.5 -49v-6l9 -284v-35q0 -73 -4 -141h6q29 84 69 176l167 391h84zM667 761l-20 -34l-214 70l43 92z" />
    <glyph glyph-name="wgrave" unicode="&#x1e81;" horiz-adv-x="701" 
d="M481 100h5l39 90q93 212 99 308l82 -15v-35l-231 -453h-61l-26 235q-8 77 -8 139h-3l-169 -374h-72l-43 361q-4 35 -8 50q-5 20 -20.5 27.5t-49.5 7.5l7 31q48 24 95 24q33 0 45.5 -24.5t18.5 -90.5l15 -150q6 -61 6 -116v-15h6l170 391h61l29 -241q13 -104 13 -150z
M502 600l-20 -34l-212 96l53 91z" />
    <glyph glyph-name="Wacute" unicode="&#x1e82;" horiz-adv-x="877" 
d="M575 689l22 -392q5 -85 5 -175h6l66 175l107 263q15 36 15 55t-15 28t-49 11l6 35h216l-6 -35q-36 -5 -57 -26.5t-42 -70.5l-236 -557h-89l-24 438q-2 40 -2 63q0 17 0.5 38t0.5 22h-6q-18 -64 -44 -123l-188 -438h-92l-18 566q-2 49 -14 66.5t-49 21.5l6 35h237l-6 -35
q-46 -4 -63.5 -17t-17.5 -49v-6l9 -284v-35q0 -73 -4 -141h6q29 84 69 176l167 391h84zM455 727l-20 34l191 128l43 -92z" />
    <glyph glyph-name="wacute" unicode="&#x1e83;" horiz-adv-x="701" 
d="M481 100h5l39 90q93 212 99 308l82 -15v-35l-231 -453h-61l-26 235q-8 77 -8 139h-3l-169 -374h-72l-43 361q-4 35 -8 50q-5 20 -20.5 27.5t-49.5 7.5l7 31q48 24 95 24q33 0 45.5 -24.5t18.5 -90.5l15 -150q6 -61 6 -116v-15h6l170 391h61l29 -241q13 -104 13 -150z
M344 566l-20 34l179 153l53 -91z" />
    <glyph glyph-name="Wdieresis" unicode="&#x1e84;" horiz-adv-x="877" 
d="M575 689l22 -392q5 -85 5 -175h6l66 175l107 263q15 36 15 55t-15 28t-49 11l6 35h216l-6 -35q-36 -5 -57 -26.5t-42 -70.5l-236 -557h-89l-24 438q-2 40 -2 63q0 17 0.5 38t0.5 22h-6q-18 -64 -44 -123l-188 -438h-92l-18 566q-2 49 -14 66.5t-49 21.5l6 35h237l-6 -35
q-46 -4 -63.5 -17t-17.5 -49v-6l9 -284v-35q0 -73 -4 -141h6q29 84 69 176l167 391h84zM504 787q0 -25 -17 -42.5t-43 -17.5t-43 17.5t-17 42.5t17 42.5t43 17.5t43 -17.5t17 -42.5zM713 787q0 -25 -17.5 -42.5t-42.5 -17.5t-42.5 17.5t-17.5 42.5t17.5 42.5t42.5 17.5
t42.5 -17.5t17.5 -42.5z" />
    <glyph glyph-name="wdieresis" unicode="&#x1e85;" horiz-adv-x="701" 
d="M481 100h5l39 90q93 212 99 308l82 -15v-35l-231 -453h-61l-26 235q-8 77 -8 139h-3l-169 -374h-72l-43 361q-4 35 -8 50q-5 20 -20.5 27.5t-49.5 7.5l7 31q48 24 95 24q33 0 45.5 -24.5t18.5 -90.5l15 -150q6 -61 6 -116v-15h6l170 391h61l29 -241q13 -104 13 -150z
M374 638q0 -26 -17 -43t-43 -17t-43 17t-17 43t17 43t43 17t43 -17t17 -43zM583 638q0 -26 -17.5 -43t-42.5 -17t-42.5 17t-17.5 43t17.5 43t42.5 17t42.5 -17t17.5 -43z" />
    <glyph glyph-name="uni1E8A" unicode="&#x1e8a;" horiz-adv-x="605" 
d="M525 574l-154 -203l99 -254q17 -45 35.5 -61.5t48.5 -20.5l-6 -35h-240l6 35q45 1 57 20t-3 57l-71 190h-4l-140 -192q-23 -32 -23 -49q0 -23 53 -26l-6 -35h-209l6 35q31 4 56 22.5t65 70.5l178 231l-88 221q-16 42 -32.5 56t-46.5 18l6 35h238l-6 -35q-65 -3 -65 -38
q0 -16 9 -38l58 -152h4l109 151q24 33 24 51q0 23 -47 26l6 35h200l-6 -35q-31 -4 -55 -20.5t-56 -59.5zM483 808q0 -26 -18 -44.5t-44 -18.5t-44 18.5t-18 44.5t18 44.5t44 18.5t44 -18.5t18 -44.5z" />
    <glyph glyph-name="uni1E8B" unicode="&#x1e8b;" horiz-adv-x="475" 
d="M193 252l-43 129q-13 38 -31.5 49t-60.5 11l7 31q48 24 83 24q30 0 49.5 -19t33.5 -70l28 -102l118 186h108l-9 -43q-34 -3 -54.5 -15t-45.5 -45l-100 -133l48 -149q11 -32 25.5 -44.5t42.5 -12.5q14 0 30 2l3 -31q-62 -29 -105 -29q-29 0 -48 27.5t-35 85.5l-27 96
l-130 -200h-100l9 43q37 7 59 23.5t54 60.5zM370 644q0 -26 -18 -44.5t-44 -18.5t-44 18.5t-18 44.5t18 44.5t44 18.5t44 -18.5t18 -44.5z" />
    <glyph glyph-name="Ygrave" unicode="&#x1ef2;" horiz-adv-x="589" 
d="M222 111l30 165l-86 296q-14 45 -30.5 61.5t-47.5 20.5l6 35h229l-6 -35q-61 -1 -61 -39q0 -12 7 -38l64 -236h4l155 238q21 33 21 49q0 23 -53 26l6 35h206l-6 -35q-32 -4 -55 -22t-60 -71l-192 -279l-33 -171q-8 -43 5.5 -59t65.5 -17l-7 -35h-268l7 35q52 1 71.5 17
t27.5 59zM531 761l-20 -34l-214 70l43 92z" />
    <glyph glyph-name="ygrave" unicode="&#x1ef3;" horiz-adv-x="463" 
d="M168 1l-30 -3q-4 109 -24 239l-18 119q-8 53 -21.5 69t-60.5 16l7 31q48 24 93 24q34 0 46 -25.5t23 -105.5l17 -118q11 -73 11 -132q0 -7 -0.5 -17.5t-0.5 -12.5h6l52 97q106 198 113 316l87 -15v-35l-258 -471q-51 -92 -96 -134.5t-112 -55.5l-17 60q63 14 104.5 47
t78.5 107zM370 600l-20 -34l-212 96l53 91z" />
    <glyph glyph-name="uni2007" unicode="&#x2007;" horiz-adv-x="566" 
 />
    <glyph glyph-name="uni2008" unicode="&#x2008;" horiz-adv-x="252" 
 />
    <glyph glyph-name="uni200B" unicode="&#x200b;" horiz-adv-x="0" 
 />
    <glyph glyph-name="endash" unicode="&#x2013;" horiz-adv-x="591" 
d="M531 252h-481l9 51h481z" />
    <glyph glyph-name="emdash" unicode="&#x2014;" horiz-adv-x="815" 
d="M755 252h-705l9 51h705z" />
    <glyph glyph-name="afii00208" unicode="&#x2015;" horiz-adv-x="815" 
d="M755 252h-705l9 51h705z" />
    <glyph glyph-name="quoteleft" unicode="&#x2018;" horiz-adv-x="264" 
d="M101 527q0 62 49.5 110.5t117.5 67.5l17 -29q-45 -17 -72.5 -40t-27.5 -45q0 -6 1 -10t5 -7.5t6 -4.5t9.5 -4.5t8.5 -4.5q33 -15 33 -55q0 -31 -18.5 -49t-49.5 -18q-35 0 -57 25t-22 64z" />
    <glyph glyph-name="quoteright" unicode="&#x2019;" horiz-adv-x="264" 
d="M281 616q0 -62 -49.5 -110.5t-117.5 -67.5l-17 29q45 17 72.5 40t27.5 45q0 6 -1 10t-5 7.5t-6 4.5t-9.5 4.5t-8.5 4.5q-33 15 -33 55q0 31 18.5 49t49.5 18q35 0 57 -25t22 -64z" />
    <glyph glyph-name="quotesinglbase" unicode="&#x201a;" horiz-adv-x="264" 
d="M189 41q0 -62 -49.5 -110.5t-117.5 -67.5l-17 29q45 17 72.5 40t27.5 45q0 6 -1 10t-5 7.5t-6 4.5t-9.5 4.5t-8.5 4.5q-33 15 -33 55q0 31 18.5 49t49.5 18q35 0 57 -25t22 -64z" />
    <glyph glyph-name="quotedblleft" unicode="&#x201c;" horiz-adv-x="465" 
d="M101 527q0 62 49.5 110.5t117.5 67.5l17 -29q-45 -17 -72.5 -40t-27.5 -45q0 -6 1 -10t5 -7.5t6 -4.5t9.5 -4.5t8.5 -4.5q33 -15 33 -55q0 -31 -18.5 -49t-49.5 -18q-35 0 -57 25t-22 64zM302 527q0 62 49.5 110.5t117.5 67.5l17 -29q-45 -17 -72.5 -40t-27.5 -45
q0 -6 1 -10t5 -7.5t6 -4.5t9.5 -4.5t8.5 -4.5q33 -15 33 -55q0 -31 -18.5 -49t-49.5 -18q-35 0 -57 25t-22 64z" />
    <glyph glyph-name="quotedblright" unicode="&#x201d;" horiz-adv-x="465" 
d="M482 616q0 -62 -49.5 -110.5t-117.5 -67.5l-17 29q45 17 72.5 40t27.5 45q0 6 -1 10t-5 7.5t-6 4.5t-9.5 4.5t-8.5 4.5q-33 15 -33 55q0 31 18.5 49t49.5 18q35 0 57 -25t22 -64zM281 616q0 -62 -49.5 -110.5t-117.5 -67.5l-17 29q45 17 72.5 40t27.5 45q0 6 -1 10
t-5 7.5t-6 4.5t-9.5 4.5t-8.5 4.5q-33 15 -33 55q0 31 18.5 49t49.5 18q35 0 57 -25t22 -64z" />
    <glyph glyph-name="quotedblbase" unicode="&#x201e;" horiz-adv-x="465" 
d="M390 41q0 -62 -49.5 -110.5t-117.5 -67.5l-17 29q45 17 72.5 40t27.5 45q0 6 -1 10t-5 7.5t-6 4.5t-9.5 4.5t-8.5 4.5q-33 15 -33 55q0 31 18.5 49t49.5 18q35 0 57 -25t22 -64zM189 41q0 -62 -49.5 -110.5t-117.5 -67.5l-17 29q45 17 72.5 40t27.5 45q0 6 -1 10t-5 7.5
t-6 4.5t-9.5 4.5t-8.5 4.5q-33 15 -33 55q0 31 18.5 49t49.5 18q35 0 57 -25t22 -64z" />
    <glyph glyph-name="dagger" unicode="&#x2020;" horiz-adv-x="420" 
d="M217 451h-22q-78 0 -115 -10h-20l14 73h20q33 -10 111 -10h22l10 52q13 65 13 93q0 14 -1 20l4 20h81l-4 -20q-16 -33 -32 -113l-10 -52h22q78 0 115 10h20l-14 -73h-20q-33 10 -111 10h-22l-48 -248q-25 -126 -54 -203h-33q0 70 26 203z" />
    <glyph glyph-name="daggerdbl" unicode="&#x2021;" horiz-adv-x="438" 
d="M286 441l-38 -193h22q78 0 115 10h20l-14 -73h-20q-33 10 -111 10h-22l-12 -62q-13 -70 -13 -95q0 -12 1 -18l-4 -20h-81l4 20q18 37 32 113l12 62h-22q-78 0 -115 -10h-20l14 73h20q33 -10 111 -10h22l38 193h-22q-78 0 -115 -10h-20l14 73h20q33 -10 111 -10h22l12 62
q13 65 13 93q0 14 -1 20l4 20h81l-4 -20q-16 -33 -32 -113l-12 -62h22q78 0 115 10h20l-14 -73h-20q-33 10 -111 10h-22z" />
    <glyph glyph-name="bullet" unicode="&#x2022;" horiz-adv-x="517" 
d="M429 335q0 -73 -51 -125t-123 -52t-122.5 51.5t-50.5 125.5t50.5 125.5t122.5 51.5t123 -52t51 -125z" />
    <glyph glyph-name="ellipsis" unicode="&#x2026;" horiz-adv-x="738" 
d="M663 63q0 -31 -21.5 -54t-50.5 -23q-30 0 -50.5 22.5t-20.5 54.5q0 31 20.5 52t49.5 21q30 0 51.5 -21t21.5 -52zM188 63q0 -31 -21 -54t-50 -23q-30 0 -51 22.5t-21 54.5q0 31 20.5 52t49.5 21q30 0 51.5 -21t21.5 -52zM425 63q0 -32 -21 -54.5t-50 -22.5
q-30 0 -50.5 22.5t-20.5 54.5q0 31 20 52t49 21q31 0 52 -21t21 -52z" />
    <glyph glyph-name="perthousand" unicode="&#x2030;" horiz-adv-x="1340" 
d="M382 505q0 -110 -57 -187.5t-150 -77.5q-63 0 -98 36t-35 107q0 105 56.5 186.5t151.5 81.5q65 0 98.5 -38t33.5 -108zM183 274q31 0 55 27t37 67t19.5 78t6.5 68q0 99 -58 99q-52 0 -85.5 -77t-33.5 -162q0 -100 59 -100zM791 730l-617 -853h-54l617 853h54zM898 255
q0 -110 -57 -187.5t-150 -77.5q-63 0 -98 36t-35 107q0 105 56.5 186.5t151.5 81.5q65 0 98.5 -38t33.5 -108zM699 24q31 0 55 27t37 67t19.5 78t6.5 68q0 99 -58 99q-52 0 -85.5 -77t-33.5 -162q0 -100 59 -100zM1310 255q0 -110 -57 -187.5t-150 -77.5q-63 0 -98 36
t-35 107q0 105 56.5 186.5t151.5 81.5q65 0 98.5 -38t33.5 -108zM1111 24q31 0 55 27t37 67t19.5 78t6.5 68q0 99 -58 99q-52 0 -85.5 -77t-33.5 -162q0 -100 59 -100z" />
    <glyph glyph-name="guilsinglleft" unicode="&#x2039;" horiz-adv-x="310" 
d="M280 426l-144 -185l71 -180l-39 -30l-128 213l211 213z" />
    <glyph glyph-name="guilsinglright" unicode="&#x203a;" horiz-adv-x="310" 
d="M30 62l144 185l-71 180l39 30l128 -213l-211 -213z" />
    <glyph glyph-name="fraction" unicode="&#x2044;" horiz-adv-x="191" 
d="M431 730l-617 -853h-54l617 853h54z" />
    <glyph glyph-name="uni2070" unicode="&#x2070;" horiz-adv-x="400" 
d="M382 505q0 -110 -57 -187.5t-150 -77.5q-63 0 -98 36t-35 107q0 105 56.5 186.5t151.5 81.5q65 0 98.5 -38t33.5 -108zM183 274q31 0 55 27t37 67t19.5 78t6.5 68q0 99 -58 99q-52 0 -85.5 -77t-33.5 -162q0 -100 59 -100z" />
    <glyph glyph-name="uni2074" unicode="&#x2074;" horiz-adv-x="367" 
d="M186 229l24 112h-198l5 25l211 278h76l-221 -267h134q19 88 58 160l58 10l-36 -170h52l-7 -36h-52l-22 -101z" />
    <glyph glyph-name="uni2075" unicode="&#x2075;" horiz-adv-x="322" 
d="M288 391q0 -75 -64.5 -118.5t-149.5 -43.5q-43 0 -78 11l-4 35q34 -8 73 -8q58 0 99 27t41 86q0 61 -68 61q-33 0 -78 -15l68 218h207l-22 -57h-159l-37 -115q25 11 61 11q53 0 82 -24t29 -68z" />
    <glyph glyph-name="uni2076" unicode="&#x2076;" horiz-adv-x="359" 
d="M351 642q-85 -29 -138 -71.5t-81 -114.5q50 37 104 37q45 0 72 -25.5t27 -72.5q0 -63 -51.5 -109t-115.5 -46q-62 0 -96.5 33t-34.5 96q0 112 94 195.5t217 107.5zM207 453q-32 0 -83 -33q-11 -31 -11 -68q0 -76 59 -76q31 0 59 32t28 88q0 33 -13.5 45t-38.5 12z" />
    <glyph glyph-name="uni2077" unicode="&#x2077;" horiz-adv-x="304" 
d="M356 644l-17 -39q-150 -150 -236 -357l-91 -16q42 92 114.5 188.5t146.5 165.5h-216l22 58h277z" />
    <glyph glyph-name="uni2078" unicode="&#x2078;" horiz-adv-x="357" 
d="M22 344q0 78 124 108q-61 37 -61 95q0 49 43.5 76.5t104.5 27.5q58 0 92 -24t34 -64q0 -73 -111 -98q40 -20 63 -41.5t23 -54.5q0 -56 -48 -90t-119 -34q-70 0 -107.5 27.5t-37.5 71.5zM95 345q0 -29 21.5 -46.5t55.5 -17.5q38 0 64.5 17.5t26.5 50.5q0 20 -12.5 35.5
t-27 24.5t-49.5 28q-39 -18 -59 -38t-20 -54zM224 617q-70 0 -70 -58q0 -36 67 -78q27 10 48 30.5t21 49.5q0 56 -66 56z" />
    <glyph glyph-name="uni2079" unicode="&#x2079;" horiz-adv-x="373" 
d="M49 219l-22 25q92 31 152 74.5t86 116.5q-50 -37 -104 -37q-45 0 -72 27t-27 75q0 67 50 109t117 42q62 0 96.5 -33t34.5 -96q0 -81 -47 -147t-115.5 -103.5t-148.5 -52.5zM190 438q32 0 83 33q11 31 11 68q0 76 -59 76q-38 0 -62.5 -29t-24.5 -81q0 -67 52 -67z" />
    <glyph glyph-name="uni2080" unicode="&#x2080;" horiz-adv-x="400" 
d="M342 98q0 -110 -57 -187.5t-150 -77.5q-63 0 -98 36t-35 107q0 105 56.5 186.5t151.5 81.5q65 0 98.5 -38t33.5 -108zM143 -133q31 0 55 27t37 67t19.5 78t6.5 68q0 99 -58 99q-52 0 -85.5 -77t-33.5 -162q0 -100 59 -100z" />
    <glyph glyph-name="uni2081" unicode="&#x2081;" horiz-adv-x="304" 
d="M218 237l-69 -323q-5 -25 9.5 -33t67.5 -9l-6 -29h-248l6 29q55 2 71 8.5t22 33.5l55 257q-46 -21 -98 -35l-3 28l136 73h57z" />
    <glyph glyph-name="uni2082" unicode="&#x2082;" horiz-adv-x="343" 
d="M180 244q54 0 84.5 -23.5t30.5 -68.5q0 -28 -11.5 -52.5t-39.5 -51.5t-50 -44l-69 -51l-71 -52h220l-22 -58h-280l9 41l95 80q58 49 80 69t39 48t17 58q0 54 -61 54q-52 0 -106 -52l-19 28q53 75 154 75z" />
    <glyph glyph-name="uni2083" unicode="&#x2083;" horiz-adv-x="329" 
d="M131 197q-47 0 -87 -40l-23 26q53 61 140 61q49 0 79.5 -20.5t30.5 -61.5t-31 -69.5t-78 -37.5q39 -4 60.5 -25.5t21.5 -55.5q0 -73 -66 -112t-152 -39q-47 0 -74 9l-5 35q24 -6 60 -6q65 0 111 30t46 83q0 32 -16.5 44.5t-48.5 12.5q-12 0 -34 -2l10 43q9 -1 30 -1
q38 0 61.5 19t23.5 57q0 50 -59 50z" />
    <glyph glyph-name="uni2084" unicode="&#x2084;" horiz-adv-x="367" 
d="M146 -178l24 112h-198l5 25l211 278h76l-221 -267h134q19 88 58 160l58 10l-36 -170h52l-7 -36h-52l-22 -101z" />
    <glyph glyph-name="uni2085" unicode="&#x2085;" horiz-adv-x="322" 
d="M248 -16q0 -75 -64.5 -118.5t-149.5 -43.5q-43 0 -78 11l-4 35q34 -8 73 -8q58 0 99 27t41 86q0 61 -68 61q-33 0 -78 -15l68 218h207l-22 -57h-159l-37 -115q25 11 61 11q53 0 82 -24t29 -68z" />
    <glyph glyph-name="uni2086" unicode="&#x2086;" horiz-adv-x="359" 
d="M311 235q-85 -29 -138 -71.5t-81 -114.5q50 37 104 37q45 0 72 -25.5t27 -72.5q0 -63 -51.5 -109t-115.5 -46q-62 0 -96.5 33t-34.5 96q0 112 94 195.5t217 107.5zM167 46q-32 0 -83 -33q-11 -31 -11 -68q0 -76 59 -76q31 0 59 32t28 88q0 33 -13.5 45t-38.5 12z" />
    <glyph glyph-name="uni2087" unicode="&#x2087;" horiz-adv-x="304" 
d="M316 237l-17 -39q-150 -150 -236 -357l-91 -16q42 92 114.5 188.5t146.5 165.5h-216l22 58h277z" />
    <glyph glyph-name="uni2088" unicode="&#x2088;" horiz-adv-x="357" 
d="M-18 -63q0 78 124 108q-61 37 -61 95q0 49 43.5 76.5t104.5 27.5q58 0 92 -24t34 -64q0 -73 -111 -98q40 -20 63 -41.5t23 -54.5q0 -56 -48 -90t-119 -34q-70 0 -107.5 27.5t-37.5 71.5zM55 -62q0 -29 21.5 -46.5t55.5 -17.5q38 0 64.5 17.5t26.5 50.5q0 20 -12.5 35.5
t-27 24.5t-49.5 28q-39 -18 -59 -38t-20 -54zM184 210q-70 0 -70 -58q0 -36 67 -78q27 10 48 30.5t21 49.5q0 56 -66 56z" />
    <glyph glyph-name="uni2089" unicode="&#x2089;" horiz-adv-x="373" 
d="M9 -188l-22 25q92 31 152 74.5t86 116.5q-50 -37 -104 -37q-45 0 -72 27t-27 75q0 67 50 109t117 42q62 0 96.5 -33t34.5 -96q0 -81 -47 -147t-115.5 -103.5t-148.5 -52.5zM150 31q32 0 83 33q11 31 11 68q0 76 -59 76q-38 0 -62.5 -29t-24.5 -81q0 -67 52 -67z" />
    <glyph glyph-name="Euro" unicode="&#x20ac;" horiz-adv-x="626" 
d="M488 380h-256q-6 -27 -12 -83h254l-10 -44h-246v-21q0 -108 33 -153.5t100 -45.5q59 0 94.5 25.5t58.5 84.5h66l-21 -105q-33 -21 -88.5 -36.5t-113.5 -15.5q-115 0 -174 66.5t-59 187.5v13h-94l10 44h86q5 46 13 83h-85l10 44h86q40 126 128 201t204 75q111 0 174 -51
l-22 -109h-68q-3 64 -19.5 88.5t-69.5 24.5q-83 0 -140 -62.5t-85 -166.5h256z" />
    <glyph glyph-name="uni2117" unicode="&#x2117;" horiz-adv-x="797" 
d="M411 31q129 0 215 86t86 226q0 142 -86 228t-215 86t-215 -86t-86 -228q0 -140 86 -226t215 -86zM257 555h162q89 0 130.5 -27t41.5 -101q0 -75 -41 -104t-112 -29h-53v-72q0 -35 13 -45.5t51 -11.5v-29h-192v29q36 1 45 11.5t9 45.5v242q0 35 -9.5 47t-44.5 13v31z
M513 425q0 53 -20.5 72.5t-78.5 19.5h-29v-185h42q49 0 67.5 20t18.5 73zM411 -12q-154 0 -255 98t-101 258q0 157 103 257t253 100t253 -100t103 -257q0 -160 -101 -258t-255 -98z" />
    <glyph glyph-name="trademark" unicode="&#x2122;" horiz-adv-x="1048" 
d="M231 401l48 246h-20q-49 0 -69 -21t-39 -84h-41l29 147h357l-21 -147h-41v9q0 58 -13.5 77t-54.5 19h-15l-48 -246q-5 -23 -5 -36q0 -21 14.5 -30t51.5 -10l-6 -30h-224l6 30q49 1 65.5 16.5t25.5 59.5zM1048 689l-7 -35q-36 -2 -48 -14.5t-16 -45.5l-23 -195
q-1 -11 -1 -22q0 -31 12 -42t40 -13l-5 -30h-190l5 30q36 2 51 16t20 60l15 128q3 25 17 87h-5q-14 -38 -41 -88l-128 -233h-48l-31 233q-6 42 -6 88h-6q-19 -84 -20 -89l-33 -126q-7 -25 -7 -43t11 -24.5t38 -7.5l-6 -31h-168l6 31q32 2 48 15t27 55l54 202q5 20 5 30
q0 15 -10.5 22t-36.5 8l7 34h145l30 -225q4 -29 4 -57q0 -25 -2 -33h5q11 40 38 89l121 226h139z" />
    <glyph glyph-name="Omega" unicode="&#x2126;" horiz-adv-x="716" 
d="M433 655q-65 0 -113.5 -33t-74.5 -87t-38 -111.5t-12 -117.5q0 -163 93 -242l-13 -64h-260l17 151h38q2 -51 16.5 -63.5t72.5 -12.5h55q-52 44 -87 116t-35 150q0 151 103.5 255t241.5 104q115 0 182 -76t67 -192q0 -55 -14.5 -103t-35.5 -82t-56.5 -68t-64 -55.5
t-71.5 -48.5h51q58 0 77.5 12.5t41.5 63.5h42l-43 -151h-260l13 64q217 140 217 393q0 91 -37.5 144.5t-112.5 53.5z" />
    <glyph glyph-name="uni2150" unicode="&#x2150;" horiz-adv-x="859" 
d="M270 644l-69 -323q-6 -27 10 -33.5t63 -8.5h4l-6 -29h-248l6 29q55 2 71 8.5t22 33.5l55 257q-46 -21 -98 -35l-3 28l136 73h57zM765 730l-617 -853h-54l617 853h54zM899 394l-17 -39q-150 -150 -236 -357l-91 -16q42 92 114.5 188.5t146.5 165.5h-216l22 58h277z" />
    <glyph glyph-name="uni2151" unicode="&#x2151;" horiz-adv-x="888" 
d="M270 644l-69 -323q-6 -27 10 -33.5t63 -8.5h4l-6 -29h-248l6 29q55 2 71 8.5t22 33.5l55 257q-46 -21 -98 -35l-3 28l136 73h57zM765 730l-617 -853h-54l617 853h54zM552 -31l-22 25q92 31 152 74.5t86 116.5q-50 -37 -104 -37q-45 0 -72 27t-27 75q0 67 50 109t117 42
q62 0 96.5 -33t34.5 -96q0 -81 -47 -147t-115.5 -103.5t-148.5 -52.5zM693 188q32 0 83 33q11 31 11 68q0 76 -59 76q-38 0 -62.5 -29t-24.5 -81q0 -67 52 -67z" />
    <glyph glyph-name="uni2152" unicode="&#x2152;" horiz-adv-x="1214" 
d="M270 644l-69 -323q-6 -27 10 -33.5t63 -8.5h4l-6 -29h-248l6 29q55 2 71 8.5t22 33.5l55 257q-46 -21 -98 -35l-3 28l136 73h57zM765 730l-617 -853h-54l617 853h54zM756 394l-69 -323q-6 -26 9 -33t68 -9l-6 -29h-248l6 29q55 2 71 8.5t22 33.5l55 257q-46 -21 -98 -35
l-3 28l136 73h57zM1184 255q0 -110 -57 -187.5t-150 -77.5q-63 0 -98 36t-35 107q0 105 56.5 186.5t151.5 81.5q65 0 98.5 -38t33.5 -108zM985 24q31 0 55 27t37 67t19.5 78t6.5 68q0 99 -58 99q-52 0 -85.5 -77t-33.5 -162q0 -100 59 -100z" />
    <glyph glyph-name="onethird" unicode="&#x2153;" horiz-adv-x="824" 
d="M258 644l-69 -323q-5 -26 9.5 -33t67.5 -9l-6 -29h-248l6 29q55 2 71 8.5t22 33.5l55 257q-46 -21 -98 -35l-3 28l136 73h57zM735 730l-617 -853h-54l617 853h54zM654 354q-47 0 -87 -40l-23 26q53 61 140 61q49 0 79.5 -20.5t30.5 -61.5t-31 -69.5t-78 -37.5
q39 -4 60.5 -25.5t21.5 -55.5q0 -73 -66 -112t-152 -39q-47 0 -74 9l-5 35q24 -6 60 -6q65 0 111 30t46 83q0 32 -16.5 44.5t-48.5 12.5q-12 0 -34 -2l10 43q9 -1 30 -1q38 0 61.5 19t23.5 57q0 50 -59 50z" />
    <glyph glyph-name="twothirds" unicode="&#x2154;" horiz-adv-x="863" 
d="M220 651q54 0 84.5 -23.5t30.5 -68.5q0 -28 -11.5 -52.5t-39.5 -51.5t-50 -44l-69 -51l-71 -52h220l-22 -58h-280l9 41l95 80q58 49 80 69t39 48t17 58q0 54 -61 54q-52 0 -106 -52l-19 28q53 75 154 75zM774 730l-617 -853h-54l617 853h54zM693 354q-47 0 -87 -40
l-23 26q53 61 140 61q49 0 79.5 -20.5t30.5 -61.5t-31 -69.5t-78 -37.5q39 -4 60.5 -25.5t21.5 -55.5q0 -73 -66 -112t-152 -39q-47 0 -74 9l-5 35q24 -6 60 -6q65 0 111 30t46 83q0 32 -16.5 44.5t-48.5 12.5q-12 0 -34 -2l10 43q9 -1 30 -1q38 0 61.5 19t23.5 57
q0 50 -59 50z" />
    <glyph glyph-name="uni2155" unicode="&#x2155;" horiz-adv-x="842" 
d="M270 644l-69 -323q-6 -27 10 -33.5t63 -8.5h4l-6 -29h-248l6 29q55 2 71 8.5t22 33.5l55 257q-46 -21 -98 -35l-3 28l136 73h57zM765 730l-617 -853h-54l617 853h54zM796 141q0 -75 -64.5 -118.5t-149.5 -43.5q-43 0 -78 11l-4 35q34 -8 73 -8q58 0 99 27t41 86
q0 61 -68 61q-33 0 -78 -15l68 218h207l-22 -57h-159l-37 -115q25 11 61 11q53 0 82 -24t29 -68z" />
    <glyph glyph-name="uni2156" unicode="&#x2156;" horiz-adv-x="886" 
d="M232 651q54 0 84.5 -23.5t30.5 -68.5q0 -28 -11.5 -52.5t-39.5 -51.5t-50 -44l-69 -51l-71 -52h220l-22 -58h-280l9 41l95 80q58 49 80 69t39 48t17 58q0 54 -61 54q-52 0 -106 -52l-19 28q53 75 154 75zM809 730l-617 -853h-54l617 853h54zM840 141q0 -75 -64.5 -118.5
t-149.5 -43.5q-43 0 -78 11l-4 35q34 -8 73 -8q58 0 99 27t41 86q0 61 -68 61q-33 0 -78 -15l68 218h207l-22 -57h-159l-37 -115q25 11 61 11q53 0 82 -24t29 -68z" />
    <glyph glyph-name="uni2157" unicode="&#x2157;" horiz-adv-x="837" 
d="M183 604q-47 0 -87 -40l-23 26q53 61 140 61q49 0 79.5 -20.5t30.5 -61.5t-31 -69.5t-78 -37.5q39 -4 60.5 -25.5t21.5 -55.5q0 -73 -66 -112t-152 -39q-47 0 -74 9l-5 35q24 -6 60 -6q65 0 111 30t46 83q0 32 -16.5 44.5t-48.5 12.5q-12 0 -34 -2l10 43q9 -1 30 -1
q38 0 61.5 19t23.5 57q0 50 -59 50zM760 730l-617 -853h-54l617 853h54zM791 141q0 -75 -64.5 -118.5t-149.5 -43.5q-43 0 -78 11l-4 35q34 -8 73 -8q58 0 99 27t41 86q0 61 -68 61q-33 0 -78 -15l68 218h207l-22 -57h-159l-37 -115q25 11 61 11q53 0 82 -24t29 -68z" />
    <glyph glyph-name="uni2158" unicode="&#x2158;" horiz-adv-x="875" 
d="M198 229l24 112h-198l5 25l211 278h76l-221 -267h134q19 88 58 160l58 10l-36 -170h52l-7 -36h-52l-22 -101zM798 730l-617 -853h-54l617 853h54zM829 141q0 -75 -64.5 -118.5t-149.5 -43.5q-43 0 -78 11l-4 35q34 -8 73 -8q58 0 99 27t41 86q0 61 -68 61q-33 0 -78 -15
l68 218h207l-22 -57h-159l-37 -115q25 11 61 11q53 0 82 -24t29 -68z" />
    <glyph glyph-name="uni2159" unicode="&#x2159;" horiz-adv-x="849" 
d="M270 644l-69 -323q-6 -27 10 -33.5t63 -8.5h4l-6 -29h-248l6 29q55 2 71 8.5t22 33.5l55 257q-46 -21 -98 -35l-3 28l136 73h57zM765 730l-617 -853h-54l617 853h54zM829 392q-85 -29 -138 -71.5t-81 -114.5q50 37 104 37q45 0 72 -25.5t27 -72.5q0 -63 -51.5 -109
t-115.5 -46q-62 0 -96.5 33t-34.5 96q0 112 94 195.5t217 107.5zM685 203q-32 0 -83 -33q-11 -31 -11 -68q0 -76 59 -76q31 0 59 32t28 88q0 33 -13.5 45t-38.5 12z" />
    <glyph glyph-name="uni215A" unicode="&#x215a;" horiz-adv-x="837" 
d="M300 391q0 -75 -64.5 -118.5t-149.5 -43.5q-43 0 -78 11l-4 35q34 -8 73 -8q58 0 99 27t41 86q0 61 -68 61q-33 0 -78 -15l68 218h207l-22 -57h-159l-37 -115q25 11 61 11q53 0 82 -24t29 -68zM753 730l-617 -853h-54l617 853h54zM817 392q-85 -29 -138 -71.5t-81 -114.5
q50 37 104 37q45 0 72 -25.5t27 -72.5q0 -63 -51.5 -109t-115.5 -46q-62 0 -96.5 33t-34.5 96q0 112 94 195.5t217 107.5zM673 203q-32 0 -83 -33q-11 -31 -11 -68q0 -76 59 -76q31 0 59 32t28 88q0 33 -13.5 45t-38.5 12z" />
    <glyph glyph-name="oneeighth" unicode="&#x215b;" horiz-adv-x="852" 
d="M735 730l-617 -853h-54l617 853h54zM505 94q0 78 124 108q-61 37 -61 95q0 49 43.5 76.5t104.5 27.5q58 0 92 -24t34 -64q0 -73 -111 -98q40 -20 63 -41.5t23 -54.5q0 -56 -48 -90t-119 -34q-70 0 -107.5 27.5t-37.5 71.5zM578 95q0 -29 21.5 -46.5t55.5 -17.5
q38 0 64.5 17.5t26.5 50.5q0 20 -12.5 35.5t-27 24.5t-49.5 28q-39 -18 -59 -38t-20 -54zM707 367q-70 0 -70 -58q0 -36 67 -78q27 10 48 30.5t21 49.5q0 56 -66 56zM258 644l-69 -323q-5 -26 9.5 -33t67.5 -9l-6 -29h-248l6 29q55 2 71 8.5t22 33.5l55 257q-46 -21 -98 -35
l-3 28l136 73h57z" />
    <glyph glyph-name="threeeighths" unicode="&#x215c;" horiz-adv-x="857" 
d="M171 604q-47 0 -87 -40l-23 26q53 61 140 61q49 0 79.5 -20.5t30.5 -61.5t-31 -69.5t-78 -37.5q39 -4 60.5 -25.5t21.5 -55.5q0 -73 -66 -112t-152 -39q-47 0 -74 9l-5 35q24 -6 60 -6q65 0 111 30t46 83q0 32 -16.5 44.5t-48.5 12.5q-12 0 -34 -2l10 43q9 -1 30 -1
q38 0 61.5 19t23.5 57q0 50 -59 50zM740 730l-617 -853h-54l617 853h54zM510 94q0 78 124 108q-61 37 -61 95q0 49 43.5 76.5t104.5 27.5q58 0 92 -24t34 -64q0 -73 -111 -98q40 -20 63 -41.5t23 -54.5q0 -56 -48 -90t-119 -34q-70 0 -107.5 27.5t-37.5 71.5zM583 95
q0 -29 21.5 -46.5t55.5 -17.5q38 0 64.5 17.5t26.5 50.5q0 20 -12.5 35.5t-27 24.5t-49.5 28q-39 -18 -59 -38t-20 -54zM712 367q-70 0 -70 -58q0 -36 67 -78q27 10 48 30.5t21 49.5q0 56 -66 56z" />
    <glyph glyph-name="fiveeighths" unicode="&#x215d;" horiz-adv-x="850" 
d="M288 391q0 -75 -64.5 -118.5t-149.5 -43.5q-43 0 -78 11l-4 35q34 -8 73 -8q58 0 99 27t41 86q0 61 -68 61q-33 0 -78 -15l68 218h207l-22 -57h-159l-37 -115q25 11 61 11q53 0 82 -24t29 -68zM733 730l-617 -853h-54l617 853h54zM503 94q0 78 124 108q-61 37 -61 95
q0 49 43.5 76.5t104.5 27.5q58 0 92 -24t34 -64q0 -73 -111 -98q40 -20 63 -41.5t23 -54.5q0 -56 -48 -90t-119 -34q-70 0 -107.5 27.5t-37.5 71.5zM576 95q0 -29 21.5 -46.5t55.5 -17.5q38 0 64.5 17.5t26.5 50.5q0 20 -12.5 35.5t-27 24.5t-49.5 28q-39 -18 -59 -38
t-20 -54zM705 367q-70 0 -70 -58q0 -36 67 -78q27 10 48 30.5t21 49.5q0 56 -66 56z" />
    <glyph glyph-name="seveneighths" unicode="&#x215e;" horiz-adv-x="792" 
d="M356 644l-17 -39q-150 -150 -236 -357l-91 -16q42 92 114.5 188.5t146.5 165.5h-216l22 58h277zM675 730l-617 -853h-54l617 853h54zM445 94q0 78 124 108q-61 37 -61 95q0 49 43.5 76.5t104.5 27.5q58 0 92 -24t34 -64q0 -73 -111 -98q40 -20 63 -41.5t23 -54.5
q0 -56 -48 -90t-119 -34q-70 0 -107.5 27.5t-37.5 71.5zM518 95q0 -29 21.5 -46.5t55.5 -17.5q38 0 64.5 17.5t26.5 50.5q0 20 -12.5 35.5t-27 24.5t-49.5 28q-39 -18 -59 -38t-20 -54zM647 367q-70 0 -70 -58q0 -36 67 -78q27 10 48 30.5t21 49.5q0 56 -66 56z" />
    <glyph glyph-name="uni215F" unicode="&#x215f;" horiz-adv-x="525" 
d="M270 644l-69 -323q-6 -27 10 -33.5t63 -8.5h4l-6 -29h-248l6 29q55 2 71 8.5t22 33.5l55 257q-46 -21 -98 -35l-3 28l136 73h57zM765 730l-617 -853h-54l617 853h54z" />
    <glyph glyph-name="uni2189" unicode="&#x2189;" horiz-adv-x="920" 
d="M394 505q0 -110 -57 -187.5t-150 -77.5q-63 0 -98 36t-35 107q0 105 56.5 186.5t151.5 81.5q65 0 98.5 -38t33.5 -108zM195 274q31 0 55 27t37 67t19.5 78t6.5 68q0 99 -58 99q-52 0 -85.5 -77t-33.5 -162q0 -100 59 -100zM831 730l-617 -853h-54l617 853h54zM750 354
q-47 0 -87 -40l-23 26q53 61 140 61q49 0 79.5 -20.5t30.5 -61.5t-31 -69.5t-78 -37.5q39 -4 60.5 -25.5t21.5 -55.5q0 -73 -66 -112t-152 -39q-47 0 -74 9l-5 35q24 -6 60 -6q65 0 111 30t46 83q0 32 -16.5 44.5t-48.5 12.5q-12 0 -34 -2l10 43q9 -1 30 -1q38 0 61.5 19
t23.5 57q0 50 -59 50z" />
    <glyph glyph-name="arrowleft" unicode="&#x2190;" horiz-adv-x="1004" 
d="M967 263q0 -19 -13 -32t-32 -13t-32 13t-13 32t13 32t32 13t32 -13t13 -32zM799 263q0 -19 -13 -32t-32 -13t-32 13t-13 32t13 32t32 13t32 -13t13 -32zM631 263q0 -19 -13 -32t-32 -13t-32 13t-13 32t13 32t32 13t32 -13t13 -32zM463 263q0 -19 -13 -32t-32 -13t-32 13
t-13 32t13 32t32 13t32 -13t13 -32zM295 263q0 -19 -13 -32t-32 -13t-32 13t-13 32t13 32t32 13t32 -13t13 -32zM127 263q0 -19 -13 -32t-32 -13t-32 13t-13 32t13 32t32 13t32 -13t13 -32zM209 138q0 -19 -13 -32t-32 -13t-32 13t-13 32t13 32t32 13t32 -13t13 -32zM291 13
q0 -19 -13 -32t-32 -13t-32 13t-13 32t13 32t32 13t32 -13t13 -32zM373 -112q0 -19 -13 -32t-32 -13t-32 13t-13 32t13 32t32 13t32 -13t13 -32zM209 388q0 -19 -13 -32t-32 -13t-32 13t-13 32t13 32t32 13t32 -13t13 -32zM291 513q0 -19 -13 -32t-32 -13t-32 13t-13 32
t13 32t32 13t32 -13t13 -32zM373 638q0 -19 -13 -32t-32 -13t-32 13t-13 32t13 32t32 13t32 -13t13 -32z" />
    <glyph glyph-name="arrowup" unicode="&#x2191;" horiz-adv-x="1000" 
d="M500 -94q-19 0 -32 13t-13 32t13 32t32 13t32 -13t13 -32t-13 -32t-32 -13zM500 74q-19 0 -32 13t-13 32t13 32t32 13t32 -13t13 -32t-13 -32t-32 -13zM500 242q-19 0 -32 13t-13 32t13 32t32 13t32 -13t13 -32t-13 -32t-32 -13zM500 410q-19 0 -32 13t-13 32t13 32
t32 13t32 -13t13 -32t-13 -32t-32 -13zM500 578q-19 0 -32 13t-13 32t13 32t32 13t32 -13t13 -32t-13 -32t-32 -13zM500 746q-19 0 -32 13t-13 32t13 32t32 13t32 -13t13 -32t-13 -32t-32 -13zM375 664q-19 0 -32 13t-13 32t13 32t32 13t32 -13t13 -32t-13 -32t-32 -13z
M250 582q-19 0 -32 13t-13 32t13 32t32 13t32 -13t13 -32t-13 -32t-32 -13zM125 500q-19 0 -32 13t-13 32t13 32t32 13t32 -13t13 -32t-13 -32t-32 -13zM625 664q-19 0 -32 13t-13 32t13 32t32 13t32 -13t13 -32t-13 -32t-32 -13zM750 582q-19 0 -32 13t-13 32t13 32t32 13
t32 -13t13 -32t-13 -32t-32 -13zM875 500q-19 0 -32 13t-13 32t13 32t32 13t32 -13t13 -32t-13 -32t-32 -13z" />
    <glyph glyph-name="arrowright" unicode="&#x2192;" horiz-adv-x="1004" 
d="M37 263q0 19 13 32t32 13t32 -13t13 -32t-13 -32t-32 -13t-32 13t-13 32zM205 263q0 19 13 32t32 13t32 -13t13 -32t-13 -32t-32 -13t-32 13t-13 32zM373 263q0 19 13 32t32 13t32 -13t13 -32t-13 -32t-32 -13t-32 13t-13 32zM541 263q0 19 13 32t32 13t32 -13t13 -32
t-13 -32t-32 -13t-32 13t-13 32zM709 263q0 19 13 32t32 13t32 -13t13 -32t-13 -32t-32 -13t-32 13t-13 32zM877 263q0 19 13 32t32 13t32 -13t13 -32t-13 -32t-32 -13t-32 13t-13 32zM795 138q0 19 13 32t32 13t32 -13t13 -32t-13 -32t-32 -13t-32 13t-13 32zM713 13
q0 19 13 32t32 13t32 -13t13 -32t-13 -32t-32 -13t-32 13t-13 32zM631 -112q0 19 13 32t32 13t32 -13t13 -32t-13 -32t-32 -13t-32 13t-13 32zM795 388q0 19 13 32t32 13t32 -13t13 -32t-13 -32t-32 -13t-32 13t-13 32zM713 513q0 19 13 32t32 13t32 -13t13 -32t-13 -32
t-32 -13t-32 13t-13 32zM631 638q0 19 13 32t32 13t32 -13t13 -32t-13 -32t-32 -13t-32 13t-13 32z" />
    <glyph glyph-name="arrowdown" unicode="&#x2193;" horiz-adv-x="1000" 
d="M500 836q19 0 32 -13t13 -32t-13 -32t-32 -13t-32 13t-13 32t13 32t32 13zM500 668q19 0 32 -13t13 -32t-13 -32t-32 -13t-32 13t-13 32t13 32t32 13zM500 500q19 0 32 -13t13 -32t-13 -32t-32 -13t-32 13t-13 32t13 32t32 13zM500 332q19 0 32 -13t13 -32t-13 -32
t-32 -13t-32 13t-13 32t13 32t32 13zM500 164q19 0 32 -13t13 -32t-13 -32t-32 -13t-32 13t-13 32t13 32t32 13zM500 -4q19 0 32 -13t13 -32t-13 -32t-32 -13t-32 13t-13 32t13 32t32 13zM625 78q19 0 32 -13t13 -32t-13 -32t-32 -13t-32 13t-13 32t13 32t32 13zM750 160
q19 0 32 -13t13 -32t-13 -32t-32 -13t-32 13t-13 32t13 32t32 13zM875 242q19 0 32 -13t13 -32t-13 -32t-32 -13t-32 13t-13 32t13 32t32 13zM375 78q19 0 32 -13t13 -32t-13 -32t-32 -13t-32 13t-13 32t13 32t32 13zM250 160q19 0 32 -13t13 -32t-13 -32t-32 -13t-32 13
t-13 32t13 32t32 13zM125 242q19 0 32 -13t13 -32t-13 -32t-32 -13t-32 13t-13 32t13 32t32 13z" />
    <glyph glyph-name="uni2196" unicode="&#x2196;" horiz-adv-x="1011" 
d="M815 0q19 0 32 -13t13 -32t-13 -32t-32 -13t-32 13t-13 32t13 32t32 13zM696 119q19 0 32 -13t13 -32t-13 -32t-32 -13t-32 13t-13 32t13 32t32 13zM577 238q19 0 32 -13t13 -32t-13 -32t-32 -13t-32 13t-13 32t13 32t32 13zM459 357q19 0 32 -13t13 -32t-13 -32t-32 -13
t-32 13t-13 32t13 32t32 13zM340 475q19 0 32 -13t13 -32t-13 -32t-32 -13t-32 13t-13 32t13 32t32 13zM221 594q19 0 32 -13t13 -32t-13 -32t-32 -13t-32 13t-13 32t13 32t32 13zM190 447q19 0 32 -13t13 -32t-13 -32t-32 -13t-32 13t-13 32t13 32t32 13zM161 301
q19 0 32 -13t13 -32t-13 -32t-32 -13t-32 13t-13 32t13 32t32 13zM130 155q19 0 32 -13t13 -32t-13 -32t-32 -13t-32 13t-13 32t13 32t32 13zM367 625q19 0 32 -13t13 -32t-13 -32t-32 -13t-32 13t-13 32t13 32t32 13zM513 655q19 0 32 -13t13 -32t-13 -32t-32 -13t-32 13
t-13 32t13 32t32 13zM661 685q19 0 32 -13t13 -32t-13 -32t-32 -13t-32 13t-13 32t13 32t32 13z" />
    <glyph glyph-name="uni2197" unicode="&#x2197;" horiz-adv-x="1011" 
d="M196 0q19 0 32 -13t13 -32t-13 -32t-32 -13t-32 13t-13 32t13 32t32 13zM315 119q19 0 32 -13t13 -32t-13 -32t-32 -13t-32 13t-13 32t13 32t32 13zM434 238q19 0 32 -13t13 -32t-13 -32t-32 -13t-32 13t-13 32t13 32t32 13zM552 357q19 0 32 -13t13 -32t-13 -32t-32 -13
t-32 13t-13 32t13 32t32 13zM671 475q19 0 32 -13t13 -32t-13 -32t-32 -13t-32 13t-13 32t13 32t32 13zM790 594q19 0 32 -13t13 -32t-13 -32t-32 -13t-32 13t-13 32t13 32t32 13zM821 447q19 0 32 -13t13 -32t-13 -32t-32 -13t-32 13t-13 32t13 32t32 13zM850 301
q19 0 32 -13t13 -32t-13 -32t-32 -13t-32 13t-13 32t13 32t32 13zM881 155q19 0 32 -13t13 -32t-13 -32t-32 -13t-32 13t-13 32t13 32t32 13zM644 625q19 0 32 -13t13 -32t-13 -32t-32 -13t-32 13t-13 32t13 32t32 13zM498 655q19 0 32 -13t13 -32t-13 -32t-32 -13t-32 13
t-13 32t13 32t32 13zM350 685q19 0 32 -13t13 -32t-13 -32t-32 -13t-32 13t-13 32t13 32t32 13z" />
    <glyph glyph-name="uni2198" unicode="&#x2198;" horiz-adv-x="1011" 
d="M196 595q-19 0 -32 13t-13 32t13 32t32 13t32 -13t13 -32t-13 -32t-32 -13zM315 476q-19 0 -32 13t-13 32t13 32t32 13t32 -13t13 -32t-13 -32t-32 -13zM434 357q-19 0 -32 13t-13 32t13 32t32 13t32 -13t13 -32t-13 -32t-32 -13zM552 238q-19 0 -32 13t-13 32t13 32
t32 13t32 -13t13 -32t-13 -32t-32 -13zM671 120q-19 0 -32 13t-13 32t13 32t32 13t32 -13t13 -32t-13 -32t-32 -13zM790 1q-19 0 -32 13t-13 32t13 32t32 13t32 -13t13 -32t-13 -32t-32 -13zM821 148q-19 0 -32 13t-13 32t13 32t32 13t32 -13t13 -32t-13 -32t-32 -13z
M850 294q-19 0 -32 13t-13 32t13 32t32 13t32 -13t13 -32t-13 -32t-32 -13zM881 440q-19 0 -32 13t-13 32t13 32t32 13t32 -13t13 -32t-13 -32t-32 -13zM644 -30q-19 0 -32 13t-13 32t13 32t32 13t32 -13t13 -32t-13 -32t-32 -13zM498 -60q-19 0 -32 13t-13 32t13 32t32 13
t32 -13t13 -32t-13 -32t-32 -13zM350 -90q-19 0 -32 13t-13 32t13 32t32 13t32 -13t13 -32t-13 -32t-32 -13z" />
    <glyph glyph-name="uni2199" unicode="&#x2199;" horiz-adv-x="1011" 
d="M815 595q-19 0 -32 13t-13 32t13 32t32 13t32 -13t13 -32t-13 -32t-32 -13zM696 476q-19 0 -32 13t-13 32t13 32t32 13t32 -13t13 -32t-13 -32t-32 -13zM577 357q-19 0 -32 13t-13 32t13 32t32 13t32 -13t13 -32t-13 -32t-32 -13zM459 238q-19 0 -32 13t-13 32t13 32
t32 13t32 -13t13 -32t-13 -32t-32 -13zM340 120q-19 0 -32 13t-13 32t13 32t32 13t32 -13t13 -32t-13 -32t-32 -13zM221 1q-19 0 -32 13t-13 32t13 32t32 13t32 -13t13 -32t-13 -32t-32 -13zM190 148q-19 0 -32 13t-13 32t13 32t32 13t32 -13t13 -32t-13 -32t-32 -13z
M161 294q-19 0 -32 13t-13 32t13 32t32 13t32 -13t13 -32t-13 -32t-32 -13zM130 440q-19 0 -32 13t-13 32t13 32t32 13t32 -13t13 -32t-13 -32t-32 -13zM367 -30q-19 0 -32 13t-13 32t13 32t32 13t32 -13t13 -32t-13 -32t-32 -13zM513 -60q-19 0 -32 13t-13 32t13 32t32 13
t32 -13t13 -32t-13 -32t-32 -13zM661 -90q-19 0 -32 13t-13 32t13 32t32 13t32 -13t13 -32t-13 -32t-32 -13z" />
    <glyph glyph-name="partialdiff" unicode="&#x2202;" horiz-adv-x="527" 
d="M279 438q65 0 112 -32q-26 216 -233 285l31 33q303 -78 303 -386q0 -157 -79 -254.5t-194 -97.5q-84 0 -131.5 45t-47.5 134q0 70 23 125t59.5 86t77 46.5t79.5 15.5zM235 36q46 0 79 32.5t49 85t23 101.5t8 100q-39 35 -99 35q-72 0 -114 -58.5t-42 -173.5
q0 -122 96 -122z" />
    <glyph glyph-name="Delta" unicode="&#x2206;" horiz-adv-x="576" 
d="M511 0h-501l5 25l320 563h74l107 -563zM93 52h319l-59 342q-11 65 -11 111h-4q-12 -35 -56 -113z" />
    <glyph glyph-name="product" unicode="&#x220f;" horiz-adv-x="699" 
d="M212 595v-670q0 -44 15.5 -59.5t64.5 -16.5v-35h-255v35q49 1 64.5 16.5t15.5 59.5v608q0 44 -15.5 59.5t-64.5 16.5v35h625v-35q-49 -1 -64.5 -16.5t-15.5 -59.5v-608q0 -44 15.5 -59.5t64.5 -16.5v-35h-255v35q49 1 64.5 16.5t15.5 59.5v670h-275z" />
    <glyph glyph-name="summation" unicode="&#x2211;" horiz-adv-x="529" 
d="M410 289l-291 -396v-4h221q57 0 77.5 23t26.5 93h45v-191h-472v43l286 396l-286 391v45h462l10 -150h-42q-17 60 -35.5 80.5t-60.5 20.5h-196v-4z" />
    <glyph glyph-name="minus" unicode="&#x2212;" horiz-adv-x="580" 
d="M55 245l10 53h465l-10 -53h-465z" />
    <glyph glyph-name="uni2219" unicode="&#x2219;" horiz-adv-x="580" 
d="M463 335q0 -73 -51 -125t-123 -52t-122.5 51.5t-50.5 125.5t50.5 125.5t122.5 51.5t123 -52t51 -125z" />
    <glyph glyph-name="radical" unicode="&#x221a;" horiz-adv-x="568" 
d="M187 0l-58 388q-6 41 -22.5 54t-66.5 15l6 34h168l36 -316q3 -33 3 -65q0 -9 -0.5 -19.5t-0.5 -11.5h4q20 49 45 95l292 536h55l-391 -710h-70z" />
    <glyph glyph-name="infinity" unicode="&#x221e;" horiz-adv-x="960" 
d="M428 357l70 -55q62 64 121.5 92t136.5 28q60 0 107 -35.5t47 -112.5q0 -94 -59.5 -141t-147.5 -47q-51 0 -87 15t-82 52l-73 58q-126 -120 -257 -120q-61 0 -107.5 35.5t-46.5 114.5q0 85 62.5 135.5t145.5 50.5q48 0 85 -15.5t85 -54.5zM233 356q-52 0 -83.5 -31.5
t-31.5 -77.5q0 -99 105 -99q94 0 208 90l-104 83q-44 35 -94 35zM731 155q54 0 85 32t31 81t-30 73t-80 24q-100 0 -212 -89l107 -84q46 -37 99 -37z" />
    <glyph glyph-name="integral" unicode="&#x222b;" horiz-adv-x="334" 
d="M45 -45l168 630q18 69 67 107t120 38q54 0 94 -18l-16 -83h-61v7q0 45 -36 45q-29 0 -47 -21.5t-31 -73.5l-167 -627q-19 -69 -67.5 -107t-118.5 -38q-55 0 -95 18l16 80h61v-4q0 -48 36 -48q28 0 46 22t31 73z" />
    <glyph glyph-name="approxequal" unicode="&#x2248;" horiz-adv-x="602" 
d="M552 378q-58 -86 -138 -86q-39 0 -102 35.5t-98 35.5q-19 0 -37.5 -11.5t-29 -23t-27.5 -34.5l-35 38q24 39 62 65t82 26q40 0 104 -36t97 -36q18 0 34 9t25 19l25 29l7 9zM522 225q-58 -86 -138 -86q-39 0 -102 35.5t-98 35.5q-19 0 -37.5 -11.5t-29 -23t-27.5 -34.5
l-35 38q24 38 62.5 64.5t82.5 26.5q40 0 104 -36t97 -36q18 0 34 9t24 18t25 30l7 9z" />
    <glyph glyph-name="notequal" unicode="&#x2260;" horiz-adv-x="609" 
d="M84 321l10 53h270l110 140l40 -26l-89 -114h134l-10 -53h-166l-75 -95h222l-10 -53h-253l-116 -148l-41 27l96 121h-151l10 53h182l75 95h-238z" />
    <glyph glyph-name="lessequal" unicode="&#x2264;" horiz-adv-x="566" 
d="M442 136l-340 138l14 72l400 172l-12 -68l-333 -139l283 -116zM55 32l10 53h367l-10 -53h-367z" />
    <glyph glyph-name="greaterequal" unicode="&#x2265;" horiz-adv-x="533" 
d="M469 274l-394 -138l12 63l329 116l-279 139l12 64l334 -172zM432 85l-10 -53h-367l10 53h367z" />
    <glyph glyph-name="dotmath" unicode="&#x22c5;" horiz-adv-x="580" 
d="M361 278q0 -31 -20 -52t-51 -21t-51 21t-20 52t20 52t51 21t51 -21t20 -52z" />
    <glyph glyph-name="uni25B4" unicode="&#x25b4;" horiz-adv-x="516" 
d="M248 543l178 -386h-356z" />
    <glyph glyph-name="uni25B8" unicode="&#x25b8;" horiz-adv-x="516" 
d="M476 350l-386 -178v356z" />
    <glyph glyph-name="uni25BE" unicode="&#x25be;" horiz-adv-x="516" 
d="M268 137l-178 386h356z" />
    <glyph glyph-name="uni25C2" unicode="&#x25c2;" horiz-adv-x="516" 
d="M40 350l386 178v-356z" />
    <glyph glyph-name="lozenge" unicode="&#x25ca;" horiz-adv-x="567" 
d="M542 344l-267 -344h-86l-129 344l263 343h86zM463 343l-109 293l-218 -293l104 -294z" />
    <glyph glyph-name="uniFB00" unicode="&#xfb00;" horiz-adv-x="579" 
d="M614 730q55 0 95 -18l-17 -83h-61q0 58 -34 58q-29 0 -48.5 -19.5t-29.5 -68.5l-21 -108h121l-25 -55h-106l-90 -450q-33 -161 -153 -161q-29 0 -61 16v31q63 4 89 25.5t37 80.5l89 458h-187l-93 -463q-33 -161 -153 -161q-29 0 -61 16v31q63 4 89 25.5t37 80.5l92 471
h-63l6 32l66 22l15 63q41 169 213 169q64 0 130 -34q50 42 124 42zM222 491h188l19 93q5 23 5 38q0 57 -85 57q-88 0 -110 -107z" />
    <glyph glyph-name="fi" unicode="&#xfb01;" horiz-adv-x="523" 
d="M222 491h172q74 0 74 -66q0 -23 -8 -58l-56 -245q-6 -24 -6 -40q0 -18 9.5 -26t32.5 -8q14 0 37 3l3 -31q-64 -29 -112 -29q-66 0 -66 74q0 23 8 57l56 232q6 26 6 42q0 22 -12 31t-40 9h-108l-93 -463q-33 -161 -153 -161q-29 0 -61 16v31q63 4 89 25.5t37 80.5l92 471
h-63l6 32l66 22l15 68q38 172 208 172q82 0 127 -28l-20 -94h-71q0 42 -11 60.5t-47 18.5q-72 0 -91 -95z" />
    <glyph glyph-name="fl" unicode="&#xfb02;" horiz-adv-x="539" 
d="M325 122l101 471q3 15 3 28q0 66 -78 66q-46 0 -73 -25.5t-39 -87.5l-17 -83h121l-25 -55h-106l-93 -463q-33 -161 -153 -161q-29 0 -61 16v31q63 4 89 25.5t37 80.5l92 471h-63l6 32l66 22l14 64q39 176 201 176q60 0 103 -27l60 27h13q5 -15 5 -47q0 -56 -15 -122
l-94 -439q-6 -30 -6 -41q0 -18 9.5 -25.5t33.5 -7.5q16 0 40 3l3 -31q-62 -29 -110 -29q-70 0 -70 76q0 23 6 55z" />
    <glyph glyph-name="uniFB03" unicode="&#xfb03;" horiz-adv-x="799" 
d="M224 491h188l19 93q5 23 5 38q0 57 -85 57q-88 0 -110 -107zM596 436h-106l-90 -450q-33 -161 -153 -161q-29 0 -61 16v31q63 4 89 25.5t37 80.5l89 458h-187l-93 -463q-33 -161 -153 -161q-29 0 -61 16v31q63 4 89 25.5t37 80.5l92 471h-63l6 32l66 22l15 63
q41 169 213 169q64 0 130 -34q50 42 136 42q85 0 130 -28l-20 -94h-71q0 42 -11 60.5t-47 18.5q-72 0 -91 -95l-20 -101h172q74 0 74 -66q0 -23 -8 -58l-56 -245q-6 -24 -6 -40q0 -18 9.5 -26t32.5 -8q14 0 37 3l3 -31q-64 -29 -112 -29q-66 0 -66 74q0 23 8 57l56 232
q6 26 6 42q0 22 -12 31t-40 9z" />
    <glyph glyph-name="uniFB04" unicode="&#xfb04;" horiz-adv-x="815" 
d="M222 491h188l19 93q5 23 5 38q0 57 -85 57q-88 0 -110 -107zM627 687q-46 0 -73 -25.5t-39 -87.5l-17 -83h121l-25 -55h-106l-90 -450q-33 -161 -153 -161q-29 0 -61 16v31q63 4 89 25.5t37 80.5l89 458h-187l-93 -463q-33 -161 -153 -161q-29 0 -61 16v31q63 4 89 25.5
t37 80.5l92 471h-63l6 32l66 22l15 63q41 169 213 169q64 0 130 -34q50 42 133 42q60 0 103 -27l60 27h13q5 -15 5 -47q0 -56 -15 -122l-94 -439q-6 -30 -6 -41q0 -18 9.5 -25.5t33.5 -7.5q16 0 40 3l3 -31q-62 -29 -110 -29q-70 0 -70 76q0 23 6 55l101 471q3 15 3 28
q0 66 -78 66z" />
    <glyph glyph-name="i.latn_TRK" horiz-adv-x="268" 
d="M205 367l-56 -245q-6 -24 -6 -40q0 -18 9.5 -26t32.5 -8q15 0 37 3l3 -31q-64 -29 -112 -29q-66 0 -66 74q0 23 8 57l56 232q6 22 6 38q0 26 -18.5 37.5t-59.5 11.5l7 31q48 24 100 24q67 0 67 -71q0 -23 -8 -58zM258 644q0 -26 -18 -44.5t-44 -18.5t-44 18.5t-18 44.5
t18 44.5t44 18.5t44 -18.5t18 -44.5z" />
    <glyph glyph-name="Ldot.latn_CAT" horiz-adv-x="532" 
d="M175 49h141q54 0 82.5 25.5t56.5 94.5h44l-47 -169h-464l6 35q50 1 68.5 16.5t26.5 59.5l91 467q4 22 4 32q0 24 -15 33t-54 11l6 35h263l-6 -35q-52 -1 -72 -18t-29 -61zM548 369q0 -31 -20 -52t-51 -21t-51 21t-20 52t20 52t51 21t51 -21t20 -52z" />
    <glyph glyph-name="ldot.latn_CAT" horiz-adv-x="366" 
d="M240 561l-94 -439q-6 -30 -6 -41q0 -18 9.5 -25.5t33.5 -7.5q16 0 40 3l3 -31q-62 -29 -110 -29q-70 0 -70 76q0 23 6 55l100 465q4 19 4 36q0 27 -16 38t-53 13l7 30l143 26h13q6 -18 6 -47q0 -51 -16 -122zM386 347q0 -27 -18 -45.5t-44 -18.5q-27 0 -44.5 18.5
t-17.5 45.5t17.5 45.5t44.5 18.5q26 0 44 -18.5t18 -45.5z" />
    <glyph glyph-name="zero.numr" horiz-adv-x="400" 
d="M394 505q0 -110 -57 -187.5t-150 -77.5q-63 0 -98 36t-35 107q0 105 56.5 186.5t151.5 81.5q65 0 98.5 -38t33.5 -108zM195 274q31 0 55 27t37 67t19.5 78t6.5 68q0 99 -58 99q-52 0 -85.5 -77t-33.5 -162q0 -100 59 -100z" />
    <glyph glyph-name="one.numr" horiz-adv-x="304" 
d="M270 644l-69 -323q-6 -27 10 -33.5t63 -8.5h4l-6 -29h-248l6 29q55 2 71 8.5t22 33.5l55 257q-46 -21 -98 -35l-3 28l136 73h57z" />
    <glyph glyph-name="two.numr" horiz-adv-x="343" 
d="M232 651q54 0 84.5 -23.5t30.5 -68.5q0 -28 -11.5 -52.5t-39.5 -51.5t-50 -44l-69 -51l-71 -52h220l-22 -58h-280l9 41l95 80q58 49 80 69t39 48t17 58q0 54 -61 54q-52 0 -106 -52l-19 28q53 75 154 75z" />
    <glyph glyph-name="three.numr" horiz-adv-x="329" 
d="M183 604q-47 0 -87 -40l-23 26q53 61 140 61q49 0 79.5 -20.5t30.5 -61.5t-31 -69.5t-78 -37.5q39 -4 60.5 -25.5t21.5 -55.5q0 -73 -66 -112t-152 -39q-47 0 -74 9l-5 35q24 -6 60 -6q65 0 111 30t46 83q0 32 -16.5 44.5t-48.5 12.5q-12 0 -34 -2l10 43q9 -1 30 -1
q38 0 61.5 19t23.5 57q0 50 -59 50z" />
    <glyph glyph-name="four.numr" horiz-adv-x="367" 
d="M198 229l24 112h-198l5 25l211 278h76l-221 -267h134q19 88 58 160l58 10l-36 -170h52l-7 -36h-52l-22 -101z" />
    <glyph glyph-name="five.numr" horiz-adv-x="322" 
d="M300 391q0 -75 -64.5 -118.5t-149.5 -43.5q-43 0 -78 11l-4 35q34 -8 73 -8q58 0 99 27t41 86q0 61 -68 61q-33 0 -78 -15l68 218h207l-22 -57h-159l-37 -115q25 11 61 11q53 0 82 -24t29 -68z" />
    <glyph glyph-name="six.numr" horiz-adv-x="359" 
d="M363 642q-85 -29 -138 -71.5t-81 -114.5q50 37 104 37q45 0 72 -25.5t27 -72.5q0 -63 -51.5 -109t-115.5 -46q-62 0 -96.5 33t-34.5 96q0 112 94 195.5t217 107.5zM219 453q-32 0 -83 -33q-11 -31 -11 -68q0 -76 59 -76q31 0 59 32t28 88q0 33 -13.5 45t-38.5 12z" />
    <glyph glyph-name="seven.numr" horiz-adv-x="304" 
d="M368 644l-17 -39q-150 -150 -236 -357l-91 -16q42 92 114.5 188.5t146.5 165.5h-216l22 58h277z" />
    <glyph glyph-name="eight.numr" horiz-adv-x="357" 
d="M34 344q0 78 124 108q-61 37 -61 95q0 49 43.5 76.5t104.5 27.5q58 0 92 -24t34 -64q0 -73 -111 -98q40 -20 63 -41.5t23 -54.5q0 -56 -48 -90t-119 -34q-70 0 -107.5 27.5t-37.5 71.5zM107 345q0 -29 21.5 -46.5t55.5 -17.5q38 0 64.5 17.5t26.5 50.5q0 20 -12.5 35.5
t-27 24.5t-49.5 28q-39 -18 -59 -38t-20 -54zM236 617q-70 0 -70 -58q0 -36 67 -78q27 10 48 30.5t21 49.5q0 56 -66 56z" />
    <glyph glyph-name="nine.numr" horiz-adv-x="373" 
d="M61 219l-22 25q92 31 152 74.5t86 116.5q-50 -37 -104 -37q-45 0 -72 27t-27 75q0 67 50 109t117 42q62 0 96.5 -33t34.5 -96q0 -81 -47 -147t-115.5 -103.5t-148.5 -52.5zM202 438q32 0 83 33q11 31 11 68q0 76 -59 76q-38 0 -62.5 -29t-24.5 -81q0 -67 52 -67z" />
    <glyph glyph-name="zero.dnom" horiz-adv-x="400" 
d="M370 255q0 -110 -57 -187.5t-150 -77.5q-63 0 -98 36t-35 107q0 105 56.5 186.5t151.5 81.5q65 0 98.5 -38t33.5 -108zM171 24q31 0 55 27t37 67t19.5 78t6.5 68q0 99 -58 99q-52 0 -85.5 -77t-33.5 -162q0 -100 59 -100z" />
    <glyph glyph-name="one.dnom" horiz-adv-x="304" 
d="M246 394l-69 -323q-6 -26 9 -33t68 -9l-6 -29h-248l6 29q55 2 71 8.5t22 33.5l55 257q-46 -21 -98 -35l-3 28l136 73h57z" />
    <glyph glyph-name="two.dnom" horiz-adv-x="343" 
d="M208 401q54 0 84.5 -23.5t30.5 -68.5q0 -28 -11.5 -52.5t-39.5 -51.5t-50 -44l-69 -51l-71 -52h220l-22 -58h-280l9 41l95 80q58 49 80 69t39 48t17 58q0 54 -61 54q-52 0 -106 -52l-19 28q53 75 154 75z" />
    <glyph glyph-name="three.dnom" horiz-adv-x="329" 
d="M159 354q-47 0 -87 -40l-23 26q53 61 140 61q49 0 79.5 -20.5t30.5 -61.5t-31 -69.5t-78 -37.5q39 -4 60.5 -25.5t21.5 -55.5q0 -73 -66 -112t-152 -39q-47 0 -74 9l-5 35q24 -6 60 -6q65 0 111 30t46 83q0 32 -16.5 44.5t-48.5 12.5q-12 0 -34 -2l10 43q9 -1 30 -1
q38 0 61.5 19t23.5 57q0 50 -59 50z" />
    <glyph glyph-name="four.dnom" horiz-adv-x="367" 
d="M174 -21l24 112h-198l5 25l211 278h76l-221 -267h134q19 88 58 160l58 10l-36 -170h52l-7 -36h-52l-22 -101z" />
    <glyph glyph-name="five.dnom" horiz-adv-x="322" 
d="M276 141q0 -75 -64.5 -118.5t-149.5 -43.5q-43 0 -78 11l-4 35q34 -8 73 -8q58 0 99 27t41 86q0 61 -68 61q-33 0 -78 -15l68 218h207l-22 -57h-159l-37 -115q25 11 61 11q53 0 82 -24t29 -68z" />
    <glyph glyph-name="six.dnom" horiz-adv-x="359" 
d="M339 392q-85 -29 -138 -71.5t-81 -114.5q50 37 104 37q45 0 72 -25.5t27 -72.5q0 -63 -51.5 -109t-115.5 -46q-62 0 -96.5 33t-34.5 96q0 112 94 195.5t217 107.5zM195 203q-32 0 -83 -33q-11 -31 -11 -68q0 -76 59 -76q31 0 59 32t28 88q0 33 -13.5 45t-38.5 12z" />
    <glyph glyph-name="seven.dnom" horiz-adv-x="304" 
d="M344 394l-17 -39q-150 -150 -236 -357l-91 -16q42 92 114.5 188.5t146.5 165.5h-216l22 58h277z" />
    <glyph glyph-name="eight.dnom" horiz-adv-x="357" 
d="M10 94q0 78 124 108q-61 37 -61 95q0 49 43.5 76.5t104.5 27.5q58 0 92 -24t34 -64q0 -73 -111 -98q40 -20 63 -41.5t23 -54.5q0 -56 -48 -90t-119 -34q-70 0 -107.5 27.5t-37.5 71.5zM83 95q0 -29 21.5 -46.5t55.5 -17.5q38 0 64.5 17.5t26.5 50.5q0 20 -12.5 35.5
t-27 24.5t-49.5 28q-39 -18 -59 -38t-20 -54zM212 367q-70 0 -70 -58q0 -36 67 -78q27 10 48 30.5t21 49.5q0 56 -66 56z" />
    <glyph glyph-name="nine.dnom" horiz-adv-x="373" 
d="M37 -31l-22 25q92 31 152 74.5t86 116.5q-50 -37 -104 -37q-45 0 -72 27t-27 75q0 67 50 109t117 42q62 0 96.5 -33t34.5 -96q0 -81 -47 -147t-115.5 -103.5t-148.5 -52.5zM178 188q32 0 83 33q11 31 11 68q0 76 -59 76q-38 0 -62.5 -29t-24.5 -81q0 -67 52 -67z" />
    <glyph glyph-name="space.frac" horiz-adv-x="45" 
 />
    <glyph glyph-name="zero.tf" 
d="M564 428q0 -120 -38 -220t-112 -161t-169 -61q-97 0 -151 60t-54 177q0 111 36 211t111 167.5t174 67.5t151 -62.5t52 -178.5zM256 33q67 0 116 64q46 60 69.5 157t23.5 179q0 188 -114 188q-68 0 -122 -71q-43 -57 -68 -143.5t-25 -173.5q0 -200 120 -200z" />
    <glyph glyph-name="one.tf" 
d="M428 657l-117 -549q-2 -10 -2 -15q0 -29 29 -42t97 -13h12l-7 -38h-384l7 38h5q71 0 107.5 14.5t45.5 56.5l96 456q-97 -46 -156 -64l-6 33l215 123h58z" />
    <glyph glyph-name="two.tf" 
d="M335 667q81 0 128 -41t47 -113q0 -40 -14.5 -79.5t-35 -71.5t-61.5 -72.5t-76.5 -71l-96.5 -79.5l-82 -66h334l-27 -73h-422l9 46l185 162q99 87 143.5 152.5t44.5 144.5q0 45 -27.5 72t-74.5 27q-87 0 -155 -68l-29 31q84 100 210 100z" />
    <glyph glyph-name="three.tf" 
d="M312 602q-76 0 -153 -63l-29 33q42 44 96 69t109 25q79 0 126 -37.5t47 -109.5q0 -56 -43 -106.5t-112 -73.5q59 -13 89 -44.5t30 -89.5q0 -74 -50 -129.5t-123 -82t-154 -26.5q-67 0 -118 16l-11 42q64 -10 112 -10q102 0 173 53t71 151q0 54 -32.5 74.5t-101.5 20.5
q-11 0 -45 -2l9 52q24 -3 56 -3q68 0 110 42.5t42 109.5q0 89 -98 89z" />
    <glyph glyph-name="four.tf" 
d="M304 -33l42 197h-303l9 42l318 453h98l-342 -446h231q32 146 99 276l55 10l-61 -286h84l-11 -49h-84l-38 -178z" />
    <glyph glyph-name="five.tf" 
d="M468 227q0 -85 -45.5 -145.5t-114.5 -87.5t-153 -27q-69 0 -125 21l-9 46q54 -18 118 -18q102 0 166 49t64 147q0 112 -105 112q-65 0 -132 -24l93 352h319l-30 -75h-250l-56 -210q49 13 94 13q74 0 120 -40.5t46 -112.5z" />
    <glyph glyph-name="six.tf" 
d="M542 700l7 -41q-265 -104 -358 -318q30 28 79.5 46.5t101.5 18.5q67 0 109 -45t42 -119q0 -111 -72.5 -183.5t-173.5 -72.5q-94 0 -148.5 56.5t-54.5 160.5q0 95 38 177t105 142.5t148 104t177 73.5zM424 232q0 113 -91 113q-34 0 -78 -13.5t-78 -38.5q-14 -47 -14 -101
q0 -68 27 -113t88 -45q63 0 104.5 55t41.5 143z" />
    <glyph glyph-name="seven.tf" 
d="M591 651l-27 -64q-176 -185 -343 -595l-111 -26q71 160 176 328t210 282h-352l28 75h419z" />
    <glyph glyph-name="eight.tf" 
d="M558 521q0 -64 -43 -110t-127 -68q69 -37 95.5 -75t26.5 -86q0 -81 -65 -138.5t-175 -57.5q-106 0 -165.5 49t-59.5 126q0 128 198 184q-44 22 -72 62.5t-28 83.5q0 77 61 129t157 52q92 0 144.5 -44t52.5 -107zM417 170q0 43 -26.5 74.5t-109.5 73.5q-61 -21 -101.5 -63
t-40.5 -98q0 -59 33 -92.5t99 -33.5q70 0 108 40t38 99zM470 526q0 44 -28.5 70.5t-84.5 26.5q-54 0 -88 -32.5t-34 -86.5q0 -74 113 -132q122 38 122 154z" />
    <glyph glyph-name="nine.tf" 
d="M536 451q0 -108 -40.5 -196t-112.5 -147.5t-160 -98t-193 -58.5l-25 40q142 34 255.5 116.5t149.5 170.5q-70 -48 -152 -48q-80 0 -129.5 48.5t-49.5 127.5q0 110 74.5 187t180.5 77q93 0 147.5 -57.5t54.5 -161.5zM426 337q21 52 21 119q0 69 -27.5 116t-87.5 47
q-69 0 -114 -58t-45 -148q0 -59 27.5 -92t79.5 -33q86 0 146 49z" />
    <glyph glyph-name="uni2007.tf" 
 />
    <glyph glyph-name="zero.lf" horiz-adv-x="610" 
d="M584 428q0 -120 -38 -220t-112 -161t-169 -61q-96 0 -150.5 64.5t-54.5 182.5q0 111 36 208.5t111 162.5t174 65q96 0 149.5 -63.5t53.5 -177.5zM276 33q67 0 116 64q46 60 69.5 157t23.5 179q0 188 -114 188q-68 0 -122 -71q-43 -57 -68 -143.5t-25 -173.5
q0 -200 120 -200z" />
    <glyph glyph-name="one.lf" horiz-adv-x="383" 
d="M337 657l-117 -549q-4 -20 -4 -32q0 -25 21 -33t69 -9l-7 -34h-294l7 34q64 3 83 13q24 12 35 62l96 456q-54 -27 -127 -48l-6 33l186 107h58z" />
    <glyph glyph-name="two.lf" horiz-adv-x="462" 
d="M277 667q81 0 128 -41t47 -113q0 -40 -14.5 -79.5t-35 -71.5t-61.5 -72.5t-76.5 -71l-96.5 -79.5l-82 -66h314l-27 -73h-402l9 46l185 162q99 87 143.5 153t44.5 144q0 45 -27.5 72t-74.5 27q-87 0 -155 -68l-29 31q84 100 210 100z" />
    <glyph glyph-name="three.lf" horiz-adv-x="478" 
d="M256 602q-76 0 -153 -63l-29 33q42 44 96 69t109 25q79 0 126 -37.5t47 -109.5q0 -56 -43 -106.5t-112 -73.5q59 -13 89 -44.5t30 -89.5q0 -74 -50 -129.5t-123 -82t-154 -26.5q-67 0 -118 16l-11 42q64 -10 112 -10q102 0 173 53t71 151q0 54 -32.5 74.5t-101.5 20.5
q-11 0 -45 -2l9 52q24 -3 56 -3q68 0 110 42.5t42 109.5q0 89 -98 89z" />
    <glyph glyph-name="four.lf" horiz-adv-x="532" 
d="M276 -33l42 197h-303l9 42l318 453h98l-342 -446h231q32 146 99 276l55 10l-61 -286h84l-11 -49h-84l-38 -178z" />
    <glyph glyph-name="five.lf" horiz-adv-x="459" 
d="M407 227q0 -85 -45.5 -145.5t-114.5 -87.5t-153 -27q-69 0 -125 21l-9 46q54 -18 118 -18q102 0 166 49t64 147q0 112 -105 112q-65 0 -132 -24l93 352h319l-30 -75h-250l-56 -210q49 13 94 13q74 0 120 -40.5t46 -112.5z" />
    <glyph glyph-name="six.lf" horiz-adv-x="556" 
d="M523 700l7 -41q-265 -104 -358 -318q30 28 79.5 46.5t101.5 18.5q67 0 109 -45t42 -119q0 -111 -72.5 -183.5t-173.5 -72.5q-94 0 -148.5 56.5t-54.5 160.5q0 95 38 177t105 142.5t148 104t177 73.5zM405 232q0 113 -91 113q-34 0 -78 -13.5t-78 -38.5q-14 -47 -14 -101
q0 -68 27 -113t88 -45q63 0 104.5 55t41.5 143z" />
    <glyph glyph-name="seven.lf" horiz-adv-x="467" 
d="M513 651l-27 -64q-176 -185 -343 -595l-111 -26q71 160 176 328t210 282h-332l28 75h399z" />
    <glyph glyph-name="eight.lf" horiz-adv-x="559" 
d="M548 521q0 -64 -43 -110t-127 -68q69 -37 95.5 -75t26.5 -86q0 -81 -65 -138.5t-175 -57.5q-106 0 -165.5 49t-59.5 126q0 128 198 184q-44 22 -72 62.5t-28 83.5q0 77 61 129t157 52q92 0 144.5 -44t52.5 -107zM407 170q0 43 -26.5 74.5t-109.5 73.5q-61 -21 -101.5 -63
t-40.5 -98q0 -59 33 -92.5t99 -33.5q70 0 108 40t38 99zM460 526q0 44 -28.5 70.5t-84.5 26.5q-54 0 -88 -32.5t-34 -86.5q0 -74 113 -132q122 38 122 154z" />
    <glyph glyph-name="nine.lf" horiz-adv-x="552" 
d="M530 451q0 -108 -40.5 -196t-112.5 -147.5t-160 -98t-193 -58.5l-25 40q142 34 255.5 116.5t149.5 170.5q-70 -48 -152 -48q-80 0 -129.5 48.5t-49.5 127.5q0 110 74.5 187t180.5 77q93 0 147.5 -57.5t54.5 -161.5zM420 337q21 52 21 119q0 69 -27.5 116t-87.5 47
q-69 0 -114 -58t-45 -148q0 -59 27.5 -92t79.5 -33q86 0 146 49z" />
    <glyph glyph-name="zero.tosf" 
d="M523 316q0 -134 -75 -232t-198 -98q-98 0 -150.5 54t-52.5 149q0 86 30.5 161t94 125t146.5 50q98 0 151.5 -56t53.5 -153zM424 342q0 132 -110 132q-69 0 -112 -63q-62 -89 -62 -242q0 -133 112 -133q57 0 99 45q73 81 73 261z" />
    <glyph glyph-name="one.tosf" 
d="M403 513l-87 -405q-9 -41 26 -56t110 -18l-7 -34h-384l7 34q76 3 112.5 17.5t45.5 57.5l66 315q-57 -40 -161 -71l-6 33l220 127h58z" />
    <glyph glyph-name="two.tosf" 
d="M313 525q79 0 121 -35.5t42 -96.5q0 -78 -62.5 -143t-200.5 -148l-48 -29h310l-27 -73h-412l9 46l132 89q102 68 148.5 122.5t46.5 124.5q0 78 -91 78q-73 0 -140 -69l-29 34q34 45 86.5 72.5t114.5 27.5z" />
    <glyph glyph-name="three.tosf" 
d="M273 461q-76 0 -153 -63l-29 33q42 44 96 69t109 25q79 0 126 -37.5t47 -109.5q0 -56 -43 -106.5t-112 -73.5q118 -25 118 -133q0 -102 -100 -165.5t-225 -63.5q-66 0 -119 15l-11 43q64 -10 97 -10q110 0 184 49.5t74 144.5q0 52 -33 73.5t-100 21.5q-11 0 -45 -2l9 52
q24 -3 56 -3q68 0 110 42.5t42 109.5q0 89 -98 89z" />
    <glyph glyph-name="four.tosf" 
d="M273 -179l42 197h-303l9 42l318 453h98l-342 -446h231q32 146 99 276l55 10l-61 -286h84l-11 -49h-84l-38 -178z" />
    <glyph glyph-name="five.tosf" 
d="M441 90q0 -123 -91 -188.5t-222 -65.5q-69 0 -125 21l-9 44q56 -17 118 -17q102 0 166 47.5t64 143.5q0 112 -105 112q-65 0 -132 -24l93 342h319l-30 -75h-250l-50 -200q49 13 99 13q72 0 113.5 -40.5t41.5 -112.5z" />
    <glyph glyph-name="six.tosf" 
d="M520 700l7 -41q-265 -104 -358 -318q30 28 79.5 46.5t101.5 18.5q67 0 109 -45t42 -119q0 -110 -74.5 -183t-176.5 -73q-93 0 -143 56t-50 161q0 95 37.5 177t103.5 142.5t146 104t176 73.5zM402 232q0 113 -91 113q-34 0 -78 -13.5t-78 -38.5q-14 -47 -14 -101
q0 -68 27 -113t88 -45q63 0 104.5 55t41.5 143z" />
    <glyph glyph-name="seven.tosf" 
d="M539 505l-27 -64q-178 -187 -343 -592l-111 -26q70 158 175.5 325t210.5 282h-352l28 75h419z" />
    <glyph glyph-name="eight.tosf" 
d="M556 521q0 -64 -46.5 -111.5t-130.5 -66.5q70 -38 99.5 -76t29.5 -85q0 -81 -65 -138.5t-175 -57.5q-106 0 -165.5 49t-59.5 126q0 130 191 184q-43 21 -68 61.5t-25 84.5q0 77 61 129t157 52q92 0 144.5 -44t52.5 -107zM415 170q0 42 -29.5 73.5t-113.5 74.5
q-60 -21 -97.5 -62.5t-37.5 -98.5q0 -59 33 -92.5t99 -33.5q70 0 108 40t38 99zM468 526q0 44 -28.5 70.5t-84.5 26.5q-54 0 -88 -32.5t-34 -86.5q0 -39 23.5 -70.5t82.5 -61.5q129 41 129 154z" />
    <glyph glyph-name="nine.tosf" 
d="M517 306q0 -108 -40.5 -195.5t-112.5 -146.5t-160 -97t-193 -58l-25 40q143 34 256 115t149 169q-70 -48 -152 -48q-80 0 -129.5 48.5t-49.5 127.5q0 110 74.5 187t180.5 77q93 0 147.5 -57.5t54.5 -161.5zM407 192q21 52 21 119q0 69 -27.5 116t-87.5 47q-69 0 -114 -58
t-45 -148q0 -59 27.5 -92t79.5 -33q86 0 146 49z" />
    <glyph glyph-name="uni2007.tosf" 
 />
    <glyph glyph-name="germandbls.hist" horiz-adv-x="657" 
d="M401 -14q-99 0 -162 45l17 98h63v-12q0 -46 20 -65.5t70 -19.5q48 0 79.5 22t31.5 68q0 33 -17.5 50.5t-56.5 34.5l-51 22q-47 20 -72 50t-25 79q0 69 54.5 108t133.5 39q85 0 141 -38l-15 -90h-61q-2 41 -21 61.5t-64 20.5q-40 0 -63 -20.5t-23 -57.5q0 -25 12.5 -42
t45.5 -31l51 -22q59 -25 87 -56.5t28 -81.5q0 -71 -57 -116.5t-146 -45.5zM243 599l-124 -626q-33 -161 -153 -161q-29 0 -61 16v31q63 4 89 25.5t37 80.5l92 471h-63l6 32l66 22l16 80q15 78 66 119t124 41q55 0 95 -18l-17 -83h-61q0 58 -34 58q-29 0 -48.5 -19.5
t-29.5 -68.5z" />
    <glyph glyph-name="exclam.sc" horiz-adv-x="335" 
d="M307 551l-124 -361h-53l56 346zM199 60q0 -28 -20 -48t-47 -20t-45.5 19.5t-18.5 48.5q0 27 18.5 46t46.5 19q27 0 46.5 -19t19.5 -46z" />
    <glyph glyph-name="ampersand.sc" horiz-adv-x="592" 
d="M491 207q-19 -51 -58 -96l39 -46q27 -32 82 -32l-7 -33h-135l-40 47q-86 -61 -187 -61q-83 0 -123.5 37t-40.5 96v5q1 57 41 90.5t118 60.5l-10 11q-29 32 -40.5 57t-11.5 61v5q1 54 45 96.5t127 42.5q69 0 110 -28.5t41 -88.5q0 -88 -156 -150l124 -143q36 44 36 97
q0 17 -11 23.5t-40 8.5l6 31h172l-7 -31q-37 -1 -48.5 -11.5t-25.5 -48.5zM204 33q78 0 142 43l-148 174q-45 -22 -65 -49t-20 -70q0 -44 24 -71t67 -27zM253 320l12 -13q51 27 75.5 54t24.5 64q0 80 -76 80q-40 0 -65.5 -22t-25.5 -63q0 -25 12 -45t43 -55z" />
    <glyph glyph-name="question.sc" horiz-adv-x="430" 
d="M269 507q-78 0 -100 -89h-69l16 82q62 50 161 50q143 0 143 -106q0 -53 -36.5 -86.5t-108.5 -64.5q-50 -21 -59 -62q-3 -12 -3 -29q0 -8 1 -12h-41q-14 25 -14 53q0 55 86 107q40 24 60 45.5t20 53.5q0 58 -56 58zM242 60q0 -30 -21 -51.5t-50 -21.5q-28 0 -48 21.5
t-20 51.5q0 28 19.5 48t48.5 20t50 -20t21 -48z" />
    <glyph glyph-name="grave.sc" horiz-adv-x="545" 
d="M361 600l-20 -34l-212 96l53 91z" />
    <glyph glyph-name="a.sc" horiz-adv-x="548" 
d="M354 103l-6 65h-183l-36 -65q-16 -29 -16 -45q0 -27 55 -27l-7 -31h-197l7 31q37 5 54 20t46 66l238 420h92l43 -418q5 -48 17 -66t48 -22l-7 -31h-223l7 31q40 1 54.5 12t14.5 40q0 9 -1 20zM237 299l-48 -86h155l-8 85q-9 99 -9 171h-6q-35 -83 -84 -170z" />
    <glyph glyph-name="b.sc" horiz-adv-x="552" 
d="M4 0l6 33q49 1 66 16.5t26 59.5l62 317q4 19 4 35q0 22 -14 30.5t-52 10.5l6 35h251q169 0 169 -117q0 -58 -36 -94.5t-103 -44.5v-4q55 -8 85.5 -36t30.5 -73q0 -79 -62 -127q-32 -25 -75.5 -33t-123.5 -8h-240zM234 299h65q64 0 95 26q40 31 40 98q0 40 -24 54t-83 14
h-55zM295 255h-69l-41 -210h76q74 0 106 24q41 33 41 103q0 43 -26.5 63t-86.5 20z" />
    <glyph glyph-name="c.sc" horiz-adv-x="508" 
d="M254 29q105 0 138 105h62l-22 -101q-29 -20 -79 -33.5t-102 -13.5q-101 0 -151 56.5t-50 156.5q0 91 34.5 169.5t104 129.5t159.5 51q96 0 156 -40l-21 -105h-58q-3 57 -20 79.5t-61 22.5q-53 0 -93 -31t-61.5 -81.5t-32 -104t-10.5 -107.5q0 -153 107 -153z" />
    <glyph glyph-name="d.sc" horiz-adv-x="593" 
d="M4 0l6 33q49 1 66 16.5t26 59.5l62 317q4 19 4 35q0 22 -14 30.5t-52 10.5l6 35h210q115 0 177.5 -48.5t62.5 -141.5q0 -179 -86 -271q-70 -76 -232 -76h-236zM318 492h-46l-88 -448h55q61 0 97.5 13t65.5 55q60 88 60 240q0 140 -144 140z" />
    <glyph glyph-name="e.sc" horiz-adv-x="519" 
d="M4 0l6 33q49 1 66 16.5t26 59.5l62 317q4 19 4 35q0 22 -14 30.5t-52 10.5l6 35h412l-17 -140h-40q-5 57 -19.5 75.5t-56.5 18.5h-115l-38 -195h49q48 0 62 9.5t25 51.5h41l-33 -166h-41q2 18 2 27q0 21 -12.5 27.5t-51.5 6.5h-50l-39 -205h114q57 0 82 23t45 94h45
l-32 -164h-436z" />
    <glyph glyph-name="f.sc" horiz-adv-x="504" 
d="M223 241l-26 -132q-4 -24 -4 -31q0 -25 16.5 -34t59.5 -11l-6 -33h-259l6 33q49 1 66 16.5t26 59.5l62 317q4 19 4 36q0 21 -14.5 30t-51.5 10l6 35h422l-17 -140h-40q-5 57 -19.5 75.5t-56.5 18.5h-125l-40 -206h59q48 0 62 9.5t25 51.5h41l-33 -166h-41q2 22 2 27
q0 21 -12.5 27.5t-51.5 6.5h-60z" />
    <glyph glyph-name="g.sc" horiz-adv-x="538" 
d="M347 48l19 97q5 25 5 36q0 23 -14.5 31.5t-52.5 10.5l6 35h230l-6 -35q-41 -1 -53 -16t-22 -64l-22 -110q-29 -20 -79.5 -33.5t-101.5 -13.5q-102 0 -154 54.5t-52 158.5q0 87 33.5 165.5t104 131.5t162.5 53q107 0 161 -40l-21 -105h-58q-3 55 -22 78.5t-63 23.5
q-54 0 -94.5 -32t-62.5 -83t-32.5 -104t-10.5 -105q0 -84 27.5 -118.5t85.5 -34.5q52 0 87 19z" />
    <glyph glyph-name="h.sc" horiz-adv-x="661" 
d="M589 426l-62 -317q-4 -19 -4 -36q0 -21 14.5 -30t51.5 -10l-6 -33h-249l6 33q49 1 66 16.5t26 59.5l29 147h-235l-29 -147q-4 -19 -4 -34q0 -23 13.5 -32t52.5 -10l-6 -33h-249l6 33q49 1 66 16.5t26 59.5l62 317q4 19 4 36q0 21 -14.5 30t-51.5 10l6 35h249l-6 -35
q-49 -1 -66 -16.5t-26 -59.5l-25 -125h235l25 125q4 19 4 37q0 20 -14.5 29t-51.5 10l6 35h249l-6 -35q-49 -1 -66 -16.5t-26 -59.5z" />
    <glyph glyph-name="i.sc" horiz-adv-x="331" 
d="M259 426l-62 -317q-4 -19 -4 -34q0 -23 14 -32t52 -10l-6 -33h-249l6 33q49 1 66 16.5t26 59.5l62 317q4 19 4 36q0 21 -14.5 30t-51.5 10l6 35h249l-6 -35q-49 -1 -66 -16.5t-26 -59.5z" />
    <glyph glyph-name="j.sc" horiz-adv-x="330" 
d="M102 109l62 317q4 19 4 36q0 21 -14.5 30t-51.5 10l6 35h249l-6 -35q-49 -1 -66 -16.5t-26 -59.5l-61 -313q-23 -116 -75 -168.5t-166 -79.5l-17 38q82 33 113 74.5t49 131.5z" />
    <glyph glyph-name="k.sc" horiz-adv-x="576" 
d="M504 449l-165 -152l95 -190q19 -38 41.5 -55t61.5 -20l-6 -32h-148l-136 273l158 151q43 40 43 58q0 19 -40 20l6 35h198l-6 -35q-53 -7 -102 -53zM259 426l-62 -317q-4 -19 -4 -34q0 -23 14 -32t52 -10l-6 -33h-249l6 33q49 1 66 16.5t26 59.5l62 317q4 19 4 36
q0 21 -14.5 30t-51.5 10l6 35h249l-6 -35q-49 -1 -66 -16.5t-26 -59.5z" />
    <glyph glyph-name="l.sc" horiz-adv-x="499" 
d="M259 426l-73 -379h102q57 0 83 23.5t46 93.5h43l-32 -164h-424l6 33q49 1 66 16.5t26 59.5l62 317q4 19 4 35q0 22 -14 30.5t-52 10.5l6 35h249l-6 -35q-49 -1 -66 -16.5t-26 -59.5z" />
    <glyph glyph-name="m.sc" horiz-adv-x="733" 
d="M749 537l-5 -36q-42 -2 -55.5 -12.5t-18.5 -47.5l-49 -346q-5 -35 7 -47.5t55 -14.5l-5 -33h-229l4 33q41 1 55 12t19 44l37 249q8 54 24 122h-6q-19 -56 -56 -125l-182 -335h-69l-36 335q-5 49 -5 125h-6q-9 -65 -25 -125l-69 -245q-5 -18 -5 -28q0 -16 12 -22t42 -7
l-4 -33h-200l5 33q46 1 63 13.5t27 48.5l98 346q4 15 4 24q0 18 -14 26t-46 10l5 36h184l34 -326q7 -69 7 -121h6q17 64 45 117l170 330h182z" />
    <glyph glyph-name="n.sc" horiz-adv-x="612" 
d="M453 242l36 184q4 20 4 34q0 23 -13.5 32t-51.5 10l6 35h214l-6 -35q-49 -1 -66 -16.5t-26 -59.5l-83 -426h-67l-131 294q-34 75 -47 132h-6q-4 -66 -16 -133l-35 -184q-5 -23 -5 -35q0 -22 15 -31t52 -10l-6 -33h-216l6 33q49 1 66 16.5t26 59.5l62 317q4 19 4 36
q0 21 -14.5 30t-51.5 10l6 35h153l127 -295q24 -57 40 -125h6q5 65 18 125z" />
    <glyph glyph-name="o.sc" horiz-adv-x="579" 
d="M544 325q0 -151 -80 -245t-203 -94q-98 0 -154.5 60.5t-56.5 164.5q0 146 82 241.5t201 95.5q98 0 154.5 -61t56.5 -162zM445 361q0 143 -111 143q-76 0 -121 -66q-29 -42 -47.5 -116t-18.5 -149q0 -145 115 -145q72 0 115 57q30 40 49 118t19 158z" />
    <glyph glyph-name="p.sc" horiz-adv-x="532" 
d="M435 404q0 87 -105 87h-58l-47 -242h48q80 0 109 21q53 38 53 134zM108 537h215q102 0 156 -33t54 -112q0 -112 -101 -162q-53 -27 -165 -27h-52l-18 -94q-8 -44 5.5 -59.5t66.5 -16.5l-6 -33h-259l6 33q49 1 66 16.5t26 59.5l62 317q4 19 4 36q0 21 -14 30t-52 10z" />
    <glyph glyph-name="q.sc" horiz-adv-x="576" 
d="M544 325q0 -130 -66.5 -223.5t-171.5 -111.5q4 -1 37.5 -10t49 -12.5t41.5 -7.5t45 -4q38 0 64 9l-24 -72q-20 -10 -66 -10q-39 0 -79.5 17.5t-96.5 49t-97 48.5q-130 53 -130 213q0 146 82 241.5t201 95.5q98 0 154.5 -61t56.5 -162zM445 361q0 143 -111 143
q-76 0 -121 -66q-29 -42 -47.5 -116t-18.5 -149q0 -150 115 -150q69 0 116 62q30 40 48.5 117.5t18.5 158.5z" />
    <glyph glyph-name="r.sc" horiz-adv-x="565" 
d="M437 404q0 47 -24.5 67t-73.5 20h-67l-42 -212h61q81 0 113.5 27t32.5 98zM328 244v-3q70 -15 93 -66q12 -27 39 -96q9 -23 26 -33.5t51 -11.5l-6 -34h-140q-43 119 -63 157q-24 48 -44.5 63t-62.5 17l-24 -128q-4 -24 -4 -31q0 -25 16.5 -34t59.5 -11l-6 -33h-259l6 33
q49 1 66 16.5t26 59.5l62 317q4 19 4 35q0 22 -14 31t-52 10l6 35h231q98 0 146 -29.5t48 -108.5q0 -93 -83 -134q-44 -21 -122 -21z" />
    </font>
</defs>
</svg>
